<?xml version="1.0" standalone="no"?>
<!DOCTYPE svg PUBLIC "-//W3C//DTD SVG 1.1//EN" "http://www.w3.org/Graphics/SVG/1.1/DTD/svg11.dtd">
<svg xmlns="http://www.w3.org/2000/svg">
<metadata>Copyright (C) 2021 by original authors @ fontello.com</metadata>
<defs>
<font id="fontello" horiz-adv-x="1000" >
<font-face font-family="fontello" font-weight="400" font-stretch="normal" units-per-em="1000" ascent="850" descent="-150" />
<missing-glyph horiz-adv-x="1000" />
<glyph glyph-name="paid-webinar" unicode="&#xe800;" d="M896 40c-8 17-28 25-45 17l-217-96c-9-6-20-10-32-10h-158c-6 0-11 5-11 11 0 6 5 10 11 10h158c7 0 14 3 20 6 0 1 0 1 1 1 9 7 14 17 14 29 0 20-15 36-35 36h-107c-37 0-73 10-105 28-27 15-57 24-88 25v-181l127-48c32-12 65-18 98-18 44 0 87 10 125 30l228 115c17 8 24 28 16 45z m-632 114h-139c-10 0-18-8-18-18v-248c0-10 8-17 18-17h139c9 0 17 7 17 17v248c0 10-8 18-17 18z m-71-254h-47c-6 0-11 5-11 11v46c0 6 5 11 11 11 6 0 11-5 11-11v-35h36c6 0 10-5 10-11 0-6-4-11-10-11z m-7 165c-17 0-31 14-31 31 0 17 14 31 31 31 17 0 31-14 31-31 0-17-14-31-31-31z m609 535h-171l120-110 51 110z m-41-139l-127-276 236 276h-109z m-23 0h-268l123-315 145 315z m137 22l-55 104-49-104h104z m-560-22l244-286-112 286h-132z m262 139h-192l71-112 121 112z m150-117l-123 113-123-113h246z m-360 106l-57-106h125l-68 106z m225 80c6 0 11 5 11 10v160c0 6-5 11-11 11-5 0-10-5-10-11v-160c0-5 5-10 10-10z m89 4l77 93c4 4 3 11-1 15-5 3-12 3-15-2l-77-93c-4-4-3-11 1-15 5-3 11-3 15 2z m-177 0c3-5 10-5 15-2 4 4 5 11 1 15l-77 93c-4 5-10 5-15 2-4-4-5-11-1-15l77-93z" horiz-adv-x="1000" />

<glyph glyph-name="send" unicode="&#xe801;" d="M917 767l-459-459m459 459l-292-834-167 375-375 167 834 292z" horiz-adv-x="1000" />

<glyph glyph-name="webinars" unicode="&#xe802;" d="M502 825c-21 0-38-17-38-37v-200c0-21 17-38 38-38h12v-62c0-3 1-5 2-7 2-2 3-4 6-5 2-1 4-1 7-1 2 0 4 1 6 3l84 72h208c20 0 37 17 37 38v200c0 20-17 37-37 37h-325z m-350-25c-21 0-38-17-38-37v-400c0-21 17-38 38-38h625c20 0 37 17 37 38v162h-50v-137c0-4-1-7-3-9-3-3-6-4-9-4h-575c-2 0-3 0-5 1-1 1-3 2-4 3-1 1-2 2-3 4 0 1-1 3-1 5v350c0 1 1 3 1 4 1 2 2 3 3 4 1 2 3 3 4 3 2 1 3 1 5 1h262v38c0 4 1 8 3 12h-290z m463-37c2-1 4-1 6-2l100-63c8-5 8-16 0-21l-100-63c-8-5-19 1-19 11v125c0 8 6 13 13 13v0z m-276-63c-41 0-75-34-75-75v-37c0-7 6-13 13-13v-12c0-23 10-42 25-56v-32h-13c-41 0-75-34-75-75h275c0 41-33 75-75 75h-12v32c15 14 25 33 25 56v12c7 0 12 6 12 13v37c0 41-33 75-75 75h-25z m49-103l14-15v-19c0-28-22-50-50-50-28 0-50 22-50 50v12h12c32 0 65 16 74 22z m-61-105c8-3 16-4 25-4 9 0 17 1 25 4v-27c0 0-4-15-25-15-21 0-25 15-25 15v27z m-100-192c-34 0-63-28-63-62v-13c0-5 1-10 2-15 8 2 16 3 23 3h75c8 0 16-1 23-3 2 5 2 10 2 15v13c0 34-28 62-62 62h0z m262 0c-34 0-62-28-62-62v-13c0-5 1-10 2-15 7 2 15 3 23 3h75c8 0 15-1 23-3 1 5 2 10 2 15v13c0 34-28 62-63 62v0z m263 0c-35 0-63-28-63-62v-13c0-5 1-10 2-15 8 2 15 3 23 3h75c8 0 16-1 23-3 2 5 2 10 2 15v13c0 34-28 62-62 62h0z m-563-112c-41 0-75-34-75-75v-25c0-2 1-4 1-5 1-2 2-3 3-4 1-2 3-2 4-3 2-1 3-1 5-1h200c2 0 3 0 5 1 1 1 3 1 4 3 1 1 2 2 2 4 1 1 1 3 1 5v25c0 41-33 75-75 75h-75z m263 0c-41 0-75-34-75-75v-25c0-2 0-4 1-5 0-2 1-3 2-4 2-2 3-2 5-3 1-1 3-1 4-1h200c2 0 4 0 5 1 2 1 3 1 4 3 1 1 2 2 3 4 1 1 1 3 1 5v25c0 41-34 75-75 75h-75z m262 0c-41 0-75-34-75-75v-25c0-2 1-4 1-5 1-2 2-3 3-4 1-2 3-2 4-3 2-1 3-1 5-1h200c3 0 6 1 9 4 2 2 3 5 3 9v25c0 41-33 75-75 75h-75z" horiz-adv-x="1000" />

<glyph glyph-name="widgets" unicode="&#xe803;" d="M331 796h-263c-38 0-68-31-68-68v-263c0-37 30-68 68-68h263c37 0 68 31 68 68v263c0 37-31 68-68 68z m649-151l-186 185c-12 13-29 20-47 20-18 0-36-7-48-20l-186-185c-13-13-20-30-20-48 0-18 7-35 20-48l185-186c13-13 30-20 48-20 18 0 35 7 48 20l186 186c6 6 11 13 15 22 3 8 5 17 5 26 0 9-2 17-5 26-4 8-9 15-15 22z m-649-396h-263c-38 0-68-31-68-68v-263c0-37 30-68 68-68h263c37 0 68 31 68 68v263c0 37-31 68-68 68z m547 0h-263c-37 0-68-31-68-68v-263c0-37 31-68 68-68h263c37 0 68 31 68 68v263c0 37-31 68-68 68z" horiz-adv-x="1000" />

<glyph glyph-name="bi_arrow-right" unicode="&#xe804;" d="M1018 769c6 6 13 11 21 14 7 3 15 5 24 5 8 0 16-2 24-5 7-3 14-8 20-14l375-375c6-5 10-12 13-20 4-8 5-16 5-24 0-8-1-16-5-24-3-7-7-14-13-20l-375-375c-12-12-28-19-44-19-17 0-33 7-45 19-11 11-18 27-18 44 0 17 7 33 18 44l331 331-331 331c-6 6-10 13-13 20-3 8-5 16-5 24 0 8 2 16 5 24 3 8 7 15 13 20z m-1018-419c0 17 7 33 18 44 12 12 28 19 45 19h1312c17 0 33-7 44-19 12-11 19-27 19-44 0-17-7-32-19-44-11-12-27-18-44-18h-1312c-17 0-33 6-45 18-11 12-18 27-18 44z" horiz-adv-x="1625" />

<glyph glyph-name="wrench" unicode="&#xe805;" d="M951 461c14-13 14-35 0-50l-67-68c-14-14-35-14-50 0l-15 16c-11 10-16 29-10 37 11 8 7 30-14 50-30 32-69 33-84 17-6-5-26-27-26-27l-92 92 15 15s3 3 11 12c29 29-1 61-1 61-82 80-195 79-195 79l-2 29c229 59 315-41 347-73l66-66c16-16 0-62 24-89 11-11 26-16 37-16 13 11 33 8 43-4z m-406-168l220-198c31-31 30-81-1-114-33-31-83-31-114 2l-201 212-188-226c-17-19-48-19-67 0l-49 50c-19 17-19 49 0 67l215 200-104 100c-33 33-53 43-81 34-27-10-66-10-102 14-78 50-73 144-73 144l6 10s70-45 79-50c11-9 50-27 85 27 36 54 6 88-4 94-8 5-78 51-78 51l6 10s81 41 157-4c0-2 19-13 27-20 48-43 48-92 40-132-8-36 0-49 28-80l104-104 124 126 90-92z m191-284c17 15 17 44 0 60s-42 16-60 0c-15-16-15-44 0-59 18-16 44-19 60-1z" horiz-adv-x="951" />

<glyph glyph-name="chat" unicode="&#xe806;" d="M833 433v84h167v-500h-125v-167l-222 167h-320v166h500v250z m-83-166h-403l-222-167v167h-125v583h750v-583z m-250 342v62c0 10-8 18-18 18h-250c-10 0-18-8-18-18v-214c0-10 8-18 18-18h250c10 0 18 8 18 18v63l71-72v232l-71-71z m-89-107v44h-107v-44l-63 62 63 63v-45h107v45l62-63-62-62z" horiz-adv-x="1000" />

<glyph glyph-name="custom-reg" unicode="&#xe807;" d="M229 463c0 78 63 141 141 141 61 0 113-40 132-95l172 172-82 82c-10 9-26 9-35 0l-40-40c-21 11-43 21-67 27v57c0 15-12 25-26 25h-109c-15 0-25-10-25-25v-57c-25-6-47-16-68-27l-40 40c-9 9-25 9-35 0l-76-77c-10-10-10-25 0-35l40-40c-12-21-21-43-28-67h-58c-14 0-25-12-25-26v-108c0-15 11-25 25-25h57c6-24 16-47 28-68l-40-40c-11-9-10-25 0-34l82-82 171 171c-56 17-94 70-94 131z m465 94l-375-375 161-161 375 375-161 161z m296 20l-113 114c-14 14-35 14-48 0l-74-74 162-162 74 74c12 14 12 36-1 48z m-773-498c-4-4-7-10-10-16l-33-147c-6-24 17-46 41-41l146 34c6 1 12 4 17 9l42 42-161 162-42-43z" horiz-adv-x="1000" />

<glyph glyph-name="float" unicode="&#xe808;" d="M381 270v-134h333v334h-133v-200h-200z m-287 580l-94-94 600-600 94 94-600 600z m906-1000h-1000v500h133v-367h734v734h-367v133h500v-1000z" horiz-adv-x="1000" />

<glyph glyph-name="members" unicode="&#xe809;" d="M624 205l-72 6c-7 1-13 5-15 11l-28 67c-7 15-27 15-33 0l-28-67c-3-7-9-11-15-11l-73-6c-16-1-22-21-10-32l55-47c6-4 8-12 6-18l-17-71c-3-15 12-27 26-19l62 38c6 4 13 4 19 0l62-38c14-8 31 5 27 19l-17 71c-1 6 1 14 5 18l56 47c12 11 5 31-10 32z m21 299c-6 58-55 101-113 101h-80c-58 0-107-43-114-101l-12-94c-1-12 7-23 18-26 47-10 96-15 147-15 50 0 101 5 146 15 12 2 20 13 18 26l-10 94z m-153 129c60 0 108 49 108 109 0 60-48 108-108 108-60 0-109-48-109-108 0-60 49-109 109-109z m-287-547h-80c-57 0-106-43-113-101l-12-94c-1-12 6-23 18-26 46-10 96-15 146-15 52 0 101 5 147 15 11 2 20 13 18 26l-12 94c-5 58-54 101-112 101z m-40 28c60 0 109 49 109 109 0 60-49 108-109 108-59 0-108-48-108-108 0-60 49-109 108-109z m808-129c-7 58-56 101-114 101h-80c-58 0-106-43-114-101l-11-94c-1-12 6-23 18-26 46-10 96-15 146-15 52 0 101 5 146 15 12 2 20 13 18 26l-9 94z m-155 129c60 0 108 49 108 109 0 60-48 108-108 108-60 0-108-48-108-108 0-60 48-109 108-109z" horiz-adv-x="1000" />

<glyph glyph-name="notes" unicode="&#xe80a;" d="M375 58h-167v84h167v-84z m123 169l129-130-171-39 42 169z m502 243l-329-333-133 133 329 333 133-133z m-250-372v-165h-667v834h307c173 0 110-250 110-250 0 0 96 26 170 5l81 83c-92 117-240 245-326 245h-425v-1000h833v333l-83-85z" horiz-adv-x="1000" />

<glyph glyph-name="computer-user" unicode="&#xe80b;" d="M680 18h308c0 0-43 200-150 358-30 47-108 90-166 24-55-63-109-275-109-275 0 0-42 0-90 0l-92 195c-9 22-32 38-54 38h-277c-13 0-24-6-31-16-7-10-9-24-3-37l117-248c8-22 31-38 54-38l460-1 116 254c4 8 13 11 20 8 8-4 11-13 8-20l-111-242z m-509 54l-116 245h272c5 0 13-6 16-12l85-180c-50 0-96 0-96 0-29 0-54-24-54-53 0-4 0-8 1-12h-92c-6 0-14 6-16 12z m357 356l1-1c19-9 117-38 212 71 38 47 52 114 52 114 0 0-43-25-79-14-25 6-51 33-57 38-12 11-26 20-43 26-65 22-135-13-157-79-21-63 10-131 71-155z" horiz-adv-x="1000" />

<glyph glyph-name="cancel" unicode="&#xe80c;" d="M0 90q0 36 26 62l195 195-195 196q-26 25-26 61t26 61 61 25 61-25l196-196 195 196q25 25 61 25t61-25 25-61-25-61l-195-196 195-195q25-26 25-62t-25-61q-25-25-61-25t-61 25l-195 195-196-195q-25-25-61-25t-61 25q-26 26-26 61z" horiz-adv-x="686.5" />

<glyph glyph-name="fb" unicode="&#xe80d;" d="M406 685h91v158c-16 2-69 7-132 7-131 0-221-82-221-234v-139h-144v-176h144v-445h177v445h139l22 176h-161v122c0 51 14 86 85 86z" horiz-adv-x="524" />

<glyph glyph-name="head-phone" unicode="&#xe80e;" d="M943 323c0-27 0-54 0-81 0-13-3-26-10-37-6-11-15-20-26-26-18-11-39-18-60-19h-6c-12 0-24 3-35 10-10 7-18 17-23 28-5 13-8 26-9 40v0l2 128c2 14 7 26 15 36 8 11 19 18 32 22-1 46-12 90-32 131-51 99-131 157-240 173-81 12-163-8-229-56-67-48-112-120-125-201-2-14-3-27-4-41v-6c11-3 20-9 28-17 7-8 13-17 16-28 3-10 5-21 5-32 0-38 0-73 0-106-1-11-2-22-6-33-4-14-13-26-24-35 4-44 24-86 57-116 33-31 77-48 121-48h24c4 7 10 13 17 17 7 4 15 7 23 7h89c13 0 24-5 33-14 9-9 14-21 14-33v-49c0-13-5-24-14-33-9-9-20-14-33-14h-89c-8 0-16 3-23 7-7 4-13 10-17 17h-23c-70 0-137 27-188 75-51 48-81 114-85 184-5 2-10 5-14 8-9 6-17 15-23 24-5 10-8 21-8 32-1 36-1 74 0 113 0 10 2 20 7 30 5 9 12 17 20 24-4 106 34 209 106 287 57 65 133 108 217 124 158 30 291-15 396-135 67-77 100-170 97-277 9-7 16-16 20-25 5-10 8-21 7-32l0-23z m-245 131v-194c0-8-1-16-4-24-4-7-8-14-14-20-6-6-13-10-20-13-8-3-16-5-24-5h-79l-57-57c-4-3-8-6-13-7-5-1-10 0-14 2-4 2-8 5-11 9-3 4-4 8-4 13v40h-78c-17 0-33 7-44 18-12 12-19 28-19 44v194c0 16 7 32 19 44 11 12 27 18 44 18h256c8 0 16-1 24-4 7-4 14-8 20-14 6-6 10-13 14-20 3-8 4-16 4-24z m-238-97c0 5-1 9-3 13-3 4-7 7-11 9-4 1-9 2-13 1-5-1-9-3-12-6-3-4-6-8-7-12 0-5 0-10 2-14 2-4 4-8 8-10 4-3 9-4 13-4 6 0 12 2 17 7 4 4 6 10 6 16z m71 0c0 5-2 9-4 13-3 4-6 7-11 9-4 1-8 2-13 1-4-1-9-3-12-7-3-3-5-7-6-11-1-5-1-10 1-14 2-4 5-8 9-10 4-3 8-4 13-4 3 0 6 0 9 2 2 1 5 2 7 5 2 2 4 4 5 7 1 3 2 6 2 9z m70 0c0 5-1 9-4 13-2 4-6 7-10 9-4 1-9 2-13 1-5-1-9-3-12-6-4-4-6-8-7-12-1-5 0-10 2-14 1-4 4-8 8-10 4-3 8-4 13-4 3 0 6 0 9 2 3 1 5 3 8 5 2 2 3 4 5 7 1 3 1 6 1 9h0z" horiz-adv-x="1000" />

<glyph glyph-name="heart" unicode="&#xe80f;" d="M985 710c-24 25-53 44-85 58-32 13-66 20-101 20-34 0-68-7-100-20-32-14-61-33-86-58l-50-50-51 50c-50 50-116 78-186 78-70 0-137-28-186-78-50-49-77-116-77-186 0-69 27-136 77-186l50-50 373-373 372 373 50 50c25 25 44 54 58 86 13 32 20 66 20 100 0 35-7 69-20 101-14 32-33 61-58 85v0z" horiz-adv-x="1125" />

<glyph glyph-name="marketing" unicode="&#xe810;" d="M562 162l-244-65 129-139-84-53-109 175-54-15c-16-4-31 3-40 16l-12 20-37-23c-11-7-26-4-33 8l-30 48c-7 11-4 26 8 33l36 23-10 16c-9 14-7 32 5 44l243 282c-45 71 47 113 80 61l235-374c34-55-45-108-83-57z m123 133c-45-12-63 56-18 68l241 63c45 11 63-57 18-69l-241-62z m-71 105c-32-33-83 16-51 49l204 210c33 34 83-16 51-49l-204-210z m-79 130c-23-41-84-6-62 34l123 216c22 41 84 6 61-34l-122-216z m-278-192l99-158 164 44-152 243-111-129z m27-177l-76 121-52-61 51-80 77 20z" horiz-adv-x="1000" />

<glyph glyph-name="money" unicode="&#xe811;" d="M369 220c7-8 15-14 24-20h-27-36l2-35c2-32 14-60 35-82 15-14 33-25 53-32v-31-35h34 72 34v35 31c22 8 41 19 56 35 21 24 32 54 32 87 0 31-9 59-31 81-6 6-12 11-19 15h10 35l-1 35c-2 54-36 94-82 112v33 34h-34-72-34v-34-32c-48-20-81-61-81-117 0-30 9-58 30-80z m145 79l0-2-18 4c-8 2-14 4-18 5-1 1-2 1-2 1 3 1 8 3 15 3 10 0 16-3 19-5 3-2 4-4 4-6z m-42 6c0 0 0 0 0 0l0 0z m-10-135l-1 7 28-6c9-2 15-4 20-6 1 0 2-1 3-1-3-2-10-4-20-4-13 0-21 3-26 5-3 3-4 4-4 5z m-138 371h332c0-1 1-1 1-1 6-6 16-15 27-27 23-23 53-56 83-97 61-83 119-192 119-307 0-124-92-181-145-181h-502c-52 0-145 57-145 181 0 115 58 224 119 307 30 41 61 74 83 97 12 12 21 21 28 27 0 0 0 0 0 1z m231 215h15 99c1 0 1 0 1-1 0 0 1 0 1 0 0 0 0-1 0-1 0 0 0-1 0-1l0 0-1-1-25-71h-310l-25 71 0 1 0 0c0 0-1 1-1 1 1 0 1 1 1 1l-28 19 28-19c0 0 0 0 0 0l-16 31 16-31c1 1 1 1 1 1h99 15l10 11c7 8 16 14 25 18 10 4 20 6 30 6 11 0 21-2 30-6 10-4 18-10 25-18l10-11z" horiz-adv-x="1000" />

<glyph glyph-name="offers" unicode="&#xe812;" d="M699 392c5 0 10 3 11 9 2 6-2 12-8 14l-462 117v123l462 118c6 2 10 8 8 14-2 6-8 10-14 8l-470-120c-5-1-9-6-9-11v-141c0-5 4-10 9-11l470-120c1 0 2 0 3 0z m24-35c20 0 36 16 36 36v401c0 20-16 36-36 36-20 0-36-16-36-36v-201c0-6 5-11 11-11 6 0 11 5 11 11v201c0 7 6 13 13 13 7 0 13-6 13-13v-401c0-7-6-13-13-13-7 0-13 6-13 13v79c0 6-5 11-11 11-6 0-11-5-11-11v-79c1-20 17-36 36-36z m-494 295c5 0 10 4 11 10 1 6-3 12-9 13l-86 14c-6 1-12-3-13-9-1-6 3-12 9-13l86-14c1-1 2-1 2-1z m-86-153c1 0 1 0 2 0l86 14c6 1 10 7 9 13-1 6-7 10-13 9l-86-14c-6-1-10-7-9-13 1-5 6-9 11-9z m-28-21c22 0 39 18 39 39 0 6-5 11-11 11-6 0-11-5-11-11 0-9-8-17-17-17-9 0-17 8-17 17v154c0 9 8 17 17 17 9 0 17-8 17-17v-37c0-6 5-11 11-11 6 0 11 5 11 11v37c0 22-18 39-39 39-22 0-39-18-39-39v-154c0-22 17-39 39-39z m243-110h109c22 0 40 18 40 40v44c0 6-5 11-11 11-6 0-11-5-11-11v-44c0-9-8-17-17-17h-109c-9 0-17 8-17 17v88c0 6-5 11-11 11-6 0-11-5-11-11v-88c-2-22 16-40 38-40z m497 205h134c6 0 11 5 11 11 0 6-5 11-11 11h-133c-6 0-11-5-11-11 0-6 4-11 10-11z m-19 92c3 0 6 1 8 3l94 94c4 4 4 12 0 16-4 4-12 4-16 0l-94-94c-4-4-4-12 0-16 2-2 5-3 8-3z m94-273c3 0 6 1 8 3 4 4 4 12 0 16l-94 94c-4 4-12 4-16 0-4-4-4-12 0-16l94-94c2-2 5-3 8-3z m-475-280h78c30 0 54 24 54 54 0 30-24 54-54 54h-172c-6 0-11-5-11-11 0-6 5-11 11-11h172c17 0 31-14 31-31 0-17-14-31-31-31h-78c-6 0-11-5-11-11 0-6 5-13 11-13z m-13-84h66c30 0 54 24 54 54 0 6-5 11-11 11-6 0-11-5-11-11 0-17-14-31-31-31h-66c-6 0-11-5-11-11-2-7 3-12 10-12z m0-85h38c30 0 54 24 54 54 0 6-5 11-11 11-6 0-11-5-11-11 0-17-14-31-31-31h-38c-6 0-11-5-11-11-2-7 3-12 10-12z m11-73c30 0 54 24 54 54 0 6-5 11-11 11-6 0-11-5-11-11 0-17-14-31-31-31h-19c-78 2-131 15-207 39-23 7-41 11-45 12-6 2-28 6-96 5-6 0-11-5-11-12 0-6 5-11 11-11 71 2 88-4 88-4 1 0 1 0 2-1 0 0 19-4 43-11 78-25 133-38 213-40h20z m-366 311c52 0 95 40 100 45 18 14 38 30 62 46 29 20 64 28 99 23 4-1 9-1 13-1 6-1 12 4 12 10 1 6-4 12-10 12-4 0-8 1-12 1-41 5-81-4-114-27-24-17-45-33-64-47l-1-1c0 0-39-39-84-39-6 0-11-5-11-11 0-6 4-11 10-11z m409-268c6 0 11 5 11 11v30c0 6-5 11-11 11-6 0-11-5-11-11v-30c-1-6 4-11 11-11z m25 72c6 0 11 5 11 11v45c0 6-5 11-11 11-6 0-11-5-11-11v-45c0-6 5-11 11-11z m-510-106h52c19 0 35 16 35 35v302c0 19-16 35-35 35h-52c-6 0-11-5-11-11 0-6 5-11 11-11h52c7 0 13-6 13-13v-302c0-7-6-13-13-13h-52c-6 0-11-5-11-11 0-6 5-11 11-11z m538 191c6 0 11 5 11 11v46c0 6-5 11-11 11-6 0-11-5-11-11v-46c0-6 5-11 11-11z m-90 127c6 0 11 5 11 11v171c0 6-5 11-11 11-6 0-11-5-11-11v-171c0-6 5-11 11-11z m-94 0c6 0 11 5 11 11v171c0 6-5 11-11 11-6 0-11-5-11-11v-171c0-6 5-11 11-11z" horiz-adv-x="1000" />

<glyph glyph-name="paid" unicode="&#xe813;" d="M810 265h3c14 41 22 86 22 132 0 223-181 405-405 405-224 0-405-182-405-405 0-223 182-405 405-405 65 0 125 15 180 42-1 10-2 20-2 29 0 112 90 202 202 202z m-345-69v-51c0-5-4-10-10-10h-50c-5 0-10 4-10 10v50c-50 3-91 42-96 92-1 6 4 11 10 11h50c4 0 8-3 9-7 3-16 17-27 33-27h44c26 0 49 19 52 45 3 29-20 54-49 54h-32c-62 0-117 45-124 107-7 65 41 121 102 129v50c0 5 4 10 10 10h50c5 0 10-4 10-10v-50c51-3 92-42 97-92 0-6-4-11-10-11h-50c-4 0-9 3-9 7-3 16-17 27-34 27h-44c-26 0-50-19-52-45-3-29 20-55 49-55h38c69 0 125-60 118-130-5-54-49-95-102-104z m345 33c-91 0-165-74-165-165 0-91 74-165 165-165 91 0 165 74 165 165 0 91-74 165-165 165z m71-134l-75-89c-3-4-8-6-13-6-5 0-9 2-13 6l-43 51c-6 7-5 17 2 23 7 6 17 5 23-2l31-37 63 75c6 7 16 8 23 2 7-6 8-16 2-23z" horiz-adv-x="1000" />

<glyph glyph-name="infinity" unicode="&#xe814;" d="M796 570q84 0 144-53t60-167q0-112-60-166t-144-54q-78 0-157 40t-139 106q-58-66-137-106t-157-40q-86 0-146 54t-60 166q0 114 60 167t146 53q78 0 157-39t137-105q58 66 138 105t158 39z m-590-352q60 0 127 37t113 95q-46 58-112 95t-128 37q-114 0-114-132t114-132z m590 0q114 0 114 132t-114 132q-62 0-129-37t-111-95q44-58 111-95t129-37z" horiz-adv-x="1000" />

<glyph glyph-name="quote-left-1" unicode="&#xe815;" d="M429 314v-214q0-45-32-76t-76-31h-214q-44 0-76 31t-31 76v393q0 58 23 111t61 91 91 61 111 23h35q15 0 26-11t10-25v-72q0-14-10-25t-26-10h-35q-59 0-101-42t-42-101v-18q0-22 16-38t37-16h125q45 0 76-31t32-76z m500 0v-214q0-45-32-76t-76-31h-214q-44 0-76 31t-31 76v393q0 58 23 111t61 91 91 61 111 23h35q15 0 26-11t10-25v-72q0-14-10-25t-26-10h-35q-59 0-101-42t-42-101v-18q0-22 16-38t37-16h125q45 0 76-31t32-76z" horiz-adv-x="928.6" />

<glyph glyph-name="quote-right-1" unicode="&#xe816;" d="M429 671v-392q0-58-23-111t-61-91-91-61-111-23h-36q-14 0-25 11t-11 25v71q0 15 11 25t25 11h36q59 0 101 42t42 101v17q0 23-16 38t-38 16h-125q-44 0-76 31t-31 76v214q0 45 31 76t76 32h214q45 0 76-32t32-76z m500 0v-392q0-58-23-111t-61-91-91-61-111-23h-36q-14 0-25 11t-11 25v71q0 15 11 25t25 11h36q59 0 101 42t42 101v17q0 23-16 38t-38 16h-125q-44 0-76 31t-31 76v214q0 45 31 76t76 32h214q45 0 76-32t32-76z" horiz-adv-x="928.6" />

<glyph glyph-name="search-outline" unicode="&#xe817;" d="M511 580q-65 0-110-46t-46-110 46-111 110-45 111 45 46 111-46 110-111 46z m0 51q87 0 147-60t61-147-61-148-147-61-147 61-61 148 61 147 147 60z m-511-555q0 68 48 115l117 119q-19 54-19 114 0 151 107 257t258 107 258-107 106-257-106-258-258-107q-53 0-113 19l-125-124q-49-42-110-42-68 0-115 49t-48 115z m336 88q-51 34-85 85l-130-131q-17-15-17-42 0-25 17-42t42-18q22 0 42 18z m175-1q108 0 184 76t76 185-76 184-184 76-184-76-77-184 77-185 184-76z" horiz-adv-x="875" />

<glyph glyph-name="payouts" unicode="&#xe819;" d="M438 147c-5 0-9 2-11 5-3 2-5 6-5 11 0 45 18 89 50 121 32 32 76 50 122 50 4 0 8-1 11-4 3-3 4-7 4-11 0-4-1-8-4-11-3-3-7-5-11-5-37 0-73-15-100-41-26-26-41-62-41-99 0-5-1-9-4-11-3-3-7-5-11-5z m0 0c-5 0-9 2-11 5-3 2-5 6-5 11 0 45 18 89 50 121 32 32 76 50 122 50 4 0 8-1 11-4 3-3 4-7 4-11 0-4-1-8-4-11-3-3-7-5-11-5-37 0-73-15-100-41-26-26-41-62-41-99 0-5-1-9-4-11-3-3-7-5-11-5z m0 0c-5 0-9 2-11 5-3 2-5 6-5 11 0 45 18 89 50 121 32 32 76 50 122 50 4 0 8-1 11-4 3-3 4-7 4-11 0-4-1-8-4-11-3-3-7-5-11-5-37 0-73-15-100-41-26-26-41-62-41-99 0-5-1-9-4-11-3-3-7-5-11-5z m171-109h-234c-33 0-65 13-88 36-24 24-37 55-37 89v156c0 4 2 8 5 11 3 3 7 4 11 4h312v110c0 20 8 39 22 54 14 14 32 23 53 24 10 0 20-1 30-5 9-4 18-9 25-16 9-8 15-18 20-28 4-10 6-22 6-33v-277c0-34-13-65-36-89-24-23-55-36-89-36z m-328 265v-140c0-25 10-49 28-67 17-17 41-27 66-27h234c25 0 49 10 67 27 17 18 27 42 27 67v277c0 7-1 14-4 21-3 6-6 12-11 17-5 4-10 7-16 10-5 2-11 3-17 3-12-1-24-6-32-15-9-8-14-20-14-32v-125c0-4-1-8-4-11-3-3-7-5-11-5h-313z m360-422h-297c-17 0-33 7-44 19-12 11-19 27-19 44v62c0 17 7 33 19 44 11 12 27 19 44 19h297c16 0 32-7 44-19 12-11 18-27 18-44v-62c0-17-6-33-18-44-12-12-28-19-44-19z m-297 157c-8 0-16-4-22-10-6-5-9-13-9-22v-62c0-9 3-17 9-22 6-6 14-10 22-10h297c8 0 16 4 22 10 6 5 9 13 9 22v62c0 9-3 17-9 22-6 6-14 10-22 10h-297z m250 265h-375c-21 0-41 8-55 23-15 15-23 35-23 55v266c0 4 1 8 4 11 3 3 7 5 11 5h123c3 0 5-1 7-2 3-1 4-2 6-4 1-2 3-4 3-7 1-2 1-5 0-7-4-14-11-27-22-37-11-10-24-17-39-20v-128c15-3 29-11 40-21 11-11 18-25 21-40h299c4 0 8-2 11-5 3-3 4-7 4-11v-62c0-4-1-8-4-11-3-3-7-5-11-5z m-422 328v-250c0-12 5-24 14-33 8-9 20-14 33-14h359v32h-297c-4 0-8 1-11 4-3 3-4 7-4 11 0 13-5 25-14 33-9 9-21 14-33 14-4 0-8 2-11 5-3 3-5 7-5 11v156c0 4 2 8 5 11 3 3 7 5 11 5 6 0 13 1 19 4 6 2 11 6 16 11h-82z m547-265c-4 0-8 1-11 4-3 3-5 7-5 11v59c0 7-1 14-4 21-3 6-6 12-11 17-5 4-10 7-16 10-5 2-11 3-17 3-12-1-24-6-32-15-9-8-14-20-14-32v-63c0-4-1-8-4-11-3-3-7-4-11-4h-313c-4 0-8 1-11 4-3 3-4 7-4 11 0 13-5 25-14 33-9 9-21 14-33 14-4 0-8 2-11 5-3 3-5 7-5 11v156c0 4 2 8 5 11 3 3 7 5 11 5 10 0 20 3 28 10 9 6 15 15 17 25 1 3 3 6 6 8 3 3 6 4 10 4h441c3 0 7-1 10-4 3-2 5-5 5-8 3-10 9-19 17-25 8-7 18-10 28-10 4 0 8-2 11-5 3-3 5-7 5-11v-156c0-4-2-8-5-11-3-3-7-5-11-5-12 0-24-5-33-14-9-8-14-20-14-33 0-4-1-8-4-11-3-3-7-4-11-4z m-424 31h283v47c0 20 8 39 22 54 14 14 32 23 53 24 10 0 20-1 30-5 9-4 18-9 25-16 16-15 25-36 26-57 10 7 20 12 32 14v128c-13 3-24 8-34 16-10 8-17 18-22 29h-420c-5-11-12-21-22-29-10-8-21-13-34-16v-128c15-3 29-11 40-21 11-11 18-25 21-40z m486-94h-62c-4 0-8 2-11 5-3 3-5 7-5 11v62c0 18 6 36 18 50 11 14 27 23 45 27v128c-15 3-28 10-38 20-11 10-19 23-22 37-1 2-1 5 0 7 0 3 1 5 3 7 1 2 3 3 5 4 2 1 5 2 7 2h123c4 0 8-2 11-5 3-3 4-7 4-11v-266c0-17-5-33-16-47-10-14-25-23-41-28-7-2-14-3-21-3z m-47 31h47c4 0 9 1 12 2 10 3 19 9 25 17 7 8 10 18 10 28v250h-82c5-5 10-9 16-11 6-3 13-4 19-4 4 0 8-2 11-5 3-3 5-7 5-11v-156c0-4-2-8-5-11-3-3-7-5-11-5-12 0-24-5-33-14-9-8-14-20-14-33v-47z m125 297h-15c-4 0-8 2-11 5-3 3-5 7-5 11 0 4 2 8 5 11 3 3 7 5 11 5h15c5 0 9-2 11-5 3-3 5-7 5-11 0-4-2-8-5-11-2-3-6-5-11-5z m0-125h-15c-4 0-8 2-11 5-3 3-5 7-5 11v109h-656v-109c0-4-2-8-5-11-3-3-7-5-11-5h-15c-21 0-41 9-56 23-14 15-22 35-22 55v125c0 21 8 41 22 56 15 14 35 23 56 23h718c21 0 41-9 56-23 14-15 23-35 23-56v-125c0-20-9-40-23-55-15-14-35-23-56-23z m-703 157h688c4 0 8-2 11-5 3-3 4-7 4-11v-109c13 0 25 4 34 13 8 9 13 21 13 33v125c0 13-5 25-13 34-9 8-21 13-34 13h-718c-13 0-25-5-33-13-9-9-14-21-14-34v-125c0-12 5-24 14-33 8-9 20-13 33-13v109c0 4 1 8 4 11 3 3 7 5 11 5z m0-32h-15c-4 0-8 2-11 5-3 3-5 7-5 11 0 4 2 8 5 11 3 3 7 5 11 5h15c4 0 8-2 11-5 3-3 5-7 5-11 0-4-2-8-5-11-3-3-7-5-11-5z m344-203c-52 0-94 53-94 117 0 65 42 118 94 118 52 0 94-53 94-118 0-64-42-117-94-117z m0 203c-34 0-62-38-62-86 0-47 28-86 62-86 35 0 63 39 63 86 0 48-28 86-63 86z" horiz-adv-x="1000" />

<glyph glyph-name="promote" unicode="&#xe81a;" d="M750 515c4 0 8 2 11 5l63 62c6 6 6 16 0 22-6 6-16 6-22 0l-63-62c-6-6-6-16 0-22 3-3 7-5 11-5z m11-223c-6 6-16 6-22 0-6-6-6-16 0-22l63-63c3-3 7-4 11-4 4 0 8 1 11 4 6 6 6 16 0 22l-63 63z m114 129h-94c-8 0-15-7-15-15 0-9 7-16 15-16h94c9 0 16 7 16 16 0 8-7 15-16 15z m-562-125v219h-79c-60 0-109-49-109-109 0-61 49-110 109-110h79z m285 373c-7 2-14-1-17-7-53-84-140-137-237-145v-222c97-9 184-62 237-146 2-4 8-7 13-7 1 0 3 0 4 1 7 2 11 8 11 15v496c0 7-4 13-11 15z m43-175v-176c36 13 62 47 62 88 0 40-26 75-62 88z m-390-362c4-22 23-39 46-39 23 0 42 17 46 39l22 129h-136l22-129z" horiz-adv-x="1000" />

<glyph glyph-name="reporting" unicode="&#xe81b;" d="M799 662h-598c-22 0-40-18-40-40v-445c0-22 18-40 40-40h186v-25c-32-7-55-32-55-60v-14h336v14c0 28-23 53-55 60v25h186c22 0 40 18 40 40v445c0 22-18 40-40 40z m-598-27h598c7 0 13-6 13-13v-370h-624v370c0 7 6 13 13 13z m598-471h-213v-76l13-1c17-2 32-10 38-22h-274c6 12 21 20 38 22l13 1v76h-213c-7 0-13 6-13 13v48h624v-48c0-7-6-13-13-13z m-299-17c11 0 20 9 20 20 0 11-9 20-20 20-11 0-20-9-20-20 0-11 9-20 20-20z m55 335h-78v-181h78v181z m-27-154h-24v127h24v-127z m136 204h-78v-231h78v231z m-27-204h-24v177h24v-177z m136 242h-78v-269h78v269z m-27-242h-24v215h24v-215z m-409-27c60 0 109 49 109 109 0 61-49 110-109 110-61 0-110-49-110-110 0-60 49-109 110-109z m67 61l-35 35h49c-2-13-7-24-14-35z m14 62h-68v68c35-6 62-33 68-68z m-95 68v-87l62-62c-14-9-30-15-48-15-46 0-83 37-83 82 0 41 30 75 69 82z" horiz-adv-x="1000" />

<glyph glyph-name="rg-fees" unicode="&#xe81c;" d="M225 533h520l-40-23h-480v-277l-23-13v290c0 13 11 23 23 23z m286-80h-24v-23c-11-2-21-7-30-14-7-8-11-18-11-29 0-8 2-16 6-23l23 14c-3 2-5 7-4 11 0 12 8 18 26 18 7 0 15-1 21-5l24 14c-9 7-20 12-31 14v23h0z m264-263h-487l-40-23h527c13 0 23 10 23 23v294l-23-13v-281h0z m-60-192c-65-39-139-60-215-60-144 0-277 75-352 198h0l-12 19c-107 201-31 452 170 559 60 32 126 48 194 48 143 0 275-73 350-194h0l2-3c119-194 57-448-137-567z m-559 169l674 389c-71 114-196 183-330 183-215 0-389-174-389-389 0-64 15-127 45-183z m733 183c0 65-16 129-47 186l-674-389c112-184 351-242 535-129 116 70 186 196 186 332z m-402-103h24v23c30 4 45 20 45 47 1 9-2 17-6 24l-24-13c4-4 6-9 6-13 0-15-11-22-33-22-8 0-16 2-24 5l-23-14c10-7 22-12 35-14v-23h0z" horiz-adv-x="1000" />

<glyph glyph-name="sent" unicode="&#xe81d;" d="M1-150l1166 500-1166 500-1-389 833-111-833-111 1-389z" horiz-adv-x="1179" />

<glyph glyph-name="sign-up-fill" unicode="&#xe81f;" d="M953 220h-153v157c0 2-5 3-6 3h-113c-1 0-1-1-1-3v-157h-158c-1 0-2 0-2-2v-112c0-2 1-6 2-6h158v-153c0-2 0-7 1-7h113c1 0 6 5 6 7v153h153c1 0 7 4 7 6v112c0 2-6 2-7 2z m-431-140c-12 0-22 13-22 26v112c0 13 10 22 22 22h138v98c-39 46-91 81-152 99 61 34 102 97 102 170 0 108-88 195-196 195-108 0-196-87-196-195 0-73 41-136 101-170-130-39-225-158-225-300 0-173 143-203 320-203 99 0 187 10 246 48v98h-138z" horiz-adv-x="1000" />

<glyph glyph-name="user-add-outline" unicode="&#xe822;" d="M938 273l-313 0q-21 0-37 15t-15 36 15 37 37 15l313 0q21 0 36-15t16-37-16-36-36-15z m-157-157q-21 0-37 15t-15 37l0 312q0 21 15 37t37 16 37-16 16-37l0-312q0-22-16-37t-37-15z m-468 573q-65 0-111-46t-46-110 46-111 111-46 110 46 46 111-46 110-110 46z m0 104q107 0 183-77t77-183-77-184-183-76-184 76-76 184 76 183 184 77z m0-677q-74 0-127-22t-72-54q75-29 199-29t197 29q-21 30-73 53t-124 23z m0 104q136 0 224-63t88-146q0-41-89-72t-223-32q-140 0-227 32t-86 72q0 83 86 146t227 63z" horiz-adv-x="990" />

<glyph glyph-name="ok" unicode="&#xe823;" d="M933 534q0-22-16-38l-404-404-76-76q-16-15-38-15t-38 15l-76 76-202 202q-15 16-15 38t15 38l76 76q16 16 38 16t38-16l164-165 366 367q16 16 38 16t38-16l76-76q16-15 16-38z" horiz-adv-x="1000" />

<glyph glyph-name="timer" unicode="&#xe824;" d="M607 612a32 32 0 0 1 32 32v52a32 32 0 0 1-65 0v-52a32 32 0 0 1 33-32z m0-524a32 32 0 0 1-33-32v-52a32 32 0 0 1 65 0v52a32 32 0 0 1-32 32z m120 294h-88v124a32 32 0 0 1-65 0v-156a32 32 0 0 1 33-32h120a32 32 0 1 1 0 64z m-323 216l-19 20a32 32 0 0 1-46-46l20-20a32 32 0 1 1 45 46z m451-450a32 32 0 1 1-46-46l20-20a32 32 0 0 1 45 46z m-26 470l-20-20a32 32 0 1 1 46-46l19 20a32 32 0 0 1-45 46z m-444-536l19 20a32 32 0 1 1-45 46l-20-20a32 32 0 0 1 46-46z m-278 171a500 500 0 1 1 490 597 32 32 0 1 1 0-65 435 435 0 1 0-424-532z m161 72a32 32 0 0 0-28-17h-208a32 32 0 0 0-27 49l104 174a32 32 0 0 0 55 0l104-174a32 32 0 0 0 0-32z" horiz-adv-x="1097" />

<glyph glyph-name="eye" unicode="&#xe825;" d="M1337 291a787 787 0 0 1-559 232h0a787 787 0 0 1-560-232c-8-8-17-18-25-27l-71-77 70-78q13-14 26-27a792 792 0 0 1 1119 0c9 9 18 17 26 26l71 79-71 78c-9 9-17 18-26 26z m-609 9a73 73 0 1 0-73-73 73 73 0 0 0 73 73z m528-136a676 676 0 0 0-956 0c-8 7-15 15-22 23 7 7 14 15 22 22a675 675 0 0 0 281 169 232 232 0 1 1 394 0 676 676 0 0 0 281-169c7-7 14-15 21-22-7-8-14-16-21-23z m-513 686h70v-236h-70z m766-274l53-45-153-180-53 44z m-466 245l67-20-67-227-66 20z m247-96l60-34-117-206-60 34z m-1237-149l153-181-53-44-153 180z m465 245l67-227-66-20-67 227z m-246-96l117-206-60-34-117 206z" horiz-adv-x="1562" />

<glyph glyph-name="star" unicode="&#xe826;" d="M929 489q0-12-15-27l-202-197 48-279q0-4 0-12 0-11-6-19t-17-9q-10 0-22 7l-251 132-250-132q-12-7-23-7-11 0-17 9t-6 19q0 4 1 12l48 279-203 197q-14 15-14 27 0 21 31 26l280 40 126 254q11 23 27 23t28-23l125-254 280-40q32-5 32-26z" horiz-adv-x="928.6" />

<glyph glyph-name="commission" unicode="&#xe827;" d="M685-6h-227l20 20c6 7 6 16 0 22l-187 187c-3 3-7 5-11 5h-233v31h-31v-280h31v31h134l167-137c3-2 6-3 10-3h327c8 0 15 7 15 15v94c0 8-7 15-15 15z m-16-93h-306l-166 136c-3 3-7 4-10 4h-140v156h227l171-172-40-40-83 83-22-22 94-94c3-3 7-4 11-4 4 0 8 1 11 4l11 11h242v-62z m280 230v159c0 120-98 218-218 218-120 0-218-98-218-218v-159c-18-6-31-23-31-43 0-26 21-47 47-47h405c25 0 46 21 46 47 0 20-13 37-31 43z m-15-59h-405c-9 0-16 7-16 16 0 8 7 15 16 15h47v31h-31v156c0 103 83 187 186 187 103 0 187-84 187-187v-156h-31v-31h47c8 0 15-7 15-15 0-9-7-16-15-16z m-203 280c17 0 31-14 31-31h32c0 29-20 53-47 60v33h-31v-33c-27-7-47-31-47-60 0-34 28-62 62-62 17 0 31-14 31-31 0-17-14-31-31-31-17 0-31 14-31 31h-31c0-29 20-53 47-60v-34h31v34c27 7 47 31 47 60 0 34-28 62-63 62-17 0-31 14-31 31 0 17 14 31 31 31z m94 187h-40l39 103c2 6 0 13-4 17-4 4-11 5-17 3l-72-29-72 29c-5 3-12 1-16-3-5-4-6-11-4-17l39-103h-40v-31h93 94v31z m-114 0l-31 81 46-18c3-1 7-1 11 0l45 18-30-81h-41z m-446-202c48 0 94 13 134 39l93-38c2-1 4-1 6-1 4 0 8 1 11 4 4 5 6 11 3 17l-38 93c26 40 39 86 39 135 0 137-111 248-248 248-138 0-249-111-249-248 0-138 111-249 249-249z m0 466c120 0 217-97 217-217 0-45-13-88-39-125-3-4-3-10-1-14l27-66-65 27c-5 2-11 2-15-1-37-26-80-39-124-39-121 0-218 97-218 218 0 120 97 217 218 217z m-78-202c34 0 62 28 62 62 0 35-28 63-62 63-35 0-62-28-62-63 0-34 27-62 62-62z m0 93c17 0 31-13 31-31 0-17-14-31-31-31-17 0-31 14-31 31 0 18 14 31 31 31z m155-124c-34 0-62-28-62-62 0-35 28-62 62-62 35 0 63 27 63 62 0 34-28 62-63 62z m0-93c-17 0-31 14-31 31 0 17 14 31 31 31 18 0 31-14 31-31 0-17-13-31-31-31z m36 244l-249-249 22-22 249 249-22 22z" horiz-adv-x="1000" />

<glyph glyph-name="share" unicode="&#xe828;" d="M0 714v68a105 105 0 0 0 30 49 84 84 0 0 0 133-39 241 241 0 0 1 126-130 642 642 0 0 1 250-59c67-4 135-2 202-3a60 60 0 0 1 8 1c0 54 0 107 0 160a102 102 0 0 0 4 30 84 84 0 0 0 144 29q197-199 397-397a129 129 0 0 0 38-57v-32a132 132 0 0 0-39-58q-113-113-226-226l-172-172a80 80 0 0 0-94-21 83 83 0 0 0-52 83c0 48 0 97 0 146v14h-18a1275 1275 0 0 0-274 34 678 678 0 0 0-282 129c-172 149-176 390-175 451z" horiz-adv-x="1332" />

<glyph glyph-name="check" unicode="&#xe829;" d="M249 0q-34 0-56 28l-180 236q-16 24-12 52t26 46 51 14 47-28l118-154 296 474q16 24 43 30t53-8q24-16 30-43t-8-53l-350-560q-20-32-56-32z" horiz-adv-x="667" />

<glyph glyph-name="sun-filled" unicode="&#xe82a;" d="M491 614l-53 152q-7 22 3 42t31 28q30 10 56-11t14-59z m-418-211l154-53-154-52q-21-8-42 3t-28 32q-10 30 12 56t58 14z m418-317l51-152q7-21-3-42t-31-28q-30-10-56 12t-14 58z m486 282q10-30-12-57t-58-13l-153 52 153 53q21 7 42-3t28-32z m-819 240q-21 10-28 31t3 42q16 32 50 30t49-30l71-145z m0-614q-31 16-30 50t30 49l145 71-71-145q-10-21-31-28t-43 3z m664 99q21-10 28-32t-3-42q-16-31-50-30t-49 30l-71 145z m0 613q31-16 30-50t-30-48l-145-72 71 145q10 22 31 29t43-4z m-331-121q96 0 165-69t68-166-68-165-165-70-166 70-69 165 69 166 166 69z" horiz-adv-x="980" />

<glyph glyph-name="moon-inv" unicode="&#xe82b;" d="M706 178q105 0 205 56-42-145-162-238t-275-93q-188 0-322 134t-134 323q0 154 93 274t237 163q-56-100-56-205 0-172 122-293t292-121z" horiz-adv-x="928" />

<glyph glyph-name="chart" unicode="&#xe82c;" d="M941 462v-241h-234l76 79-259 255-113-111-337 332 73 74 264-260 113 110 332-326z m-64-317h-104v-295h104z m-258 185h-104v-480h104z m-257 76h-104v-556h104z m-258 117h-104v-673h104z" horiz-adv-x="941" />

<glyph glyph-name="right-arrow" unicode="&#xe831;" d="M759 382c9-8 14-20 14-32s-5-24-14-32l-454-455c-9-9-21-13-32-13-12 0-23 4-32 13-18 18-18 47 0 65l422 422-422 422c-18 18-18 47 0 65 17 17 46 17 64 0z" horiz-adv-x="1000" />

<glyph glyph-name="plus" unicode="&#xe832;" d="M500 850c276 0 500-224 500-500s-224-500-500-500-500 224-500 500 224 500 500 500z m219-542c23 0 41 19 41 42s-18 42-41 42h-177v177c0 23-19 41-42 41s-42-18-42-41v-177h-177c-23 0-41-19-41-42s18-42 41-42h177v-177c0-23 19-41 42-41s42 18 42 41v177h177z m0 0z" horiz-adv-x="1000" />

<glyph glyph-name="cursor-hand" unicode="&#xe838;" d="M893 364c-51 53-119 90-189 104-31 9-62 14-93 17 79 93 65 235-29 314-93 79-234 65-313-29-79-93-65-234 28-313 17-14 34-25 51-31v-62l-45 42c-40 40-105 40-147 0-39-39-42-101-3-141l130-152c6-40 20-77 40-111 14-25 34-50 53-70v-54c0-17 12-28 29-28h384c14 0 28 14 28 28v74c53 65 82 146 82 228v164c2 11 0 17-6 20z m-621 265c0 93 76 167 169 164 93 0 167-76 164-169 0-51-23-96-62-127v141c-2 24-12 47-30 64-18 17-42 26-66 26-51 3-96-39-96-90v-147c-48 28-76 82-79 138z m573-446c3-73-23-144-71-200-5-6-11-12-11-20v-59h-327v39c0 9-6 17-12 23-19 17-36 36-50 62-17 28-29 62-34 96 0 6-3 11-6 17l-136 161c-8 8-14 20-14 34 0 11 6 25 14 34 20 16 48 16 68 0l82-82v-85l54 28v407c3 19 20 36 42 34 20 0 40-15 40-34v-325l56-11v130c3 2 6 2 9 5 19 0 39-3 59-5v-144l45-9v147l34-9c14-2 28-8 42-14v-141l45-8v130c26-12 48-29 68-48l3-153z" horiz-adv-x="1000" />

<glyph glyph-name="rotated-right-arrow" unicode="&#xe839;" d="M881 287c-152-3-294-68-446-76-44-2-88 3-122 23 62 11 121 32 165 73 47 43 52 121 22 176-27 53-97 54-146 41-116-28-195-166-129-264-72-5-144 0-214-4-15-1-15-22 2-22 71-5 158-12 243-7 5-3 9-8 14-11 173-121 426 31 612 36 22 1 22 37-1 35z m-642 40c-18 67 41 124 95 151 54 28 131 28 149-42 21-82-49-131-116-152-31-10-61-16-92-19-18 16-29 36-36 62z m753-41c-23 15-44 29-66 44-18 13-36 28-57 33-16 4-32-20-18-31 18-14 38-25 56-36 13-9 26-18 37-26-13-7-26-12-39-18-10-5-21-10-31-15-3-2-6-5-8-8-5-7-2-4 0-2-7-5-7-21 5-19l0 0c3-2 6-2 11-2 12 3 25 8 36 13 25 10 49 20 72 33 13 9 13 27 2 34z" horiz-adv-x="1000" />

<glyph glyph-name="data" unicode="&#xe83a;" d="M692 850h-615c-20 0-40-8-54-22-15-15-23-34-23-55v-846c0-21 8-40 23-55 14-14 34-22 54-22h615c21 0 40 8 55 22 14 15 22 34 22 55v846c0 21-8 40-22 55-15 14-34 22-55 22z m0-77v-231h-615v231h615z m-615-538v230h615v-230h-615z m0-308v231h615v-231h-615z m115 692c22 0 39 18 39 39 0 21-17 38-39 38-21 0-38-17-38-38 0-21 17-39 38-39z m0-307c22 0 39 17 39 38 0 21-17 39-39 39-21 0-38-18-38-39 0-21 17-38 38-38z m0-308c22 0 39 17 39 38 0 22-17 39-39 39-21 0-38-17-38-39 0-21 17-38 38-38z" horiz-adv-x="781" />

<glyph glyph-name="shortcode" unicode="&#xe83b;" d="M286 64h-143v572h143v143h-286v-858h286v143z m78-214h150l265 1000h-150l-265-1000z m493 929v-143h143v-572h-143v-143h286v858h-286z" horiz-adv-x="1143" />

<glyph glyph-name="sort" unicode="&#xe83c;" d="M500-88c-116 0-227 47-309 129-82 82-128 193-128 309 0 116 46 227 128 309 82 82 193 129 309 129 116 0 227-47 309-129 82-82 129-193 129-309 0-116-47-227-129-309-82-82-193-129-309-129z m0-62c133 0 260 53 354 146 93 94 146 221 146 354 0 133-53 260-146 354-94 93-221 146-354 146-133 0-260-53-354-146-93-94-146-221-146-354 0-133 53-260 146-354 94-93 221-146 354-146z m-62 281c0 9 3 17 9 22 6 6 14 10 22 10h62c9 0 17-4 22-10 6-5 10-13 10-22 0-8-4-16-10-22-5-6-13-9-22-9h-62c-8 0-16 3-22 9-6 6-9 14-9 22z m-125 188c0 8 3 16 9 22 6 6 14 9 22 9h312c9 0 17-3 22-9 6-6 10-14 10-22 0-8-4-16-10-22-5-6-13-9-22-9h-312c-8 0-16 3-22 9-6 6-9 14-9 22z m-125 187c0 9 3 17 9 22 6 6 14 10 22 10h562c9 0 17-4 22-10 6-5 10-13 10-22 0-8-4-16-10-22-5-6-13-9-22-9h-562c-8 0-16 3-22 9-6 6-9 14-9 22z" horiz-adv-x="1000" />

<glyph glyph-name="gutenberg" unicode="&#xe83d;" d="M1000 583v-27c-1-2-3-5-4-7-13-27-35-42-65-41-17 0-19-3-14-19l1-2c23-65 30-132 17-201-28-149-111-255-247-322-3-1-5-4-8-7 1 0 2-1 2-1 3-1 5-1 7-2 39-7 67-28 83-65 1-3 2-6 4-6 5-2 11-2 17-2 1 0 3 5 3 7-4 23 8 43 33 43 9 0 12 5 13 13 6 35 22 52 57 58 12 3 25 5 37 8 39 13 54 49 34 86-1 2-4 5-4 8 0 3 1 7 3 9 2 1 6 1 9 0 3-1 5-4 6-7 21-30 15-71-14-97-9-9-9-11 0-19 21-19 26-43 25-70 0-8-5-10-13-6-8 3-15 6-23 9-9 5-19 8-28 13-11 7-16 17-18 30 0 5 0 10 7 11 6 1 8-3 10-8 3-6 6-14 11-18 8-5 17-8 27-11 6-2 9 3 7 10-4 13-12 24-25 30-22 11-45 11-66-1-8-4-14-10-18-17-10-14-8-32 3-47 11-14 25-20 42-15 5 2 10 5 16 7 3 0 8-1 10-3 1-3 0-8-2-11-1-2-5-4-8-6-2-2-3-5-5-8h13c16 0 33-1 49-1 6 0 10-2 10-8 0-7-4-9-10-9-75 0-150 0-225 0-4 0-10 2-12 5-1 3 3 8 4 12 1 4 2 9 1 12-9 17-24 31-41 39-43 19-93 3-116-37-1-2-1-7 0-7 3-2 8-5 11-4 5 2 9 6 12 10 14 20 33 28 57 24 21-4 35-16 42-36 2-6 2-10-4-13-6-3-9 1-11 5-2 5-5 9-8 13-11 15-33 19-48 10-3-1-4-6-6-9 3-2 6-4 9-4 6-1 13-1 19-2 2 0 5-4 5-6 0-2-3-5-5-7-1-2-4-1-6-1-26-1-51-1-76-1-13 0-18 6-13 18 4 12 11 22 17 33 3 5 7 10 11 16-5 0-9 0-13 0-9-1-19-4-28-5-9 0-16-4-19-14 0-3-3-6-5-9-9-14-18-27-27-40-4-7-9-6-13 0-5 9-12 18-17 26-6 9-11 18-17 27-1 3-3 6-6 7-16 3-33 6-52 10 4-7 8-11 10-16 7-12 14-25 19-38 4-10 0-14-10-14-19-1-37-1-55 0-4 0-8 3-12 5 2 4 3 8 6 11 5 5 4 7-2 11-18 11-36 9-50-7-4-5-6-11-10-15-2-3-7-4-10-3-2 1-4 5-5 8 0 2 1 5 2 7 8 19 22 31 43 33 22 3 41-4 55-23 3-4 7-9 11-11 4-1 10 1 13 4 1 1-1 7-2 10-1 3-3 5-5 7-40 50-111 47-147-7-5-7-6-13 0-20 6-9 3-13-8-14-13 0-25 0-38 0-61 0-123 0-184 0-5 0-11 1-12 8 0 8 6 9 12 9 16 1 33 1 50 1 3 0 6 0 9 0-4 6-9 9-14 13-4 3-4 8-1 12 3 5 6 5 11 3 2-1 3-2 5-3 6-4 14-6 21-6 7 1 14 3 20 8 12 10 21 22 19 39-3 18-13 31-30 37-16 5-33 7-49 4-21-3-31-18-37-36-2-7 3-12 10-10 16 5 33 10 36 31 1 5 4 8 9 6 3-2 6-5 7-9 1-3-1-6-2-10-5-15-16-24-31-30-12-5-25-10-37-15-8-3-13 0-12 9 0 9 1 18 2 27 4 21 15 38 33 50-5 5-10 10-15 15-25 26-28 67-6 95 4 6 9 7 15 3 6-4 3-8 0-12-23-33-12-73 25-87 11-5 23-7 35-9 38-5 56-21 64-59 3-13 3-13 16-15 21-3 33-18 31-39-1-11 1-13 12-12 7 0 9 5 12 10 12 30 34 50 64 61 9 3 18 4 29 7-4 3-7 6-11 8-64 31-120 74-163 132-88 119-109 251-68 393 5 18 5 18-13 17-33 0-57 15-69 46-3 9-2 20-1 31 2 10 7 20 7 30 1 46 0 93 1 139 0 5-1 10 1 14 1 3 6 6 9 6 2 0 6-4 7-7 1-4 1-8 1-12 0-40 0-80 0-120 0-9 1-9 9-8 10 3 20 4 30 6 10 1 20 2 29 5 8 2 15 7 19 14 4 8 5 16 3 24-5 15-21 23-38 18-2 0-5-2-7-1-4 1-7 3-10 5 2 3 2 8 5 10 27 15 61 0 67-30 7-29-13-56-45-60-10-1-21-2-31-4-23-3-38-20-39-41-2-21 12-39 34-45 26-7 42 0 54 20 14 23 28 45 43 67 16 23 22 47 16 74-5 31-21 58-42 81-9 10-10 15-4 20 5 5 9 4 18-6 15-16 33-30 53-40 22-11 44-19 69-16 12 2 24 5 35 13-3 3-7 6-10 10-9 10-18 12-31 9-36-11-74 8-90 42-5 11-2 17 9 19 16 2 29-3 41-12 11-8 22-16 33-23 9-6 15-3 14 8-2 24 9 40 27 54 4 3 9 5 13 0 5-5 3-9-1-13-5-6-11-11-15-17-16-24-3-54 26-60 20-4 35 4 48 20 7 9 14 20 21 30 28 36 63 43 102 22 14-7 26-7 40 0 41 22 76 13 104-24 5-6 9-13 13-19 4-6 9-11 13-16 18-19 46-18 62 0 18 21 15 46-7 62-1 1-2 1-3 2-4 3-5 7-2 12 3 5 7 5 12 2 19-9 30-30 28-51-1-4 0-11 2-11 4-2 9-1 13 0 4 2 8 5 11 8 9 6 17 13 26 19 9 6 20 9 32 7 12-2 15-8 10-19-14-31-52-51-85-43-15 3-27 0-37-11-8-6-7-9 2-13 19-9 41-10 61-4 35 10 64 29 88 56 7 8 11 8 17 3 5-6 2-11-2-16-9-11-18-21-25-33-30-49-32-96 5-141 12-13 20-29 28-45 12-24 28-33 54-28 23 5 39 22 39 43 0 23-16 40-39 44-10 2-20 3-29 4-22 2-38 12-46 32-4 9-5 19-2 28 2 10 7 18 14 24 15 13 38 16 54 6 5-2 6-6 4-11-2-5-5-6-10-4-2 0-4 1-6 1-18 5-34-2-38-19-5-16 5-34 23-38 6-2 13-2 20-3 11-2 23-2 33-6 18-7 19-6 19 13 0 42 0 83 0 124 0 7 2 12 9 12 8 0 9-5 9-11 0-56-1-112 0-168-1-5 2-9 4-14z m-211-203c0 9 0 14-1 19-8 45-23 87-51 125-6 8-13 17-20 25-3 5-4 10 1 14 5 4 9 1 13-3 45-51 71-112 77-181 0-5-1-11 6-12 7-2 8 5 11 9 6 8 12 16 19 21 10 8 11 9 9 20-10 62-35 117-74 165-4 5-9 9-15 12-5 3-11 4-18 5-6 0-12-2-18-4-5-3-11-6-15-11-20-23-41-47-61-70-2-2-4-5-6-6-3-1-8-1-10 1-2 1-3 6-2 10 0 2 3 5 5 7 20 22 39 45 59 68 20 23 16 52-10 68-25 15-52 28-80 36-15 4-30 8-45 11-8 1-16-1-18-9-5-14-15-22-27-27-2-1-5-4-4-6 0-2 3-4 6-5 4-1 9 0 14-1 50-5 95-23 138-48 7-4 8-9 4-15-4-7-10-5-15-1-31 22-65 35-102 42-10 2-20 3-33 5 4-5 5-9 8-11 22-23 45-46 68-68 5-4 8-9 3-15-5-5-9-5-16 1-24 25-48 49-72 74-12 12-17 12-29-1-25-25-51-50-76-76-4-4-9-6-14-1-5 5-3 10 1 15 25 23 49 47 73 71 2 2 3 5 6 10-10-1-17-2-24-3-46-8-88-24-125-53-10-8-10-12-2-22 13-14 26-29 39-44 1-2 3-6 2-9-1-2-5-6-7-6-4 1-8 3-10 6-12 13-24 27-36 40-9 11-13 12-23 1-38-41-63-90-73-145-2-8-2-17-3-25l3-1c3 2 7 4 9 7 30 30 60 60 90 90 4 4 9 8 15 2 5-6 2-10-3-15-32-32-64-64-96-96-11-11-11-16 0-28 73-73 146-145 219-218 13-13 25-26 39-39 8-9 13-8 22 0 2 2 5 5 7 7 83 83 166 166 249 249 13 13 13 18 0 30-32 32-65 65-97 97-5 4-7 9-1 14 5 5 9 3 14-1 30-31 60-62 91-92 2-3 6-5 12-9z m-255-306l2-3c21-2 41 2 60 10 62 24 111 66 150 120 19 26 34 55 40 88 2 11 2 23 3 35l-3 1-252-251z m-316 248c3-130 139-251 251-250l-251 250z m12 311c0 12-5 24-14 34-8 9-16 18-25 27-1 1-4 2-6 2 0-2-1-4-1-6 0-11 2-23 1-34-3-26-17-48-32-68-21-28-37-58-48-91-11-30-18-61-21-93-1-11 2-13 11-10 9 2 17 5 26 7 8 2 12 7 13 15 11 71 40 133 86 187 7 8 10 18 10 30z m685-241c7 0 6 6 6 11-9 62-30 120-66 173-8 12-16 24-23 36-14 24-21 50-15 78 0 2-1 4-2 6-2-1-4-1-5-2-7-7-13-15-20-22-21-24-21-51-1-75 29-34 53-72 66-116 6-17 9-36 14-54 6-21 21-32 46-35z m-214-273c6 1 10 1 13 1 14 2 27 3 41 4 12 1 21 6 29 15 35 47 59 101 70 159 1 8-1 16-8 20-11 5-18 14-23 24-1 2-3 3-4 3-2 1-3 1-5 1-3 0-5-4-6-7-1-4 0-9-1-13-9-77-40-142-97-195-3-3-5-6-9-12z m-400 0l2 3c-4 4-8 9-12 13-57 55-88 122-94 202 0 3-4 6-6 9-2-2-6-4-7-7-6-10-12-18-23-23-9-3-11-10-9-20 10-52 30-101 60-145 12-17 24-28 46-28 15 1 29-2 43-4z m-102 600l-2-1c1-3 2-5 3-7 10-12 19-23 29-34 18-19 44-22 66-8 21 12 43 25 66 34 24 10 50 15 75 22 12 3 22 9 24 22 1 7 2 13 3 19 0 6-3 9-8 8-6-1-11-1-16-2-43-9-84-24-123-43-37-19-76-27-117-10z m538-56l1-2c9 3 20 4 26 10 14 12 25 27 37 41 1 1 1 3 2 5-2 1-4 1-6 0-12-2-23-6-35-7-31-2-59 9-86 23-18 9-37 18-57 25-21 7-43 11-65 16-12 3-18-3-13-16 2-8 7-16 12-23 3-5 8-8 14-9 49-8 95-27 137-54 10-6 21-10 33-9v0z m-244-647h0c0 3 0 6 0 9 2 22 0 24-22 26-1 1-2 1-3 1-36 4-70 16-104 29-56 23-115 33-176 24-10-2-14-7-8-16 5-6 10-11 16-15 4-2 8-3 13-3 13 1 27 5 40 5 51 1 101-8 147-31 30-14 57-34 83-54 3-2 8-4 10-3 2 2 4 6 4 10 1 6 1 12 0 18z m16 4c1-6 1-14 2-21 1-5 2-11 5-12 3-1 8 2 12 4 14 11 28 22 43 32 67 44 140 62 220 48 10-1 18 1 25 9 3 4 6 7 9 11 5 6 4 10-4 12-14 2-29 5-43 5-36 1-72-5-106-16-47-15-92-36-141-42-18-3-22-9-22-30v0z m325 98c11-1 14 1 20 9 37 57 60 122 68 189 1 8-2 10-10 7-6-2-13-5-19-7-16-4-21-9-23-24-8-50-26-94-53-136-4-7-9-14-13-21-3-5-1-9 5-11 9-3 19-5 25-6z m-663 1c8 1 16 2 23 3 12 3 13 6 7 15-33 44-54 93-64 146-5 26-20 38-46 41-6 1-9-1-7-8 2-14 4-29 6-43 11-50 30-97 58-141 6-8 12-14 23-13v0z m121 488c3-4 7-9 12-12 2-2 7 2 11 3 3 2 5 4 8 6 47 34 100 53 157 58 4 0 8 3 11 4-3 3-5 6-8 8-10 6-18 13-23 24-5 11-7 13-20 10-51-8-97-28-140-57-5-4-6-8-5-14 0-8-1-15-2-23 0-2-1-5-1-7z m-141-194c-1-7 3-10 9-13 11-5 19-14 24-25 2-3 5-5 8-7 2 3 5 6 5 10 3 17 5 34 8 50 13 54 39 101 77 140 9 10 8 17-3 23-11 7-46 3-54-10-13-22-29-43-42-66-17-32-27-66-32-102z m107-356c-8 0-16 1-25 0-3 0-9-2-9-4-1-4 1-9 3-12 9-8 18-13 31-12 73 5 136-19 191-67 3-3 9-8 10-7 5 4 8 8 10 13 3 6-2 10-7 14-60 48-126 78-204 76l0-1z m488 0c-78 2-144-28-204-76-8-7-8-15-1-23 5-6 8-6 13 0 3 3 6 6 10 9 51 44 110 65 177 62 14 0 27 3 37 14 2 2 6 7 5 8-1 2-3 3-4 4-2 1-3 2-5 2-9 1-19 0-28 0l0 0z m-275 663l2 0c0-13 5-23 17-29 10-5 20-4 29 3 10 8 14 18 12 30-4 18-9 36-13 54-2 7-5 13-14 8-1 0-4 0-5 1-6 2-10 0-11-6-6-20-11-40-17-61l0 0z m-335-390c21 0 34 12 33 30-1 17-15 28-34 26-16-2-31-8-44-17-10-7-10-15-1-22 13-10 29-16 46-17z m736 0c14 1 30 6 44 17 8 7 8 15-1 22-12 10-28 16-45 17-17 1-31-11-31-27 0-17 12-29 33-29v0z m-438-381c-30 36-117 70-157 62 20-26 130-67 157-62z m296 60c-43 11-137-27-155-61 57 8 107 29 155 61h0z m-202-75c-1 11-6 22-13 30-9 9-15 9-25 0-19-20-16-54 8-69 2-2 7-2 9 0 11 10 19 24 21 39z m-144 844c28 5 57 10 85 16 3 0 7 7 8 11 1 3-3 8-6 10-20 13-42 11-61-3-12-9-20-21-26-34z m236-1c-6 15-14 27-26 35-18 13-38 16-59 5-5-3-10-5-9-12 2-8 6-11 14-12 17-3 35-6 53-10 8-2 17-4 27-6v0z m-612-380c0 27 0 54 0 80 0 4 0 7 1 10 1 7 5 9 12 7 13-5 26-9 38-14 1-1 3-2 4-4 1-1 2-3 2-4 0-3-4-7-7-7-5-1-11 0-16 1-12 3-16 1-16-12-1-18 0-37 0-56 0-28 0-57 0-86 0-6-1-11-9-11-8 0-9 5-9 11 0 28 0 57 0 85z m987 0c0-28 0-56 0-83 0-6 1-13-8-13-8 0-9 6-9 12 0 43 0 85 0 127 0 5 0 11 0 17-1 9-5 11-14 10-6-2-12-2-18-2-3 0-7 4-7 7-1 3 3 7 6 8 12 5 25 9 38 14 6 2 10 0 12-6 0-3 0-6 0-9 0-28 0-55 0-82l0 0z m-927 146c-7 0-14 2-19 7-6 6-9 13-9 20 0 15 13 27 29 27 16 0 28-12 27-27 0-4 0-8-2-11-1-3-3-6-6-9-3-2-6-4-9-6-4-1-7-2-11-1z m892 27c0-17-11-28-27-27-16 0-27 11-27 28 0 16 11 26 27 26 17 0 28-11 27-27z m-127 262c-18 0-36 0-54 0-3 0-6-1-8 1-3 1-7 4-7 6 1 3 4 6 7 8 1 1 4 1 6 1 37 0 73 0 110 0 2 0 6 0 7-1 3-2 6-5 6-8 0-2-3-5-6-6-2-2-6-1-9-1-17 0-35 0-52 0z m-656-1c-18 0-36 0-55 0-2 0-6 0-8 2-1 0-2 1-3 3 0 1-1 2-1 4 0 2 3 5 5 6 2 1 4 1 6 1 38 0 75 0 113 0 5 0 11-1 11-8-1-7-6-8-11-8-19 0-38 0-57 0z m783-84c0-15-6-20-21-16-22 5-32 27-26 49 2 7 8 8 14 8 16-1 32-19 33-36 0-1 0-3 0-5z m-866 19c1-18-12-35-31-36-11-2-16 3-16 13-1 16 4 29 17 39 4 3 8 4 12 5 12 3 17-1 18-13 0-2 0-4 0-8z m231 58c15 0 25-10 25-25 0-13-12-25-24-25-16 0-26 11-26 26 0 16 10 25 25 24z m384-25c0-13-12-25-26-25-13 0-25 12-25 25 0 15 10 25 26 26 15 0 25-11 25-26z m243 49c11 0 23-1 34-1 7-1 10-4 9-10 0-10 0-19 0-28 0-6-1-11-8-11-7 1-9 6-9 12 0 1 0 2 0 4 1 13-3 18-17 18-12 0-24 0-36 0-5 0-10 2-10 8 0 6 5 7 10 7h27l0 1z m-898 0c9 0 18 0 27 0 6 0 11-2 11-8 0-7-5-8-10-8-11 0-22-1-33 0-17 1-24-5-23-23 1-5 0-10-7-11-6 0-8 4-8 10 0 8-1 16-1 24 0 10 5 15 16 16 4 0 9 0 14 0 4 0 9 0 14 0v0z m-7-706c9 0 19 0 28 0 6 0 12-1 12-9 0-7-6-8-11-8h-56c-6 0-11 1-11 8 0 7 4 9 10 9 10 0 19 0 28 0v0z m910 0c9 0 19 0 28 0 6 0 10-1 10-8 0-6-4-9-9-9-20 0-39 0-58 0-6 0-10 3-9 9 0 7 4 8 10 8 9 0 19 0 28 0l0 0z m-40-73h-28c-6 0-10 2-10 9 0 6 4 9 10 9h54c6 0 11-3 11-10 0-6-5-8-11-8l-26 0z m-829 0c-9 0-18 0-27 0-5 0-10 2-9 8 0 7 3 9 9 9 19 0 37 0 55 0 6 0 10-2 10-9 0-6-4-8-10-8h-28z m336 288c2 12 3 28 7 44 5 28 25 46 52 54 27 8 52 4 74-16 8-8 13-18 15-29 0-6-1-10-6-12-6-2-10 1-13 6-2 4-4 8-6 13-22 40-76 27-90-1-5-10-8-21-9-31-1-24-1-47 1-71 4-42 48-64 85-43 15 9 18 23 18 38 0 7 0 13 1 20 0 10-7 16-16 11-9-5-16-13-23-20-4-4-6-11-13-5-5 3-6 8 0 15 13 17 30 28 53 28 19 1 37 8 51 24 3 4 8 7 13 2 5-5 1-9-2-13-8-9-17-17-30-21-10-3-14-8-13-20 0-9 0-18-1-27-2-30-25-53-57-56-47-4-81 24-88 74-1 10-1 21-3 36z m407 76c0-8 0-14-7-14-8-1-9 4-10 10-7 48-28 89-59 127-1 1-2 3-3 4-4 5-8 9-3 15 7 5 12 1 16-4 32-37 54-79 64-127 1-5 2-9 2-11z m-655 2c2 22 9 44 19 65 11 25 26 49 45 70 1 2 3 3 5 5 4 3 9 3 13-1 4-4 2-7-1-11-10-13-20-25-28-38-19-29-31-61-37-94 0-2 0-4-1-5-2-3-5-5-8-7-3 2-5 5-7 8-1 2 0 4 0 8z" horiz-adv-x="1000" />

<glyph glyph-name="export-table" unicode="&#xe83e;" d="M400 150h100v450h150l-200 250-200-250h150v-450z m-300-300h700c55 0 100 45 100 100v450c0 55-45 100-100 100h-200v-100h200v-450h-700v450h200v100h-200c-55 0-100-45-100-100v-450c0-55 45-100 100-100z" horiz-adv-x="906" />

<glyph glyph-name="code" unicode="&#xe840;" d="M269 111l62 78-201 161 201 161-62 78-250-200c-6-5-11-11-14-17-3-7-5-14-5-22 0-7 2-15 5-22 3-6 8-12 14-17l250-200z m462 478l-62-78 201-161-201-161 62-78 250 200c6 5 11 11 14 17 3 7 5 15 5 22 0 8-2 15-5 22-3 6-8 12-14 17l-250 200z m-82 200l-200-900-98 22 200 900 98-22z" horiz-adv-x="1031" />

<glyph glyph-name="support" unicode="&#xe841;" d="M500 850c-276 0-500-224-500-500v-207c0-51 45-93 100-93h50c13 0 26 5 35 15 10 9 15 22 15 35v257c0 13-5 26-15 36-9 9-22 14-35 14h-45c27 194 194 343 395 343 201 0 368-149 395-343h-45c-13 0-26-5-35-14-10-10-15-23-15-36v-307c0-55-45-100-100-100h-100v50h-200v-150h300c110 0 200 90 200 200 55 0 100 42 100 93v207c0 276-224 500-500 500z" horiz-adv-x="1000" />

<glyph glyph-name="live-data" unicode="&#xe842;" d="M500 850c-66 0-131-13-191-38-61-25-116-62-163-108-46-47-83-102-108-163-25-60-38-125-38-191 0-66 13-131 38-191 25-61 62-116 108-163 47-46 102-83 163-108 60-25 125-38 191-38 133 0 260 53 354 146 93 94 146 221 146 354 0 133-53 260-146 354-94 93-221 146-354 146z m0-83c111 0 217-44 295-122 78-78 122-184 122-295 0-110-44-216-122-295-78-78-184-122-295-122-110 0-216 44-295 122-78 79-122 185-122 295 0 111 44 217 122 295 79 78 185 122 295 122z m-83-417h-125c-10 0-19-3-27-10-7-6-13-15-14-24l-1-8v-125c0-10 4-20 11-28 7-8 17-12 27-13 10-1 21 2 29 8 8 6 14 16 16 26l0 7v20c21-23 46-42 73-55 28-12 58-19 89-20 31-1 61 5 90 17 28 11 54 29 75 51 4 4 7 8 9 14 2 5 3 10 3 16 0 5-2 10-4 15-2 5-5 10-9 14-4 4-9 7-14 9-5 2-10 3-16 2-5 0-11-1-16-3-5-2-9-5-13-9-14-15-31-26-50-33-18-8-38-11-59-10-20 2-39 7-57 17-18 9-33 23-45 39h28c10 0 20 4 28 11 8 7 12 16 13 27 1 10-2 20-8 29-6 8-16 14-26 15l-7 1z m83 222c-30 0-60-6-87-18-28-11-53-29-74-50-7-8-11-19-11-30 0-6 1-11 3-16 3-5 6-10 10-13 4-4 8-7 14-9 5-2 10-3 16-3 11 0 21 5 29 13 14 15 31 26 49 33 19 8 39 11 59 10 21-2 40-7 58-17 18-9 33-22 45-39h-27c-11 0-21-3-28-10-8-8-13-17-14-28-1-10 2-20 8-29 7-8 16-13 26-15l8-1h124c10 0 20 3 27 10 8 6 13 15 14 24l1 8v124c0 11-4 21-11 29-7 7-16 12-27 13-10 1-21-2-29-8-8-7-14-16-16-26l0-8v-19c-21 24-47 43-76 56-28 13-59 19-91 19z" horiz-adv-x="1000" />

<glyph glyph-name="responsive" unicode="&#xe843;" d="M1169 501h-123v288c0 16-6 31-18 43-11 12-27 18-43 18h-923c-17 0-32-6-44-18-11-12-18-27-18-43v-631c0-17 7-32 18-44 12-11 27-18 44-18h441v-128h-154v-82h390v82h-154v128h236v-149c0-16 6-32 18-43 11-12 27-18 43-18h287c17 0 32 6 44 18 11 11 18 27 18 43v493c0 16-7 32-18 43-12 12-27 18-44 18z m-348-61v-262h-739v590h882v-267h-82c-16 0-32-6-43-18-12-11-18-27-18-43z m328-472h-246v451h246v-451z" horiz-adv-x="1231" />

<glyph glyph-name="servers" unicode="&#xe84c;" d="M521 267h333c12 0 21 9 21 21s-9 20-21 20h-333c-12 0-21-9-21-20s9-21 21-21z m479 187v84c0 20-6 38-16 54 0 1 0 1 0 2l-129 207c-19 31-52 49-89 49h-532c-36 0-69-18-89-49l-128-207c-1-1-1-1-1-2-10-15-16-34-16-54v-84c0-34 17-64 42-83-25-19-42-49-42-83v-84c0-34 17-64 42-83-25-19-42-49-42-83v-84c0-57 47-104 104-104h273c12 0 21 9 21 21 0 11-9 21-21 21h-273c-34 0-62 28-62 62v84c0 34 28 62 62 62h349c11 0 21 9 21 21 0 11-10 21-21 21h-349c-34 0-62 28-62 62v84c0 34 28 62 62 62h792c34 0 62-28 62-62v-84c0-9-2-18-6-27-5-10-1-23 9-28 11-5 23-1 28 10 7 14 11 30 11 45v84c0 34-17 64-42 83 25 19 42 49 42 83z m-819 325c11 18 31 29 53 29h532c22 0 42-11 53-29l86-138c-3 0-6 1-9 1h-792c-3 0-6-1-9-1l86 138z m777-325c0-34-28-62-62-62h-792c-34 0-62 28-62 62v84c0 34 28 62 62 62h792c34 0 62-28 62-62v-84z m-875-458c0-35 28-63 63-63 34 0 62 28 62 63 0 34-28 62-62 62-35 0-63-28-63-62z m84 0c0-12-10-21-21-21s-21 9-21 21c0 11 9 21 21 21s21-10 21-21z m687 146c-4 0-7 0-11-1-35 52-93 84-155 84-97 0-177-74-187-169-48-9-84-51-84-102 0-57 46-104 104-104h333c81 0 146 65 146 146s-65 146-146 146z m0-250h-333c-35 0-63 28-63 62s28 63 63 63c11 0 21 9 21 21 0 80 65 145 146 145 52 0 100-28 126-75 4-7 13-11 22-10 6 1 12 2 18 2 58 0 104-47 104-104s-46-104-104-104z m0 666h-333c-12 0-21-9-21-20s9-21 21-21h333c12 0 21 9 21 21s-9 20-21 20z m0-83h-333c-12 0-21-9-21-21s9-21 21-21h333c12 0 21 10 21 21s-9 21-21 21z m-708 83c-35 0-63-28-63-62s28-63 63-63c34 0 62 28 62 63 0 34-28 62-62 62z m0-83c-12 0-21 9-21 21s9 21 21 21 21-10 21-21-10-21-21-21z m-63-229c0-35 28-63 63-63 34 0 62 28 62 63 0 34-28 62-62 62-35 0-63-28-63-62z m84 0c0-12-10-21-21-21s-21 9-21 21 9 21 21 21 21-10 21-21z" horiz-adv-x="1000" />

<glyph glyph-name="play" unicode="&#xe86e;" d="M829 472c98-56 98-197 0-253l-603-349c-98-56-220 14-220 127l0 697c0 113 122 183 220 127l603-349z" horiz-adv-x="902" />

<glyph glyph-name="link-ext" unicode="&#xf08e;" d="M786 332v-178q0-67-47-114t-114-47h-464q-67 0-114 47t-47 114v464q0 66 47 113t114 48h393q7 0 12-5t5-13v-36q0-8-5-13t-12-5h-393q-37 0-63-26t-27-63v-464q0-37 27-63t63-27h464q37 0 63 27t26 63v178q0 8 5 13t13 5h36q8 0 13-5t5-13z m214 482v-285q0-15-11-25t-25-11-25 11l-98 98-364-364q-5-6-13-6t-12 6l-64 64q-6 5-6 12t6 13l364 364-98 98q-11 11-11 25t11 25 25 11h285q15 0 25-11t11-25z" horiz-adv-x="1000" />

<glyph glyph-name="facebook" unicode="&#xf09a;" d="M535 843v-147h-87q-48 0-65-20t-17-60v-106h164l-22-165h-142v-424h-171v424h-142v165h142v122q0 104 58 161t155 57q82 0 127-7z" horiz-adv-x="571.4" />

<glyph glyph-name="table" unicode="&#xf0ce;" d="M286 82v107q0 8-5 13t-13 5h-179q-7 0-12-5t-6-13v-107q0-8 6-13t12-5h179q8 0 13 5t5 13z m0 214v108q0 7-5 12t-13 5h-179q-7 0-12-5t-6-12v-108q0-7 6-12t12-5h179q8 0 13 5t5 12z m285-214v107q0 8-5 13t-12 5h-179q-8 0-13-5t-5-13v-107q0-8 5-13t13-5h179q7 0 12 5t5 13z m-285 429v107q0 8-5 13t-13 5h-179q-7 0-12-5t-6-13v-107q0-8 6-13t12-5h179q8 0 13 5t5 13z m285-215v108q0 7-5 12t-12 5h-179q-8 0-13-5t-5-12v-108q0-7 5-12t13-5h179q7 0 12 5t5 12z m286-214v107q0 8-5 13t-13 5h-178q-8 0-13-5t-5-13v-107q0-8 5-13t13-5h178q8 0 13 5t5 13z m-286 429v107q0 8-5 13t-12 5h-179q-8 0-13-5t-5-13v-107q0-8 5-13t13-5h179q7 0 12 5t5 13z m286-215v108q0 7-5 12t-13 5h-178q-8 0-13-5t-5-12v-108q0-7 5-12t13-5h178q8 0 13 5t5 12z m0 215v107q0 8-5 13t-13 5h-178q-8 0-13-5t-5-13v-107q0-8 5-13t13-5h178q8 0 13 5t5 13z m72 178v-607q0-37-27-63t-63-26h-750q-36 0-63 26t-26 63v607q0 37 26 63t63 27h750q37 0 63-27t27-63z" horiz-adv-x="928.6" />

<glyph glyph-name="magnifiying-glass" unicode="&#xf100;" d="M989-84c15-15 15-39 0-55-8-7-18-11-28-11s-20 4-27 11l-244 244c-73-60-167-97-269-97-232 0-421 189-421 421 0 232 189 421 421 421 232 0 421-189 421-421 0-102-37-196-97-269z m-911 513c0-189 154-343 343-343 189 0 343 154 343 343 0 189-154 343-343 343-189 0-343-154-343-343z" horiz-adv-x="1000" />

<glyph glyph-name="shopping-bag" unicode="&#xf101;" d="M865-117c1-9-1-17-7-23-6-6-14-10-22-10h-806c-9 0-17 4-22 10-6 6-9 14-8 23l76 724c2 15 15 26 30 26h143v33c0 101 82 184 184 184 101 0 184-83 184-184v-33h143c15 0 28-11 29-26z m-557 783v-33h249v33c0 69-55 125-124 125-69 0-125-56-125-125z m-245-757h740l-70 665h-116v-66c0-16-13-30-30-30s-30 14-30 30v66h-249v-66c0-16-13-30-30-30s-29 14-29 30v66h-116z m0 0z" horiz-adv-x="1000" />

<glyph glyph-name="twitter" unicode="&#xf102;" d="M1000 660c-28-41-62-77-103-106 1-9 1-18 1-27 0-271-206-583-583-583-117 0-224 33-315 92 16-2 32-3 49-3 96 0 185 33 254 87-89 2-165 62-191 143 12-3 25-3 39-3 18 0 37 2 53 6-93 20-164 102-164 202v2c27-15 60-24 93-25-55 36-91 99-91 170 0 38 10 73 28 104 101-125 252-206 422-215-3 15-5 31-5 47 0 113 92 205 205 205 59 0 112-25 150-65 47 10 90 26 130 50-15-48-48-88-90-113 41 5 81 16 118 32z" horiz-adv-x="1000" />

<glyph glyph-name="lightning" unicode="&#xf104;" d="M808 464c1-2 3-7 3-10 0-3-2-8-3-10l-327-582c-3-5-11-10-17-10-12 0-21 10-21 21 0 1 0 1 0 2l36 350h-269c-11 0-21 9-21 21 0 3 2 8 3 11l332 581c4 6 12 10 18 10 11 0 21-10 21-21 0-1 0-2 0-2l-46-350h273c6 0 15-5 18-11z" horiz-adv-x="1000" />

<glyph glyph-name="play-button" unicode="&#xf105;" d="M500 850c276 0 500-224 500-500s-224-500-500-500-500 224-500 500 224 500 500 500z m173-526c9 5 15 15 15 26s-6 21-15 27l-250 156c-10 6-22 6-32 1-10-6-16-16-16-28v-312c0-12 6-22 16-28 5-2 10-3 15-3 6 0 12 1 17 4z" horiz-adv-x="1000" />

<glyph glyph-name="battery" unicode="&#xf106;" d="M969 444c17 0 31-14 31-31v-125c0-18-14-32-31-32h-31v-31c0-17-14-31-32-31h-31v-31c0-35-28-63-62-63h-750c-35 0-63 28-63 63v375c0 34 28 62 63 62h750c34 0 62-28 62-62v-32h31c18 0 32-14 32-31v-31h31z m-156 31v63h-94v-375h94v312z" horiz-adv-x="1000" />

<glyph glyph-name="placeholder" unicode="&#xf109;" d="M500 850c194 0 352-158 352-352 0-63-18-125-50-180l-272-454c-5-9-15-14-25-14h0c-10 0-20 5-25 14l-279 450c-34 55-53 119-53 184 0 194 158 352 352 352z m252-502c27 46 41 98 41 150 0 162-131 294-293 294s-293-132-293-294c0-54 15-107 44-154l253-408z m-252 326c97 0 176-79 176-176 0-95-77-175-176-175-98 0-176 79-176 175 0 97 79 176 176 176z m0-293c66 0 117 54 117 117 0 65-52 118-117 118s-118-53-118-118c0-64 53-117 118-117z" horiz-adv-x="1000" />

<glyph glyph-name="telephone" unicode="&#xf10b;" d="M974 112c35-34 35-90 0-124l-45-45c-124-124-324-124-448 0l-388 388c-124 124-124 325 0 449 11 11 19 19 45 44 34 35 90 35 124 0l125-124c34-34 34-90 0-124l-57-56c-26-26-26-69 0-95l245-245c26-26 68-26 94 0l57 57c34 34 90 34 124 0z m-795 671l-20-21 165-165 21 21c12 11 12 30 0 41l-124 124c-12 11-30 11-42 0z m343-799c97-96 246-100 348-16l-165 165c-49-43-124-41-171 6l0 0-245 245c-47 47-49 122-6 171l-165 165c-85-102-79-252 16-347z m411 46c11 11 11 30 0 41l-124 124c-12 12-30 12-42 0l-21-20 166-166z" horiz-adv-x="1000" />

<glyph glyph-name="quote-left" unicode="&#xf10d;" d="M429 314v-214q0-45-32-76t-76-31h-214q-44 0-76 31t-31 76v393q0 58 23 111t61 91 91 61 111 23h35q15 0 26-11t10-25v-72q0-14-10-25t-26-10h-35q-59 0-101-42t-42-101v-18q0-22 16-38t37-16h125q45 0 76-31t32-76z m500 0v-214q0-45-32-76t-76-31h-214q-44 0-76 31t-31 76v393q0 58 23 111t61 91 91 61 111 23h35q15 0 26-11t10-25v-72q0-14-10-25t-26-10h-35q-59 0-101-42t-42-101v-18q0-22 16-38t37-16h125q45 0 76-31t32-76z" horiz-adv-x="928.6" />

<glyph glyph-name="quote-right" unicode="&#xf10e;" d="M429 671v-392q0-58-23-111t-61-91-91-61-111-23h-36q-14 0-25 11t-11 25v71q0 15 11 25t25 11h36q59 0 101 42t42 101v17q0 23-16 38t-38 16h-125q-44 0-76 31t-31 76v214q0 45 31 76t76 32h214q45 0 76-32t32-76z m500 0v-392q0-58-23-111t-61-91-91-61-111-23h-36q-14 0-25 11t-11 25v71q0 15 11 25t25 11h36q59 0 101 42t42 101v17q0 23-16 38t-38 16h-125q-44 0-76 31t-31 76v214q0 45 31 76t76 32h214q45 0 76-32t32-76z" horiz-adv-x="928.6" />

<glyph glyph-name="css3" unicode="&#xf13c;" d="M154 779h839l-148-744-449-149-389 149 39 198h166l-16-82 235-89 272 89 38 190h-675l33 165h674l22 107h-674z" horiz-adv-x="1000" />

<glyph glyph-name="youtube-play" unicode="&#xf16a;" d="M397 221l270 139-270 141v-280z m103 481q94 0 181-3t128-5l41-2q0 0 9-1t13-2 13-2 16-5 16-7 17-11 16-15q4-3 9-10t16-33 15-56q4-36 7-76t3-64v-98q1-81-10-162-4-30-14-55t-18-35l-8-9q-7-8-16-15t-17-10-16-7-16-5-13-2-13-2-9-1q-140-11-350-11-115 2-201 4t-111 4l-28 3-20 2q-20 3-30 5t-29 12-31 23q-4 3-9 10t-16 33-15 56q-4 36-7 76t-3 64v98q-1 81 10 162 4 31 14 55t18 35l8 9q8 9 16 15t17 11 16 7 16 5 13 2 13 2 9 1q140 10 350 10z" horiz-adv-x="1000" />

<glyph glyph-name="instagram" unicode="&#xf16d;" d="M571 350q0 59-41 101t-101 42-101-42-42-101 42-101 101-42 101 42 41 101z m77 0q0-91-64-156t-155-64-156 64-64 156 64 156 156 64 155-64 64-156z m61 229q0-21-15-36t-37-15-36 15-15 36 15 36 36 15 37-15 15-36z m-280 123q-4 0-43 0t-59 0-54-2-57-5-40-11q-28-11-49-32t-33-49q-6-16-10-40t-6-58-1-53 0-59 0-43 0-43 0-59 1-53 6-58 10-40q12-28 33-49t49-32q16-6 40-11t57-5 54-2 59 0 43 0 42 0 59 0 54 2 58 5 39 11q28 11 50 32t32 49q6 16 10 40t6 58 1 53 0 59 0 43 0 43 0 59-1 53-6 58-10 40q-11 28-32 49t-50 32q-16 6-39 11t-58 5-54 2-59 0-42 0z m428-352q0-128-3-177-5-116-69-180t-179-69q-50-3-177-3t-177 3q-116 6-180 69t-69 180q-3 49-3 177t3 177q5 116 69 180t180 69q49 3 177 3t177-3q116-6 179-69t69-180q3-49 3-177z" horiz-adv-x="857.1" />

<glyph glyph-name="recycle" unicode="&#xf1b8;" d="M467 198l-9-206-1-12-234 16q-20 2-38 18t-26 36q-6 15-8 31t2 36 7 31 12 36 11 29q43-6 284-15z m-216 327l100-212-82 52q-35-41-62-81t-41-70-22-53-10-35l-2-11-106 199q-10 14-10 31t3 26l4 10q20 35 64 105l-78 48z m687-289l-105-200q-7-16-21-26t-24-12l-10-2q-40-4-122-7l4-91-128 205 118 202 4-97q94-9 157-2t95 18z m-439 516q-26-35-147-243l-177 104-11 7 126 199q11 17 33 25t45 5q13-1 27-6t23-12 23-18 21-20 20-22 17-19z m366-171l118-203q10-21 7-42t-15-42q-7-11-18-20t-22-16-27-12-26-9-29-8-25-7q-19 40-148 244l174 108z m-80 126l79 46-122-208-234 11 84 48q-19 50-42 93t-42 69-36 44-26 26l-10 7 226 0q18 1 33-6t22-16l6-8q21-34 62-106z" horiz-adv-x="1000" />

<glyph glyph-name="facebook-official" unicode="&#xf230;" d="M810 779q19 0 33-14t14-34v-762q0-20-14-34t-33-14h-218v333h111l16 129h-127v83q0 31 13 46t51 16l68 1v115q-35 5-100 5-75 0-121-44t-45-127v-95h-112v-129h112v-333h-411q-19 0-33 14t-14 34v762q0 20 14 34t33 14h763z" horiz-adv-x="857.1" />

<glyph glyph-name="television" unicode="&#xf26c;" d="M1000 154v535q0 8-5 13t-13 5h-893q-7 0-12-5t-6-13v-535q0-8 6-13t12-5h893q7 0 13 5t5 13z m71 535v-535q0-37-26-63t-63-27h-411v-71h197q8 0 13-5t5-13v-36q0-8-5-13t-13-5h-464q-8 0-13 5t-5 13v36q0 8 5 13t13 5h196v71h-411q-36 0-63 27t-26 63v535q0 37 26 63t63 27h893q37 0 63-27t26-63z" horiz-adv-x="1142.9" />

<glyph glyph-name="linkedin-squared" unicode="&#xf30c;" d="M132 61h129v387h-129v-387z m138 507q-1 29-21 48t-51 19-53-19-21-48q0-29 20-48t52-19h0q33 0 53 19t21 48z m326-507h129v222q0 86-41 130t-107 44q-76 0-117-65h1v56h-129q2-37 0-387h129v217q0 21 4 31 8 19 25 33t41 14q65 0 65-88v-207z m261 557v-536q0-66-47-113t-114-48h-535q-67 0-114 48t-47 113v536q0 66 47 113t114 48h535q67 0 114-48t47-113z" horiz-adv-x="857.1" />

<glyph glyph-name="instagram-1" unicode="&#xf32d;" d="M690 350q0 26-6 50l176 0 0-344q0-56-39-96t-95-40l-592 0q-56 0-95 40t-39 96l0 344 174 0q-4-32-4-50 0-106 76-183t184-77q106 0 183 77t77 183z m36 430q56 0 95-39t39-95l0-146-218 0q-78 110-212 110-138 0-212-110l-218 0 0 146q0 56 39 95t95 39l592 0z m64-166l0 72q0 24-24 24l-72 0q-24 0-24-24l0-72q0-8 7-16t17-8l72 0q24 0 24 24z m-200-264q0-66-47-113t-113-47-113 47-47 113q0 68 47 114t113 46 113-46 47-114z" horiz-adv-x="860" />
</font>
</defs>
</svg>
