<?xml version="1.0" encoding="utf-8"?>
<!-- Generator: Adobe Illustrator 24.1.0, SVG Export Plug-In . SVG Version: 6.00 Build 0)  -->
<svg version="1.1" id="Layer_1" xmlns="http://www.w3.org/2000/svg" xmlns:xlink="http://www.w3.org/1999/xlink" x="0px" y="0px"
	 viewBox="0 0 75 75" style="enable-background:new 0 0 75 75;" xml:space="preserve">
<style type="text/css">
	.st0{fill:#FFFFFF;}
</style>
<g id="XMLID_1077_">
	<rect id="XMLID_1079_" x="38.37" y="47.26" class="st0" width="9.31" height="27.43"/>
	<polygon id="XMLID_1086_" class="st0" points="12.01,36.23 20.73,36.23 20.73,26.97 12.06,26.97 	"/>
	<path id="XMLID_1087_" class="st0" d="M22.08,71.3c0,1.86,1.51,3.37,3.37,3.37h10.27V47.24H22.08V71.3z"/>
	<path id="XMLID_1088_" class="st0" d="M11.99,52.52c0,1.86,1.51,3.37,3.37,3.37h5.34V38.93h-8.71V52.52z"/>
	<path id="XMLID_1089_" class="st0" d="M3.66,41.71c0,0.8,0.3,1.61,0.91,2.16c1.16,1.21,3.12,1.21,4.33,0l0.35-0.35l0.1-8.76
		l-4.78,4.78C3.96,40.1,3.66,40.91,3.66,41.71z"/>
	<path id="XMLID_1090_" class="st0" d="M4.61,16.29c-0.8-0.05-1.56,0.3-2.16,0.86c-0.55,0.6-0.91,1.36-0.91,2.16s0.3,1.61,0.91,2.16
		l6.9,7v-8.8l-2.57-2.46C6.23,16.6,5.42,16.29,4.61,16.29z"/>
	<path id="XMLID_1091_" class="st0" d="M13.07,8.59c-0.6,0.6-1.01,1.46-1.01,2.36v13.29h8.66V7.63l-5.23-0.05
		C14.58,7.58,13.72,7.94,13.07,8.59z"/>
	<path id="XMLID_1092_" class="st0" d="M50.4,74.7h9.92c1.86,0,3.37-1.51,3.37-3.37V47.26H50.4C50.4,47.26,50.4,74.7,50.4,74.7z"/>
	<path id="XMLID_1093_" class="st0" d="M64.94,31.47c0.22,0,0.43-0.02,0.63-0.05v-0.94c0.55-0.1,1.06-0.32,1.5-0.63l0.4,0.41
		l0.25,0.25c0.32-0.24,0.61-0.53,0.85-0.85L67.91,29c0.31-0.44,0.52-0.94,0.61-1.49h0.93c0.03-0.19,0.04-0.4,0.04-0.59
		c0-0.19-0.01-0.38-0.04-0.56c0-0.02-0.01-0.04-0.01-0.05h-0.96v0.54l-0.2,0.03c-0.13,0.02-0.27,0.03-0.41,0.03
		c-0.13,0-0.25-0.01-0.37-0.03l-0.03-0.01v0.04c0,1.4-1.14,2.54-2.54,2.54c-1.4,0-2.54-1.13-2.54-2.54c0-1.41,1.14-2.54,2.54-2.54
		h0.04v-0.02c-0.02-0.12-0.03-0.25-0.03-0.39c0-0.15,0.01-0.27,0.03-0.4l0.03-0.2h0.56v-0.97c-0.02,0-0.04-0.01-0.06-0.01
		c-0.19-0.03-0.38-0.04-0.57-0.04c-0.2,0-0.39,0.01-0.57,0.04v0.93c-0.56,0.09-1.07,0.31-1.51,0.62l-0.66-0.66
		c-0.32,0.24-0.61,0.52-0.86,0.84l0.25,0.26l0.41,0.4c-0.32,0.44-0.54,0.96-0.64,1.51h-0.93c-0.03,0.2-0.04,0.41-0.04,0.61
		c0,0.2,0.01,0.4,0.04,0.59h0.93c0.09,0.56,0.31,1.08,0.63,1.52l-0.65,0.65c0.24,0.32,0.53,0.61,0.85,0.85l0.26-0.25l0.4-0.4
		c0.44,0.31,0.96,0.53,1.52,0.62v0.93C64.55,31.46,64.74,31.47,64.94,31.47z"/>
	<path id="XMLID_1094_" class="st0" d="M63.49,26.24c0.17-0.35,0.46-0.64,0.81-0.79c0.04-0.02,0.07-0.03,0.1-0.04
		c0.17-0.06,0.35-0.1,0.54-0.1c0.21,0,0.41,0.04,0.59,0.12c0.02,0.01,0.04,0.01,0.06,0.02l0.25-0.25c-0.11-0.19-0.2-0.39-0.25-0.59
		c-0.08-0.02-0.15-0.04-0.23-0.06c-0.12-0.02-0.24-0.03-0.35-0.04c-0.02,0-0.05,0-0.07,0c-1.33,0-2.4,1.07-2.4,2.4
		s1.07,2.39,2.4,2.39c1.33,0,2.4-1.07,2.4-2.39v-0.06c0-0.09-0.01-0.18-0.03-0.27c-0.02-0.11-0.04-0.22-0.07-0.32
		c-0.2-0.06-0.4-0.14-0.58-0.25l-0.26,0.26c0.01,0.02,0.02,0.04,0.03,0.06c0.07,0.18,0.11,0.37,0.11,0.58c0,0.2-0.04,0.39-0.1,0.56
		c-0.01,0.03-0.03,0.05-0.04,0.08c-0.16,0.36-0.43,0.65-0.79,0.81c-0.03,0.02-0.06,0.03-0.09,0.04c-0.19,0.08-0.38,0.12-0.59,0.12
		c-0.19,0-0.38-0.04-0.54-0.1c-0.04-0.01-0.08-0.03-0.11-0.04c-0.35-0.16-0.64-0.44-0.81-0.8c-0.02-0.04-0.03-0.08-0.05-0.11
		c-0.06-0.17-0.11-0.36-0.11-0.56c0-0.21,0.04-0.4,0.11-0.58C63.45,26.31,63.47,26.27,63.49,26.24z"/>
	<path id="XMLID_1099_" class="st0" d="M68.26,21.86v-0.55c-0.12-0.02-0.25-0.03-0.37-0.03c-0.12,0-0.23,0.01-0.34,0.02v0.55
		c-0.33,0.06-0.64,0.18-0.9,0.37l-0.39-0.39c-0.19,0.14-0.36,0.31-0.51,0.5l0.15,0.15l0.24,0.24c-0.19,0.26-0.32,0.57-0.38,0.9
		h-0.55c-0.02,0.12-0.03,0.24-0.03,0.36c0,0.12,0.01,0.24,0.03,0.35h0.55c0.06,0.34,0.19,0.64,0.38,0.9l-0.39,0.39
		c0.14,0.19,0.31,0.36,0.51,0.5l0.15-0.15l0.24-0.24c0.26,0.19,0.57,0.32,0.9,0.37v0.55c0.11,0.02,0.23,0.02,0.34,0.02
		c0.13,0,0.25-0.01,0.37-0.03v-0.56c0.33-0.06,0.63-0.19,0.89-0.38l0.24,0.24l0.15,0.15c0.19-0.15,0.36-0.32,0.5-0.51l-0.39-0.39
		c0.18-0.26,0.31-0.56,0.36-0.88h0.55c0.02-0.12,0.03-0.24,0.03-0.35c0-0.12-0.01-0.25-0.03-0.36h-0.55
		c-0.06-0.33-0.18-0.62-0.36-0.88l0.39-0.39c-0.15-0.19-0.31-0.36-0.5-0.51l-0.15,0.15l-0.24,0.24
		C68.88,22.04,68.58,21.91,68.26,21.86z M69.39,23.98c0,0.83-0.68,1.51-1.51,1.51c-0.83,0-1.51-0.68-1.51-1.51
		c0-0.83,0.68-1.51,1.51-1.51C68.71,22.47,69.39,23.15,69.39,23.98z"/>
	<path id="XMLID_1102_" class="st0" d="M67.88,22.56c-0.79,0-1.43,0.64-1.43,1.43c0,0.79,0.64,1.43,1.43,1.43s1.43-0.64,1.43-1.43
		C69.31,23.19,68.67,22.56,67.88,22.56z M68.77,24.31c-0.01,0.02-0.02,0.03-0.02,0.05c-0.09,0.21-0.26,0.39-0.47,0.49
		c-0.02,0.01-0.04,0.02-0.06,0.02c-0.11,0.05-0.23,0.07-0.35,0.07c-0.11,0-0.22-0.02-0.32-0.06c-0.02-0.01-0.04-0.02-0.07-0.03
		c-0.21-0.1-0.38-0.26-0.48-0.47c-0.01-0.02-0.02-0.04-0.03-0.07c-0.04-0.1-0.06-0.22-0.06-0.33c0-0.12,0.03-0.24,0.07-0.34
		c0.01-0.02,0.02-0.05,0.03-0.07c0.1-0.21,0.27-0.38,0.48-0.47c0.02-0.01,0.04-0.02,0.06-0.03c0.1-0.04,0.21-0.06,0.32-0.06
		c0.13,0,0.24,0.03,0.35,0.07c0.02,0.01,0.03,0.01,0.05,0.02c0.21,0.1,0.38,0.27,0.48,0.48c0.01,0.02,0.01,0.03,0.02,0.05
		c0.04,0.11,0.07,0.22,0.07,0.34C68.83,24.1,68.81,24.21,68.77,24.31z"/>
	<path id="XMLID_1103_" class="st0" d="M69.49,31.54c-0.41-0.27-0.93-0.28-1.36-0.03h-0.01l-0.6,0.32c0.29,0.05,0.56,0.17,0.79,0.34
		L69.49,31.54z"/>
	<path id="XMLID_1104_" class="st0" d="M69.14,33.01l2.23-1.2c-0.27-0.28-0.68-0.39-0.99-0.24l-1.71,0.93
		c0.14,0.18,0.25,0.38,0.32,0.59L69.14,33.01z"/>
	<path id="XMLID_1105_" class="st0" d="M72.09,31.92l-2.74,1.48l-0.28,0.15c0.01,0.04,0.01,0.09,0.01,0.13
		c0,0.13-0.11,0.23-0.24,0.23l-1.9-0.09c-0.56-0.03-1.11,0-1.67,0.08c-0.12,0.02-0.24-0.07-0.25-0.19
		c-0.02-0.13,0.07-0.24,0.19-0.25c0.58-0.08,1.16-0.11,1.75-0.08l1.65,0.08c-0.12-0.69-0.71-1.2-1.42-1.2h-2.22
		c-0.43,0-0.86-0.1-1.24-0.29l-0.23-0.11c-1.17-0.57-2.55-0.43-3.59,0.35l-0.55,0.49c-0.3,0.27-2.97,1.64-3.6,1.97l2,3.11
		c0.01-0.01,0.02-0.01,0.02-0.02l3.34-1.91c0.32-0.18,0.7-0.24,1.07-0.15l3.33,0.61c0.8,0.14,1.63,0.03,2.36-0.33l5.57-3.83
		C73.12,31.77,72.55,31.68,72.09,31.92z"/>
	<path id="XMLID_1106_" class="st0" d="M56.7,41.92c0.06,0.02,1.62-2.49,1.62-2.49l-3.71-5.44l-2.35,1.19
		C52.26,35.17,56.64,41.9,56.7,41.92z"/>
	<path id="XMLID_1109_" class="st0" d="M69.08,29.07c0,0.82,0.66,1.48,1.48,1.48c0.82,0,1.48-0.66,1.48-1.48s-0.66-1.48-1.48-1.48
		C69.74,27.59,69.08,28.25,69.08,29.07z M71.81,29.07c0,0.69-0.56,1.24-1.24,1.24s-1.24-0.56-1.24-1.24c0-0.69,0.56-1.24,1.24-1.24
		C71.24,27.82,71.81,28.38,71.81,29.07z"/>
	<polygon id="XMLID_1110_" class="st0" points="69.87,28.85 69.62,29.1 70.3,29.78 71.49,28.59 71.24,28.35 70.3,29.29 	"/>
	<path id="XMLID_1111_" class="st0" d="M23.64,19.62l0.42,0.1l2.09-10.05l-0.42-0.09c-0.25-0.05-0.5,0.11-0.56,0.36l-1.9,9.13
		C23.23,19.32,23.39,19.57,23.64,19.62z"/>
	<path id="XMLID_1114_" class="st0" d="M34.95,17.76c0.33,1.14,1.52,1.81,2.67,1.48c0.21-0.06,0.41-0.15,0.59-0.27
		c0.01-0.01,0.02-0.01,0.02-0.02c1.58-1.06,1.1-3.5-0.76-3.89c-0.38-0.08-0.78-0.06-1.15,0.08c-0.16,0.06-0.31,0.13-0.45,0.22
		c-0.19,0.12-0.35,0.27-0.49,0.43c-0.05,0.07-0.14,0.1-0.22,0.09l-1.27-0.27l-2.75-0.57l-0.36,1.74l2.77,0.58l0,0l1.18,0.25
		l0.08,0.02C34.86,17.63,34.93,17.68,34.95,17.76z M35.77,16.9c0.07-0.33,0.27-0.62,0.55-0.81c0.01-0.01,0.02-0.01,0.02-0.02
		c0.59-0.37,1.37-0.2,1.75,0.38c0.38,0.58,0.23,1.37-0.35,1.75c-0.01,0.01-0.02,0.01-0.02,0.02c-0.59,0.39-1.38,0.22-1.77-0.37
		C35.77,17.58,35.7,17.24,35.77,16.9z"/>
	<path id="XMLID_1117_" class="st0" d="M26.57,20.23l0.4-1.89c0.03-0.12,0.14-0.19,0.25-0.17c0.12,0.03,0.19,0.14,0.17,0.25
		l-0.4,1.89l2.92,0.61c0.26,0.05,0.5-0.11,0.56-0.37l0.33-1.58c-0.49-0.21-0.77-0.74-0.66-1.26l0.8-3.82
		c0.11-0.53,0.58-0.9,1.11-0.89l0.33-1.57c0.05-0.26-0.11-0.5-0.36-0.56l-2.92-0.61l-0.4,1.89c-0.03,0.12-0.14,0.19-0.25,0.17
		c-0.12-0.03-0.19-0.14-0.17-0.25l0.4-1.89l-2.1-0.44l-2.1,10.05L26.57,20.23z M26.41,14.95c0.19-0.89,1.05-1.46,1.94-1.27
		c0.89,0.19,1.46,1.05,1.27,1.94s-1.05,1.46-1.94,1.27l0,0C26.79,16.71,26.22,15.85,26.41,14.95L26.41,14.95z"/>
	<path id="XMLID_1118_" class="st0" d="M27.77,16.49c0.32,0.07,0.65,0.01,0.91-0.18c0.56-0.37,0.72-1.12,0.35-1.69
		c-0.37-0.56-1.12-0.72-1.69-0.35c-0.27,0.18-0.46,0.45-0.52,0.77C26.68,15.71,27.11,16.35,27.77,16.49z"/>
	<path id="XMLID_1119_" class="st0" d="M44.65,5.85c0.05-0.26-0.11-0.5-0.36-0.56l-9.13-1.9c-0.25-0.05-0.5,0.11-0.56,0.36
		l-0.09,0.42l10.05,2.09L44.65,5.85z"/>
	<path id="XMLID_1122_" class="st0" d="M33.67,10.58l1.57,0.33c0.21-0.49,0.74-0.77,1.26-0.66l3.82,0.79
		c0.52,0.11,0.9,0.58,0.89,1.11l1.58,0.33c0.26,0.05,0.5-0.11,0.56-0.37l0.61-2.92L42.06,8.8c-0.12-0.03-0.19-0.14-0.17-0.26
		c0.03-0.12,0.14-0.19,0.25-0.17l1.89,0.39l0.44-2.1L34.43,4.59L34,6.7l1.89,0.39c0.12,0.03,0.19,0.14,0.17,0.25
		c-0.03,0.12-0.14,0.19-0.25,0.17l-1.89-0.39l-0.6,2.92C33.25,10.28,33.41,10.53,33.67,10.58z M37.32,7.8
		c0.19-0.89,1.06-1.46,1.95-1.27h0.01c0.89,0.19,1.46,1.06,1.27,1.95l0,0c-0.19,0.89-1.06,1.46-1.95,1.27
		C37.71,9.56,37.14,8.69,37.32,7.8z"/>
	<path id="XMLID_1123_" class="st0" d="M39.61,9.16c0.27-0.18,0.46-0.46,0.52-0.77c0.14-0.66-0.29-1.31-0.94-1.45
		c-0.32-0.07-0.64-0.01-0.91,0.18c-0.56,0.37-0.72,1.12-0.36,1.69C38.29,9.37,39.04,9.52,39.61,9.16z"/>
	<path id="XMLID_1124_" class="st0" d="M39,20.1c1.63-1.07,2.09-3.26,1.02-4.89c-0.36-0.55-0.84-0.96-1.39-1.23l0.57-2.73
		l-1.74-0.36l-0.57,2.73c-0.61,0.03-1.22,0.22-1.76,0.57c-0.49,0.32-0.88,0.75-1.15,1.23l1.2,0.25c0.16-0.2,0.35-0.38,0.57-0.52
		c0.28-0.19,0.58-0.3,0.89-0.36c0.6-0.11,1.23,0.03,1.74,0.36c0.26,0.18,0.49,0.4,0.68,0.68c0.72,1.1,0.42,2.58-0.69,3.31
		c-1.1,0.72-2.58,0.42-3.31-0.69c-0.12-0.19-0.22-0.39-0.28-0.59l-1.22-0.26c0.07,0.51,0.25,1.01,0.55,1.47
		C35.18,20.71,37.37,21.17,39,20.1z"/>
	<path id="XMLID_1127_" class="st0" d="M46.85,29.94l-0.4-0.39c-0.81-0.75-1.86-1.17-2.96-1.17c0,0,0,0-0.01,0
		c-1.15,0-2.24,0.46-3.07,1.28c-0.15,0.15-0.27,0.29-0.38,0.44l-0.46-0.46l0,0l-4.35-4.35c-1.03-1.02-2.39-1.59-3.85-1.59
		c-1.44,0-2.84,0.58-3.85,1.6c-1.03,1.03-1.6,2.4-1.6,3.85c0,1.46,0.56,2.83,1.59,3.85l3.57,3.57l0.78,0.78l3.56,3.56
		c1.07,1.07,2.46,1.6,3.86,1.6c1.39,0,2.8-0.53,3.85-1.6c1.01-1.01,1.55-2.34,1.59-3.66c0.78-0.17,1.51-0.55,2.12-1.16
		c1.66-1.66,1.69-4.34,0.1-6.04C46.92,30,46.89,29.97,46.85,29.94z M40.35,31.97c0.09-0.38,0.24-0.74,0.49-1.07
		c0.1-0.17,0.22-0.31,0.37-0.45c0.62-0.62,1.43-0.96,2.3-0.96c0.68,0,1.33,0.21,1.87,0.6l-2.67,2.67l-0.77,0.78l-1.07,1.06
		C40.29,33.81,40.13,32.85,40.35,31.97z M31.86,35.79l-3.57-3.57c-0.82-0.82-1.27-1.91-1.27-3.07c0-1.16,0.46-2.25,1.27-3.07
		c0.81-0.81,1.93-1.27,3.08-1.27c1.16,0,2.25,0.45,3.07,1.26l3.57,3.57l-4.68,4.68L31.86,35.79z M42.36,40.14
		c-1.69,1.69-4.45,1.69-6.15,0l-3.55-3.57l6.14-6.15l0.66,0.66v0.01c-0.62,1.53-0.33,3.33,0.85,4.59l0.39,0.39l0.11,0.11l0.01-0.01
		c0.78,0.75,1.79,1.14,2.8,1.17C43.55,38.36,43.13,39.37,42.36,40.14z M46.07,35.31c-0.41,0.41-0.89,0.68-1.42,0.83
		c-0.35,0.1-0.73,0.15-1.1,0.11c-0.57-0.05-1.15-0.23-1.65-0.59l1-0.99v-0.01l3.51-3.51C47.31,32.41,47.19,34.18,46.07,35.31z"/>
	
		<rect id="XMLID_1131_" x="36.06" y="37.27" transform="matrix(0.7068 -0.7074 0.7074 0.7068 -16.2955 36.8706)" class="st0" width="0.55" height="1.64"/>
	<path id="XMLID_1132_" class="st0" d="M37.56,39.07l-0.39,0.39c0.56,0.56,1.22,1.1,1.96,1.1c0.15,0,0.3-0.02,0.46-0.07l-0.17-0.53
		C38.77,40.16,38.12,39.63,37.56,39.07z"/>
	<path id="XMLID_1135_" class="st0" d="M52.83,13.16c0.43,0.59,0.34,1.75,0.26,2.17c-0.02,0.14,0.05,0.25,0.17,0.31l6.34,2.75
		c0.08,0.04,0.17,0.04,0.25-0.01c0.07-0.05,0.12-0.13,0.13-0.21c0.01-0.2-0.01-0.4-0.05-0.59c-0.02-0.11-0.03-0.23-0.04-0.34
		c-0.02-0.29-0.01-0.57,0.03-0.85c0.08-0.55,0.2-1.09,0.36-1.61c0.25-0.8,0.69-1.51,1.29-2.07c0.37-0.31,0.75-0.56,1.16-0.78
		c0.24-0.14,0.5-0.29,0.74-0.44c0.56-0.37,1.04-0.87,1.36-1.47l-0.77,0.18c-0.25,0.33-0.54,0.62-0.88,0.84
		c-0.22,0.15-0.46,0.29-0.7,0.42c-0.45,0.24-0.87,0.52-1.25,0.86c-0.69,0.63-1.19,1.43-1.46,2.32c-0.18,0.56-0.3,1.13-0.38,1.71
		c-0.05,0.31-0.06,0.62-0.03,0.93c0,0.14,0.02,0.28,0.05,0.41l-0.01,0.04l-5.72-2.48c0.09-0.68,0.03-1.37-0.18-2
		c0.08,0.01,0.14,0.01,0.2,0.01c0.23,0.02,0.39,0.03,0.47,0.04c1.23,0.14,1.99-0.12,2.24-0.76c0.06-0.13-0.02-0.29-0.16-0.35
		c-0.07-0.03-0.14-0.04-0.21,0c-0.06,0.03-0.11,0.08-0.14,0.15c-0.12,0.26-0.49,0.55-1.69,0.42c-0.09-0.01-0.26-0.03-0.48-0.05
		c-0.21-0.02-0.46-0.04-0.74-0.06c-0.82-0.07-1.65-0.16-2.45-0.3c-0.26-0.06-0.42-0.31-0.37-0.56c0.01-0.17,0.05-0.33,0.13-0.47
		c0.04-0.05,0.07-0.1,0.11-0.15c0.13-0.15,0.21-0.34,0.26-0.52c0.03-0.27-0.06-0.53-0.24-0.72l-0.04-0.06
		c0.06-0.04,0.11-0.08,0.17-0.11c0.07-0.04,0.12-0.1,0.14-0.17s0.02-0.15-0.03-0.21c-0.05-0.07-0.14-0.24-0.21-0.38
		c0.02-0.02,0.06-0.04,0.08-0.06c0.07-0.05,0.15-0.11,0.24-0.18c0.15-0.14,0.26-0.33,0.31-0.54c0.07-0.33-0.16-0.61-0.33-0.81
		c-0.06-0.08-0.11-0.14-0.15-0.22c-0.04-0.06-0.08-0.13-0.1-0.19c0.02-0.03,0.1-0.11,0.4-0.27c0.7-0.38,1.36-0.84,1.97-1.36
		c0.11-0.08,0.2-0.19,0.25-0.31c0.09-0.26,0.05-0.56-0.1-0.79c-0.06-0.14-0.12-0.27-0.09-0.35c0.03-0.07,0.07-0.12,0.12-0.16
		c0.08-0.1,0.18-0.18,0.27-0.27c0.21-0.17,0.38-0.35,0.54-0.55l0.06-0.08c0.17-0.24,0.35-0.47,0.54-0.68
		c0.43-0.46,0.97-0.83,1.56-1.07c0.72-0.31,1.61-0.33,2.73-0.09c0.86,0.17,1.7,0.4,2.51,0.69c0.12,0.04,0.22,0.09,0.32,0.13
		c0.2-0.08,0.44-0.17,0.69-0.27c-0.25-0.14-0.52-0.26-0.81-0.37c-0.85-0.31-1.71-0.54-2.59-0.72c-1.24-0.27-2.24-0.23-3.06,0.12
		c-0.65,0.28-1.24,0.68-1.73,1.2c-0.22,0.23-0.41,0.47-0.6,0.72L53.44,2.6c-0.14,0.17-0.3,0.33-0.47,0.48
		c-0.1,0.09-0.21,0.18-0.31,0.28c-0.11,0.11-0.21,0.25-0.25,0.4c-0.06,0.25,0,0.5,0.12,0.72c0.07,0.17,0.12,0.29,0.09,0.36
		c-0.03,0.03-0.06,0.05-0.09,0.09c-0.58,0.5-1.21,0.94-1.89,1.3c-0.29,0.15-0.58,0.32-0.66,0.6C49.95,7.06,50,7.28,50.14,7.46
		c0.07,0.09,0.13,0.19,0.2,0.27c0.09,0.1,0.23,0.28,0.21,0.35c-0.02,0.1-0.07,0.18-0.14,0.24c-0.07,0.06-0.13,0.13-0.2,0.16
		c-0.16,0.13-0.43,0.34-0.29,0.63c0.04,0.07,0.1,0.19,0.16,0.29c-0.11,0.08-0.2,0.2-0.25,0.33c-0.03,0.1-0.02,0.21,0.05,0.31
		c0.04,0.07,0.09,0.13,0.13,0.19c0.12,0.16,0.15,0.22,0.14,0.31c-0.03,0.1-0.09,0.21-0.17,0.29L49.85,11
		c-0.13,0.23-0.21,0.47-0.21,0.72c-0.08,0.53,0.27,1.03,0.8,1.14C51.23,13,52.03,13.1,52.83,13.16z"/>
	<path id="XMLID_1140_" class="st0" d="M66.17,5.4l0.15,0.39c0.06,0.16-0.02,0.34-0.18,0.41l-0.47,0.18l-0.51,0.19l0.27,0.69
		l0.06-0.03c0.06-0.03,0.14-0.05,0.2-0.06c0.44-0.08,0.86,0.13,1.05,0.53c0.1,0.25,0.11,0.5,0.02,0.76c-0.1,0.23-0.3,0.42-0.54,0.51
		l-0.1,0.05l0.26,0.67l2.64-1.03c0.27-0.11,0.4-0.41,0.3-0.67l-1.02-2.63L67.3,5.75c-0.17,0.06-0.35-0.03-0.41-0.18l-0.15-0.4
		c-0.06-0.16-0.25-0.24-0.4-0.18C66.18,5.06,66.11,5.23,66.17,5.4z"/>
	<path id="XMLID_1141_" class="st0" d="M64.01,8.05l0.38-0.15c0.17-0.07,0.24-0.24,0.18-0.41c-0.07-0.17-0.24-0.24-0.41-0.18
		l-0.38,0.15c-0.17,0.07-0.34-0.02-0.41-0.18L62.99,6.3l-0.68,0.27l0.03,0.07c0.19,0.48-0.02,1.03-0.48,1.24
		c-0.24,0.1-0.5,0.11-0.74,0.02c-0.24-0.11-0.43-0.3-0.52-0.53l-0.04-0.1l-0.68,0.27l1.03,2.63c0.11,0.28,0.41,0.41,0.69,0.3
		l2.63-1.03l-0.38-0.98C63.77,8.29,63.84,8.11,64.01,8.05z"/>
	<path id="XMLID_1163_" class="st0" d="M62.52,3.36c0.06,0.16-0.03,0.35-0.18,0.4l-0.4,0.16C61.85,3.95,61.79,4,61.76,4.07
		c-0.03,0.09-0.03,0.17,0.01,0.26c0.08,0.15,0.27,0.22,0.44,0.15l0.36-0.14c0.16-0.06,0.35,0.01,0.41,0.18l0.38,0.97l0.67-0.26
		L64,5.17c-0.15-0.38-0.05-0.77,0.2-1.04c0.09-0.08,0.18-0.14,0.29-0.2c0.07-0.04,0.14-0.06,0.21-0.07
		c0.18-0.05,0.36-0.03,0.54,0.04c0.24,0.11,0.41,0.3,0.51,0.54l0.04,0.1l0.69-0.27l-1.03-2.64c-0.11-0.27-0.41-0.4-0.67-0.3L63,2.03
		l-0.62,0.24l-0.25,0.1L62.52,3.36z"/>
	<path id="XMLID_1427_" class="st0" d="M61.81,3.29l-0.27-0.68l-2.63,1.03c-0.28,0.11-0.41,0.41-0.31,0.68l1.03,2.63l0.98-0.38
		c0.17-0.07,0.35,0.03,0.41,0.18l0.16,0.39c0.03,0.08,0.1,0.14,0.18,0.18c0.09,0.03,0.17,0.03,0.25-0.01
		c0.15-0.07,0.22-0.26,0.15-0.44l-0.14-0.36c-0.06-0.16,0.02-0.34,0.18-0.41l0.98-0.38l-0.27-0.68l-0.07,0.03
		c-0.48,0.19-1.03-0.02-1.24-0.48c-0.11-0.24-0.11-0.5-0.02-0.75c0.11-0.24,0.3-0.42,0.54-0.51L61.81,3.29z"/>
</g>
</svg>
