<?xml version="1.0" encoding="utf-8"?>
<!-- Generator: Adobe Illustrator 24.1.0, SVG Export Plug-In . SVG Version: 6.00 Build 0)  -->
<svg version="1.1" id="Layer_1" xmlns="http://www.w3.org/2000/svg" xmlns:xlink="http://www.w3.org/1999/xlink" x="0px" y="0px"
	 viewBox="0 0 75 75" style="enable-background:new 0 0 75 75;" xml:space="preserve">
<style type="text/css">
	.st0{fill:#004CBF;}
</style>
<g>
	<path class="st0" d="M65.17,19.43c-0.77,0.48-1.01,1.49-0.53,2.26c3.19,5.14,4.87,11.07,4.87,17.15c0,17.98-14.63,32.6-32.6,32.6
		c-17.98,0-32.6-14.63-32.6-32.6c0-17.98,14.63-32.6,32.6-32.6c5.37,0,10.7,1.33,15.41,3.86c0.8,0.43,1.79,0.13,2.22-0.67
		c0.43-0.8,0.13-1.79-0.67-2.22C48.7,4.42,42.83,2.95,36.91,2.95c-19.79,0-35.89,16.1-35.89,35.89c0,19.79,16.1,35.89,35.89,35.89
		c19.79,0,35.89-16.1,35.89-35.89c0-6.69-1.85-13.23-5.37-18.89C66.96,19.18,65.95,18.95,65.17,19.43z"/>
	<path class="st0" d="M53.27,15.71c-4.62-3.33-10.28-5.24-16.36-5.24c-15.65,0-28.38,12.74-28.38,28.38s12.74,28.38,28.38,28.38
		S65.3,54.5,65.3,38.85c0-6.87-2.46-13.19-6.54-18.1l-2.37,2.37c3.54,4.29,5.62,9.78,5.62,15.73c0,13.82-11.28,25.09-25.09,25.09
		c-13.86,0-25.09-11.28-25.09-25.09c0-13.86,11.24-25.09,25.09-25.09c5.16,0,10.03,1.58,14.03,4.29L53.27,15.71z"/>
	<path class="st0" d="M48.03,20.96c-3.2-2-7.04-3.16-11.11-3.16c-11.61,0-21.06,9.45-21.06,21.06s9.45,21.02,21.06,21.02
		s21.06-9.41,21.06-21.02c0-4.87-1.66-9.32-4.41-12.9l-2.37,2.37c2.2,2.96,3.5,6.58,3.5,10.53c0,9.78-7.99,17.73-17.77,17.73
		s-17.77-7.95-17.77-17.73s7.99-17.77,17.77-17.77c3.16,0,6.16,0.83,8.7,2.29L48.03,20.96z"/>
	<path class="st0" d="M36.92,28.86c0.96,0,1.92,0.13,2.79,0.41l2.58-2.58c-1.62-0.71-3.45-1.12-5.37-1.12
		c-7.33,0.01-13.28,5.95-13.28,13.28s5.95,13.28,13.28,13.28S50.2,46.18,50.2,38.85c0-2.7-0.83-5.2-2.2-7.32l-2.42,2.42
		c0.87,1.46,1.33,3.12,1.33,4.91c0,5.49-4.49,9.99-9.99,9.99c-5.53,0-9.99-4.49-9.99-9.99C26.93,33.32,31.38,28.86,36.92,28.86z"/>
	<path class="st0" d="M73.54,9.45c-0.62-0.67-1.65-0.71-2.32-0.1l-1.71,1.57c-1.74,1.6-3.99,2.41-6.29,2.42l2.45-2.45
		c0.64-0.64,0.64-1.68,0-2.32c-0.64-0.64-1.68-0.64-2.32,0l-2.45,2.45c0.02-2.29,0.82-4.55,2.42-6.29l1.57-1.71
		c0.62-0.67,0.57-1.71-0.1-2.32s-1.71-0.57-2.32,0.1L60.89,2.5c-2.85,3.09-3.86,7.38-2.92,11.43L37.63,34.29
		c-0.64,0.64-0.64,1.68,0,2.32c0.32,0.32,0.74,0.48,1.16,0.48s0.84-0.16,1.16-0.48l20.3-20.3c0.96,0.23,1.93,0.38,2.9,0.38
		c3.13,0,6.21-1.16,8.58-3.35l1.71-1.57C74.11,11.16,74.16,10.12,73.54,9.45z"/>
</g>
</svg>
