<?xml version="1.0" encoding="utf-8"?>
<!-- Generator: Adobe Illustrator 24.1.0, SVG Export Plug-In . SVG Version: 6.00 Build 0)  -->
<svg version="1.1" id="Layer_1" xmlns="http://www.w3.org/2000/svg" xmlns:xlink="http://www.w3.org/1999/xlink" x="0px" y="0px"
	 viewBox="0 0 75 75" style="enable-background:new 0 0 75 75;" xml:space="preserve">
<style type="text/css">
	.st0{fill:#FFFFFF;}
</style>
<g id="XMLID_334_">
	<g id="XMLID_1231_">
		<g id="XMLID_1236_">
			<path id="XMLID_1241_" class="st0" d="M72.86,16.05c0.08-0.58,0.13-1.19,0.13-1.8c0-0.63-0.04-1.25-0.13-1.84h-2.83
				c-0.27-1.65-0.92-3.17-1.85-4.49l1.99-1.99c-0.73-0.98-1.59-1.84-2.57-2.59L66.83,4.1L65.6,5.32c-1.32-0.96-2.85-1.61-4.51-1.9
				V0.6c-0.62-0.08-1.26-0.13-1.9-0.13c-0.59,0-1.17,0.03-1.73,0.11V3.4c-1.69,0.27-3.24,0.92-4.58,1.86l-1.99-1.99
				c-0.98,0.72-1.85,1.58-2.59,2.56l0.77,0.77l1.23,1.23c-0.98,1.34-1.64,2.9-1.92,4.59h-2.83c-0.08,0.6-0.12,1.22-0.12,1.84
				c0,0.61,0.03,1.22,0.12,1.8h2.82c0.28,1.7,0.95,3.27,1.91,4.62l-1.98,1.98c0.72,0.98,1.59,1.84,2.58,2.57l0.77-0.77l1.23-1.23
				c1.34,0.95,2.91,1.61,4.61,1.88v2.82c0.57,0.08,1.14,0.11,1.73,0.11c0.64,0,1.29-0.04,1.9-0.13v-2.84
				c1.67-0.29,3.21-0.96,4.53-1.91l1.23,1.23l0.77,0.77c0.98-0.73,1.84-1.6,2.57-2.59l-1.99-1.99c0.93-1.32,1.57-2.86,1.84-4.52
				L72.86,16.05L72.86,16.05z M59.19,21.95c-4.25,0-7.71-3.45-7.71-7.7c0-4.26,3.45-7.71,7.71-7.71c4.25,0,7.71,3.45,7.71,7.71
				C66.9,18.51,63.44,21.95,59.19,21.95z M59.19,6.99c-4.01,0-7.27,3.24-7.27,7.27c0,4.01,3.25,7.26,7.27,7.26s7.27-3.24,7.27-7.26
				C66.46,10.23,63.21,6.99,59.19,6.99z M63.76,15.95c-0.03,0.08-0.07,0.15-0.1,0.23c-0.46,1.09-1.32,1.97-2.39,2.47
				c-0.09,0.04-0.18,0.08-0.27,0.11c-0.56,0.22-1.16,0.35-1.79,0.35c-0.57,0-1.13-0.1-1.64-0.29c-0.11-0.03-0.22-0.08-0.33-0.12
				c-1.07-0.48-1.95-1.34-2.45-2.42c-0.04-0.1-0.09-0.22-0.14-0.34c-0.19-0.52-0.31-1.1-0.31-1.7c0-0.62,0.12-1.2,0.33-1.74
				c0.04-0.11,0.08-0.22,0.14-0.32c0.5-1.07,1.39-1.93,2.46-2.39c0.1-0.05,0.2-0.09,0.29-0.13c0.51-0.18,1.07-0.29,1.64-0.29
				c0.64,0,1.24,0.12,1.79,0.36c0.08,0.02,0.16,0.06,0.23,0.09c1.08,0.5,1.94,1.38,2.42,2.45c0.02,0.08,0.06,0.15,0.08,0.22
				c0.2,0.54,0.32,1.12,0.32,1.74C64.06,14.85,63.94,15.42,63.76,15.95z"/>
			<path id="XMLID_1237_" class="st0" d="M59.19,6.99c-4.01,0-7.27,3.24-7.27,7.27c0,4.01,3.25,7.26,7.27,7.26s7.27-3.24,7.27-7.26
				C66.46,10.23,63.21,6.99,59.19,6.99z M63.76,15.95c-0.03,0.08-0.07,0.15-0.1,0.23c-0.46,1.09-1.32,1.97-2.39,2.47
				c-0.09,0.04-0.18,0.08-0.27,0.11c-0.56,0.22-1.16,0.35-1.79,0.35c-0.57,0-1.13-0.1-1.64-0.29c-0.11-0.03-0.22-0.08-0.33-0.12
				c-1.07-0.48-1.95-1.34-2.45-2.42c-0.04-0.1-0.09-0.22-0.14-0.34c-0.19-0.52-0.31-1.1-0.31-1.7c0-0.62,0.12-1.2,0.33-1.74
				c0.04-0.11,0.08-0.22,0.14-0.32c0.5-1.07,1.39-1.93,2.46-2.39c0.1-0.05,0.2-0.09,0.29-0.13c0.51-0.18,1.07-0.29,1.64-0.29
				c0.64,0,1.24,0.12,1.79,0.36c0.08,0.02,0.16,0.06,0.23,0.09c1.08,0.5,1.94,1.38,2.42,2.45c0.02,0.08,0.06,0.15,0.08,0.22
				c0.2,0.54,0.32,1.12,0.32,1.74C64.06,14.85,63.94,15.42,63.76,15.95z"/>
		</g>
		<path id="XMLID_1232_" class="st0" d="M59.19,6.99c-4.01,0-7.27,3.24-7.27,7.27c0,4.01,3.25,7.26,7.27,7.26s7.27-3.24,7.27-7.26
			C66.46,10.23,63.21,6.99,59.19,6.99z M63.76,15.95c-0.03,0.08-0.07,0.15-0.1,0.23c-0.46,1.09-1.32,1.97-2.39,2.47
			c-0.09,0.04-0.18,0.08-0.27,0.11c-0.56,0.22-1.16,0.35-1.79,0.35c-0.57,0-1.13-0.1-1.64-0.29c-0.11-0.03-0.22-0.08-0.33-0.12
			c-1.07-0.48-1.95-1.34-2.45-2.42c-0.04-0.1-0.09-0.22-0.14-0.34c-0.19-0.52-0.31-1.1-0.31-1.7c0-0.62,0.12-1.2,0.33-1.74
			c0.04-0.11,0.08-0.22,0.14-0.32c0.5-1.07,1.39-1.93,2.46-2.39c0.1-0.05,0.2-0.09,0.29-0.13c0.51-0.18,1.07-0.29,1.64-0.29
			c0.64,0,1.24,0.12,1.79,0.36c0.08,0.02,0.16,0.06,0.23,0.09c1.08,0.5,1.94,1.38,2.42,2.45c0.02,0.08,0.06,0.15,0.08,0.22
			c0.2,0.54,0.32,1.12,0.32,1.74C64.06,14.85,63.94,15.42,63.76,15.95z"/>
	</g>
	<g id="XMLID_1227_">
		
			<rect id="XMLID_1230_" x="19.51" y="65.62" transform="matrix(1 -1.069166e-03 1.069166e-03 1 -0.075 0.0377)" class="st0" width="31.47" height="9.08"/>
		<polygon id="XMLID_1229_" class="st0" points="52.44,74.68 52.43,65.61 63.55,70.13 		"/>
		<path id="XMLID_1228_" class="st0" d="M11.51,66.23l0.01,7.9c0,0.32,0.26,0.58,0.58,0.58l6.17,0l-0.01-9.08l-6.17,0
			C11.77,65.65,11.51,65.91,11.51,66.23z"/>
	</g>
	<g id="XMLID_1223_">
		<path id="XMLID_1224_" class="st0" d="M55.22,29.94v25.74c0,3.35-2.74,6.08-6.08,6.08H21.27c-1.39,0-2.69-0.48-3.71-1.28
			c-0.3,0.18-0.63,0.38-1.02,0.56c1.27,1.12,2.93,1.8,4.73,1.8h27.87c3.94,0,7.16-3.21,7.16-7.16V29.93
			C55.94,29.95,55.57,29.95,55.22,29.94z M21.27,4.71h25.72c0.38-0.34,0.75-0.72,1.09-1.08h-26.8c-3.94,0-7.16,3.21-7.16,7.16v26.7
			c0.4,0.06,0.75,0.13,1.08,0.19V10.79C15.19,7.43,17.92,4.71,21.27,4.71z"/>
	</g>
	<g id="XMLID_1216_">
		<g id="XMLID_1219_">
			<path id="XMLID_1220_" class="st0" d="M11.51,59.88c-5.6,0-10.16-4.56-10.16-10.16s4.56-10.16,10.16-10.16
				s10.16,4.56,10.16,10.16S17.12,59.88,11.51,59.88z M11.51,41.16c-4.72,0-8.56,3.84-8.56,8.56s3.84,8.56,8.56,8.56
				s8.56-3.84,8.56-8.56S16.23,41.16,11.51,41.16z"/>
		</g>
		<g id="XMLID_1217_">
			<polygon id="XMLID_1218_" class="st0" points="9.79,54.64 5.09,49.94 6.79,48.24 9.79,51.25 16.23,44.8 17.93,46.5 			"/>
		</g>
	</g>
	<path id="XMLID_1211_" class="st0" d="M43.28,41.44v-8.48H32.25v-2.9h3.49V21.6h-5.11v-5.25h11.71V9.82h-1.08v5.45H29.56v6.32
		h-6.79v8.48h8.41v2.9h-5.7v8.48h1.86v1.75h-4.58v8.48h8.82v-8.48h-3.16v-1.75H43.28z M23.84,22.67h10.83V29H23.84V22.67z
		 M30.5,50.59h-6.66v-6.32h6.66L30.5,50.59L30.5,50.59z M26.55,34.04H42.2v6.32H26.55V34.04z"/>
	<g id="XMLID_1200_">
		<g id="XMLID_1209_">
			<rect id="XMLID_1210_" x="38.51" y="25.3" class="st0" width="0.54" height="1.08"/>
		</g>
		<g id="XMLID_1203_">
			<path id="XMLID_1204_" class="st0" d="M47.9,26.37h-1.11V25.3h1.11C47.9,25.3,47.9,26.37,47.9,26.37z M45.68,26.37h-1.11V25.3
				h1.11V26.37z M43.47,26.37h-1.11V25.3h1.11V26.37z M41.26,26.37h-1.11V25.3h1.11V26.37z"/>
		</g>
		<g id="XMLID_1201_">
			<rect id="XMLID_1202_" x="49" y="25.3" class="st0" width="0.54" height="1.08"/>
		</g>
	</g>
	<g id="XMLID_1189_">
		<g id="XMLID_1198_">
			<rect id="XMLID_1199_" x="21.65" y="10.97" class="st0" width="0.54" height="1.08"/>
		</g>
		<g id="XMLID_1192_">
			<path id="XMLID_1193_" class="st0" d="M31.04,12.04h-1.11v-1.08h1.11V12.04z M28.83,12.04h-1.11v-1.08h1.11V12.04z M26.62,12.04
				h-1.11v-1.08h1.11V12.04z M24.4,12.04H23.3v-1.08h1.11V12.04z"/>
		</g>
		<g id="XMLID_1190_">
			<rect id="XMLID_1191_" x="32.15" y="10.97" class="st0" width="0.54" height="1.08"/>
		</g>
	</g>
	<g id="XMLID_1178_">
		<g id="XMLID_1187_">
			<rect id="XMLID_1188_" x="34.38" y="46.9" class="st0" width="0.54" height="1.08"/>
		</g>
		<g id="XMLID_1181_">
			<path id="XMLID_1182_" class="st0" d="M43.77,47.97h-1.11V46.9h1.11V47.97z M41.56,47.97h-1.11V46.9h1.11V47.97z M39.34,47.97
				h-1.11V46.9h1.11V47.97z M37.13,47.97h-1.11V46.9h1.11V47.97z"/>
		</g>
		<g id="XMLID_1179_">
			<rect id="XMLID_1180_" x="44.88" y="46.9" class="st0" width="0.54" height="1.08"/>
		</g>
	</g>
	<g id="XMLID_1167_">
		<g id="XMLID_1176_">
			<rect id="XMLID_1177_" x="34.38" y="49.72" class="st0" width="0.54" height="1.08"/>
		</g>
		<g id="XMLID_1170_">
			<path id="XMLID_1171_" class="st0" d="M43.77,50.8h-1.11v-1.08h1.11V50.8z M41.56,50.8h-1.11v-1.08h1.11V50.8z M39.34,50.8h-1.11
				v-1.08h1.11V50.8z M37.13,50.8h-1.11v-1.08h1.11V50.8z"/>
		</g>
		<g id="XMLID_1168_">
			<rect id="XMLID_1169_" x="44.88" y="49.72" class="st0" width="0.54" height="1.08"/>
		</g>
	</g>
</g>
</svg>
