<?xml version="1.0" encoding="utf-8"?>
<!-- Generator: Adobe Illustrator 24.1.0, SVG Export Plug-In . SVG Version: 6.00 Build 0)  -->
<svg version="1.1" id="Layer_1" xmlns="http://www.w3.org/2000/svg" xmlns:xlink="http://www.w3.org/1999/xlink" x="0px" y="0px"
	 viewBox="0 0 150 150" style="enable-background:new 0 0 150 150;" xml:space="preserve">
<style type="text/css">
	.st0{fill:#231F20;}
</style>
<g id="XMLID_86_">
	<path id="XMLID_113_" class="st0" d="M93.98,26.83c1.56-3.6,1.28-7.77-0.74-11.15c-1.3-2.12-3.16-3.8-5.43-4.83l-5.61-2.56
		C77.3,6.06,71.48,6.72,66.83,9.35c1.06-0.6,3.14,0.8,4.95,3.54l0.62,0.94l-3.36,2.24l-0.62-0.96c-1.76-2.62-4.5-2.24-5.19-2.24
		c-2.98,0.02-5.77,1.6-7.29,4.14c-1.52,2.52-1.64,5.57-0.32,8.19l1,2l0.14,0.3l0.02-0.02c0.34,0.68,1.02,1.74,3.5,1.98
		c0.66,0.06,1.8,0.2,3.26,0.3c0.46,0.04,0.92,0.06,1.36,0.08c1.04,0.02,2.18,0.04,3.42-0.02c0.12,0.02,0.22,0,0.32,0
		c-0.02,0-0.02,0-0.04-0.02c4.58-0.26,10.19-1.42,15.02-5.09l0.02-0.02c0.48-0.28,0.96-0.6,1.42-0.94l3.22-2.42
		c0.48-0.34,1.1-0.48,1.68-0.34c0.58,0.14,1.08,0.52,1.34,1.06l2.56,5.11L93.98,26.83z"/>
	<path id="XMLID_629_" class="st0" d="M91.5,43.08V31.47l-2.14-4.28c-5.37,3.54-12.27,6.67-22.66,6.67c-2.3,0-4.77-0.14-7.43-0.5
		v9.71c0,8.87,7.23,16.1,16.12,16.1C84.27,59.18,91.5,51.95,91.5,43.08z"/>
	<path id="XMLID_630_" class="st0" d="M49.23,89.37h4.02v23.36h18.5l-4.36-18.88c-0.1-0.4-0.06-0.82,0.1-1.2l3.64-9.07l-3.46-5.15
		c-0.34-0.52-0.42-1.18-0.22-1.76l1.62-4.85l-2.42-2.42l-15.94,2.66l-9.19,1.52c-4.85,0.82-8.39,4.99-8.39,9.93v29.23h16.1V89.37z"
		/>
	<path id="XMLID_631_" class="st0" d="M81.43,62.28c-1.92,0.6-3.94,0.92-6.03,0.92c-2.12,0-4.14-0.32-6.05-0.92v4.12l6.05,6.03
		l6.03-6.03V62.28z"/>
	<path id="XMLID_632_" class="st0" d="M79.22,77l-0.68-2.02l-1.72,1.72c-0.4,0.4-0.92,0.6-1.42,0.6c-0.52,0-1.04-0.2-1.44-0.6
		l-1.72-1.72L71.56,77l2.9,4.32h1.86L79.22,77z"/>
	<polygon id="XMLID_633_" class="st0" points="75.4,110.61 79.34,93.56 76.04,85.35 74.74,85.35 71.46,93.56 	"/>
	<path id="XMLID_670_" class="st0" d="M108.48,73.45l-9.19-1.52c0.02,0,0.02,0,0.02-0.02l-15.18-2.52l-2.42,2.42l1.62,4.85
		c0.2,0.58,0.12,1.24-0.22,1.76l-3.44,5.15l3.62,9.07c0.16,0.38,0.2,0.8,0.1,1.2l-4.36,18.88h17.72V89.25h4.02v23.48h16.1V83.37
		C116.88,78.44,113.34,74.26,108.48,73.45z"/>
	<path id="XMLID_671_" class="st0" d="M50.3,43.19c0.3,0,0.61-0.02,0.91-0.05V28.34l-0.01,0c0.04-13.3,10.87-24.11,24.18-24.11
		c13.33,0,24.17,10.83,24.19,24.15v14.75c0.3,0.04,0.61,0.05,0.91,0.05c4.11,0,7.43-3.34,7.43-7.45c0-3.81-2.87-6.92-6.56-7.36
		c-0.02-14.3-11.66-25.94-25.97-25.94c-14.31,0-25.95,11.63-25.97,25.94c-3.68,0.44-6.55,3.55-6.55,7.36
		C42.87,39.85,46.19,43.19,50.3,43.19z"/>
	<path id="XMLID_672_" class="st0" d="M53.33,28.42h-0.69c-0.51,0-0.92,0.41-0.92,0.92v12.93c0,0.51,0.41,0.92,0.92,0.92h0.69
		c0.51,0,0.92-0.41,0.92-0.92v-2.6c0.2,0.05,0.39,0.12,0.6,0.12h1.56v-5.51h-1.56c-0.21,0-0.4,0.08-0.6,0.12v-5.06
		C54.25,28.83,53.83,28.42,53.33,28.42z"/>
	<path id="XMLID_673_" class="st0" d="M97.31,43.19H98c0.51,0,0.92-0.41,0.92-0.92V29.34c0-0.51-0.41-0.92-0.92-0.92h-0.69
		c-0.51,0-0.92,0.41-0.92,0.92v5.24c-0.37-0.18-0.77-0.3-1.2-0.3h-0.58v5.51h0.58c0.44,0,0.84-0.12,1.2-0.3v2.78
		C96.39,42.77,96.81,43.19,97.31,43.19z"/>
	<path id="XMLID_674_" class="st0" d="M40.45,137.99c0-1.55,3.03-1.63,3.64-1.63c2.63,0,10.65,0,10.65-8.38
		c0-5.31-4.33-8.74-11.02-8.74c-4.93,0-10.25,2.62-10.29,8.36L33.43,129h7.07l0.02-1.35c0.02-1.16,1.72-1.88,3.28-1.88
		c1.16,0,3.87,0.23,3.87,2.32c0,1.32-1.95,1.59-3.58,1.59c-6.73,0-10.75,3.09-10.75,8.28v7.45h21.47v-6.82H40.45V137.99z"/>
	<path id="XMLID_1151_" class="st0" d="M77.63,134.04h-2.71v-14.46h-8.71l-11.12,15.25l0.55,6.19h12.23v4.39h7.04v-4.39h2.71V134.04
		z M67.88,134.04h-3.74l3.74-5.11V134.04z"/>
	<polygon id="XMLID_1152_" class="st0" points="76.68,148.12 83.83,148.12 95.94,117.37 88.75,117.37 	"/>
	<polygon id="XMLID_1153_" class="st0" points="96.49,119.55 96.49,126.46 106.9,126.46 97.46,145.41 105.56,145.41 116.48,123.49 
		116.08,119.55 	"/>
</g>
</svg>
