<?xml version="1.0" encoding="utf-8"?>
<!-- Generator: Adobe Illustrator 24.1.0, SVG Export Plug-In . SVG Version: 6.00 Build 0)  -->
<svg version="1.1" id="Layer_1" xmlns="http://www.w3.org/2000/svg" xmlns:xlink="http://www.w3.org/1999/xlink" x="0px" y="0px"
	 viewBox="0 0 150 150" style="enable-background:new 0 0 150 150;" xml:space="preserve">
<style type="text/css">
	.st0{fill:#231F20;}
</style>
<g id="XMLID_92_">
	<path id="XMLID_195_" class="st0" d="M95.3,119.08c-0.51-3.13-1.75-6.01-3.51-8.5l3.77-3.77c-1.38-1.86-3.01-3.49-4.86-4.91
		l-1.47,1.47l-2.31,2.32c-2.49-1.81-5.39-3.05-8.53-3.59v-5.35c-1.17-0.16-2.39-0.25-3.61-0.25c-1.12,0-2.21,0.07-3.28,0.21v5.32
		c-3.2,0.51-6.14,1.75-8.66,3.52l-3.77-3.77c-1.86,1.37-3.51,3-4.91,4.84l1.45,1.45l2.32,2.32c-1.84,2.54-3.11,5.48-3.64,8.68h-5.35
		c-0.16,1.14-0.23,2.31-0.23,3.49c0,1.15,0.07,2.31,0.23,3.41h5.34c0.53,3.23,1.8,6.19,3.62,8.73l-3.76,3.76
		c1.37,1.84,3.01,3.49,4.88,4.86l1.45-1.45l2.32-2.32c2.54,1.8,5.5,3.05,8.71,3.56v5.34c1.07,0.15,2.16,0.21,3.28,0.21
		c1.22,0,2.44-0.08,3.61-0.25v-5.37c3.16-0.54,6.08-1.81,8.56-3.62l2.32,2.32l1.45,1.45c1.84-1.38,3.47-3.03,4.86-4.89l-3.77-3.77
		c1.76-2.5,2.98-5.4,3.49-8.55h5.34c0.16-1.1,0.25-2.26,0.25-3.41c0-1.19-0.08-2.35-0.25-3.49H95.3z M74.79,137.15
		c-8.04,0-14.58-6.52-14.58-14.56c0-8.05,6.54-14.58,14.58-14.58s14.58,6.52,14.58,14.58C89.37,130.63,82.83,137.15,74.79,137.15z"
		/>
	<path id="XMLID_209_" class="st0" d="M74.79,108.84c-7.59,0-13.75,6.14-13.75,13.75c0,7.59,6.16,13.74,13.75,13.74
		s13.75-6.14,13.75-13.74C88.55,114.98,82.39,108.84,74.79,108.84z M83.42,125.79c-0.07,0.15-0.13,0.3-0.2,0.44
		c-0.87,2.06-2.49,3.72-4.51,4.68c-0.18,0.08-0.35,0.15-0.51,0.21c-1.05,0.43-2.19,0.66-3.39,0.66c-1.09,0-2.14-0.2-3.11-0.54
		c-0.21-0.07-0.41-0.16-0.63-0.23c-2.03-0.91-3.69-2.54-4.63-4.58c-0.08-0.2-0.18-0.41-0.26-0.64c-0.36-0.99-0.59-2.08-0.59-3.21
		c0-1.17,0.23-2.27,0.63-3.29c0.08-0.21,0.15-0.43,0.26-0.61c0.95-2.03,2.62-3.66,4.66-4.51c0.2-0.1,0.38-0.18,0.56-0.25
		c0.97-0.35,2.03-0.54,3.11-0.54c1.2,0,2.34,0.23,3.39,0.68c0.15,0.05,0.31,0.12,0.44,0.18c2.04,0.94,3.67,2.6,4.58,4.63
		c0.05,0.15,0.12,0.28,0.16,0.43c0.38,1.02,0.61,2.12,0.61,3.29C84,123.71,83.79,124.8,83.42,125.79z"/>
	<path id="XMLID_2566_" class="st0" d="M140.45,67.35c2.53,0,4.5-2.06,4.5-4.5v-4.5c0-2.53-1.97-4.6-4.5-4.6h-12.2
		c-1.6-1.41-3.66-2.25-5.91-2.25c-2.25,0-4.32,0.84-5.91,2.25H103.1v-4.41c0-6.94-2.06-13.79-5.82-19.61c0.75-0.75,1.22-1.88,1.22-3
		V1.29L94,2.32v24.4H62.28V2.32l-4.5-1.03v25.43c0,1.13,0.47,2.25,1.22,3c-3.66,5.82-5.72,12.67-5.72,19.61v4.41H33.19
		c-1.6-1.41-3.66-2.25-5.91-2.25c-2.25,0-4.32,0.84-5.91,2.25H9.17c-2.44,0-4.5,2.06-4.5,4.6v4.5c0,2.44,2.06,4.5,4.5,4.5h12.2
		c0.28,0.28,0.56,0.47,0.84,0.66L4.66,105.36v2.72c0,12.48,10.13,22.62,22.62,22.62c12.48,0,22.62-10.13,22.62-22.62v-2.72
		L32.35,68.01c0.38-0.19,0.56-0.38,0.84-0.66h20.46v0.09c-0.19,0.66-0.38,1.41-0.38,2.25v4.5c0,3.75,3,6.76,6.76,6.76
		c0.94,0,1.78-0.19,2.53-0.47c0.84,2.91,3.38,5.07,6.57,5.07c1.69,0,3.28-0.75,4.5-1.78c1.22,1.03,2.82,1.78,4.5,1.78
		c1.78,0,3.38-0.75,4.6-1.78c1.13,1.03,2.72,1.78,4.5,1.78c3.75,0,6.76-3.1,6.76-6.85v-6.76c3.38,0,6.19-1.88,7.79-4.5v-0.09h14.64
		c0.28,0.28,0.56,0.47,0.84,0.66l-17.55,37.35v2.72c0,12.48,10.13,22.62,22.62,22.62c12.48,0,22.62-10.13,22.62-22.62v-2.72
		l-17.55-37.35c0.38-0.19,0.56-0.38,0.84-0.66H140.45z M131.07,58.34h9.38v4.5h-9.38c0.19-0.75,0.38-1.5,0.38-2.25
		C131.44,59.75,131.26,59,131.07,58.34z M18.55,62.85H9.17v-4.5h9.38c-0.19,0.66-0.28,1.41-0.28,2.25
		C18.27,61.35,18.37,62.1,18.55,62.85z M27.28,56c2.53,0,4.5,2.06,4.5,4.6c0,2.44-1.97,4.5-4.5,4.5c-2.44,0-4.5-2.06-4.5-4.5
		C22.78,58.06,24.84,56,27.28,56z M27.28,126.19c-9.95,0-18.11-8.07-18.11-18.11h36.22C45.39,118.12,37.32,126.19,27.28,126.19z
		 M44.08,103.57h-33.6l16.05-34.06c0.28,0.09,0.47,0.09,0.75,0.09c0.28,0,0.56,0,0.84-0.09L44.08,103.57z M62.28,74.2
		c0,1.22-0.94,2.25-2.25,2.25c-1.22,0-2.25-1.03-2.25-2.25v-4.5c0-1.22,1.03-2.25,2.25-2.25c1.31,0,2.25,1.03,2.25,2.25V74.2z
		 M59.47,62.85c-2.82,0-5.16,0-5.16,0h-18.3c0.19-0.75,0.38-1.5,0.38-2.25c0-0.84-0.19-1.6-0.38-2.25h35.66
		c-0.56,0.47-1.5,1.03-2.25,1.97c-0.28,0.38-0.56,0.84-0.84,1.22c-0.28,0.38-0.47,0.84-0.66,1.31H59.47z M71.39,78.71
		c0,1.31-1.03,2.25-2.25,2.25s-2.25-0.94-2.25-2.25V69.7c0-0.38,0.09-0.66,0.19-0.94c0.56,1.78,2.25,3.19,4.32,3.19V78.71z
		 M80.39,78.71c0,1.31-0.94,2.25-2.25,2.25c-1.22,0-2.25-0.94-2.25-2.25v-6.76h4.5V78.71z M89.5,78.71c0,1.31-1.03,2.25-2.25,2.25
		c-1.31,0-2.25-0.94-2.25-2.25v-6.76h4.5V78.71z M98.51,62.85c0,2.25-1.5,4.04-3.57,4.5c-0.28,0.09-0.66,0.09-0.94,0.09H71.39v-0.09
		c0-0.94,0.19-1.88,0.66-2.63c0.75-1.78,2.25-3.1,4.22-3.57L90.9,57.5l-1.78-2.63c-2.72-4.13-4.13-8.82-4.13-13.7v-0.94h-4.6v0.94
		c0,4.41,1.03,8.63,3,12.57H57.78v-4.41c0-6.48,2.06-12.86,5.72-18.11h29.28c3.75,5.26,5.72,11.64,5.72,18.11V62.85z M113.61,62.85
		H103.1v-4.5h10.51c-0.19,0.66-0.28,1.41-0.28,2.25C113.33,61.35,113.43,62.1,113.61,62.85z M122.34,56c2.53,0,4.5,2.06,4.5,4.6
		c0,2.44-1.97,4.5-4.5,4.5c-2.44,0-4.5-2.06-4.5-4.5C117.84,58.06,119.9,56,122.34,56z M122.34,126.19
		c-9.95,0-18.11-8.07-18.11-18.11h36.22C140.45,118.12,132.38,126.19,122.34,126.19z M139.14,103.57h-33.6l16.05-34.06
		c0.28,0.09,0.47,0.09,0.75,0.09c0.28,0,0.56,0,0.84-0.09L139.14,103.57z"/>
	<path id="XMLID_2653_" class="st0" d="M63.92,44.93l1.41,4.22c4.97-1.6,8.82-5.54,10.51-10.42l-4.32-1.5
		C70.3,40.9,67.49,43.71,63.92,44.93z"/>
</g>
</svg>
