<?xml version="1.0" encoding="utf-8"?>
<!-- Generator: Adobe Illustrator 24.1.0, SVG Export Plug-In . SVG Version: 6.00 Build 0)  -->
<svg version="1.1" id="Layer_1" xmlns="http://www.w3.org/2000/svg" xmlns:xlink="http://www.w3.org/1999/xlink" x="0px" y="0px"
	 viewBox="0 0 75 75" style="enable-background:new 0 0 75 75;" xml:space="preserve">
<style type="text/css">
	.st0{fill:#FFFFFF;}
</style>
<g id="XMLID_54335_">
	<g id="XMLID_54909_">
		<g id="XMLID_54912_">
			<path id="XMLID_54913_" class="st0" d="M52.4,19.9c-5.5,0-9.9-4.4-9.9-9.9s4.4-9.9,9.9-9.9s9.9,4.4,9.9,9.9S57.9,19.9,52.4,19.9z
				 M52.4,1.7C47.8,1.7,44,5.4,44,10s3.7,8.4,8.4,8.4s8.4-3.7,8.4-8.4S57,1.7,52.4,1.7z"/>
		</g>
		<g id="XMLID_54910_">
			<polygon id="XMLID_54911_" class="st0" points="50.7,14.8 46.1,10.2 47.8,8.6 50.7,11.5 57,5.2 58.7,6.9 			"/>
		</g>
	</g>
	<path id="XMLID_54905_" class="st0" d="M52.4,61c-1.3-1.5-3.2-2.4-5.3-2.4c-3.6,0-6.7,2.8-6.9,6.4c0,0.2,0,0.4,0,0.6
		c0,3.9,3.1,7,7,7c3.8,0,7-3.1,7-7C54.1,63.8,53.5,62.2,52.4,61z M47.1,72c-3.6,0-6.5-2.9-6.5-6.5c0-0.2,0-0.4,0-0.6
		c0.3-3.3,3.1-5.8,6.4-5.8c2.1,0,4,1,5.2,2.6c0.8,1.1,1.3,2.4,1.3,3.9C53.6,69.1,50.7,72,47.1,72z"/>
	<path id="XMLID_54904_" class="st0" d="M47.5,65.6c0,0.2-0.2,0.4-0.4,0.4c-0.2,0-0.3-0.1-0.4-0.3h-3.5v-0.1h3.5
		c0-0.1,0.1-0.2,0.2-0.3v-3.2h0.4v3.2C47.4,65.3,47.5,65.4,47.5,65.6z"/>
	<rect id="XMLID_54903_" x="47.1" y="59.3" class="st0" width="0.1" height="0.6"/>
	<polygon id="XMLID_54902_" class="st0" points="44.4,60.7 44.3,60.7 43.9,60.2 44,60.1 	"/>
	<polygon id="XMLID_54901_" class="st0" points="42.3,62.7 42.2,62.8 41.6,62.5 41.7,62.4 	"/>
	<rect id="XMLID_54900_" x="40.8" y="65.5" class="st0" width="0.7" height="0.1"/>
	
		<rect id="XMLID_54899_" x="41.6" y="68.5" transform="matrix(0.866 -0.5001 0.5001 0.866 -28.6692 30.1696)" class="st0" width="0.7" height="0.1"/>
	
		<rect id="XMLID_54898_" x="43.8" y="70.7" transform="matrix(0.5001 -0.866 0.866 0.5001 -39.2091 73.5962)" class="st0" width="0.7" height="0.1"/>
	<rect id="XMLID_54897_" x="47.1" y="71.2" class="st0" width="0.1" height="0.7"/>
	
		<rect id="XMLID_54896_" x="50" y="70.4" transform="matrix(0.866 -0.5 0.5 0.866 -28.6663 34.5293)" class="st0" width="0.1" height="0.7"/>
	
		<rect id="XMLID_54895_" x="52.2" y="68.2" transform="matrix(0.5 -0.866 0.866 0.5 -33.2455 79.5688)" class="st0" width="0.1" height="0.7"/>
	<rect id="XMLID_54894_" x="52.7" y="65.5" class="st0" width="0.7" height="0.1"/>
	
		<rect id="XMLID_54893_" x="52" y="62.6" transform="matrix(0.866 -0.5001 0.5001 0.866 -24.3032 34.5357)" class="st0" width="0.7" height="0.1"/>
	<polygon id="XMLID_54892_" class="st0" points="50.3,60.2 50,60.7 49.9,60.7 50.2,60.1 	"/>
	<g id="XMLID_54877_">
		<path id="XMLID_54891_" class="st0" d="M42.2,62.8L42.2,62.8L42,62.6c0,0,0,0.1-0.1,0.1L42.2,62.8z"/>
		<path id="XMLID_54890_" class="st0" d="M50.1,60.5C50.1,60.5,50.1,60.5,50.1,60.5l-0.2,0.2l0.1,0.1L50.1,60.5z"/>
		<path id="XMLID_54889_" class="st0" d="M44.3,60.7L44.3,60.7l-0.1-0.3c0,0-0.1,0-0.1,0L44.3,60.7z"/>
		<path id="XMLID_54880_" class="st0" d="M17.2,62.5c0-1.4,1.1-2.5,2.5-2.5h11.2c0-0.6,0.3-1.1,0.8-1.5c0.5-0.4,1.1-0.6,1.7-0.6h6.5
			c1-1,2.3-1.7,3.6-2.2c-0.3-0.4-0.6-1-0.6-1.5c0-1.3,1.1-2.4,2.4-2.4H49c1.3,0,2.4,1.1,2.4,2.4c0,0.6-0.2,1.1-0.6,1.5
			c0.5,0.2,1.1,0.5,1.6,0.8V22.8c-9.6,0-13.7-8.4-12.9-14.5H16.9c-2.3,0-4.2,1.9-4.2,4.2v48.4c0,2.3,1.9,4.2,4.2,4.2h2.3
			C18,64.7,17.2,63.8,17.2,62.5z M18,21.4h14.1v1.4H18V21.4z M18,26.8h27.8v1.4H18V26.8z M18,31.2h27.8v1.4H18V31.2z M18,35.4h21
			v1.4H18V35.4z M18,39.8h27.8v1.4H18V39.8z M18,43.7H28v1.4H18V43.7z M18,53.7H28v1.4H18V53.7z"/>
		<path id="XMLID_54879_" class="st0" d="M47.2,60v-0.3c0,0,0,0-0.1,0c0,0,0,0-0.1,0V60H47.2z"/>
		<rect id="XMLID_54878_" x="46.9" y="62.1" class="st0" width="0.4" height="2.9"/>
	</g>
	<path id="XMLID_54337_" class="st0" d="M52.4,58c-1.2-0.8-2.6-1.4-4.1-1.6v-1.1H49c0.6,0,1.1-0.5,1.1-1.1c0-0.6-0.5-1.1-1.1-1.1
		h-3.7c-0.6,0-1.1,0.5-1.1,1.1c0,0.6,0.5,1.1,1.1,1.1H46v1.1c-2.2,0.3-4.1,1.3-5.6,2.8h-7.1c-1.6,0-1.6,1.8,0,1.8H39
		c0,0.1-0.1,0.1-0.1,0.2H19.6c-1.6,0-1.6,2.5,0,2.5H38c0,0.2-0.1,0.4-0.1,0.6h-8.8c-0.5,0-0.9,0.3-1.1,0.6c-0.4,0.8,0,1.9,1.1,1.9
		h8.8c0.1,0.5,0.2,1,0.3,1.5h-3.4c-1.6,0-1.6,2.5,0,2.5h4.7c1.7,2.4,4.5,4,7.6,4c5.1,0,9.3-4.2,9.3-9.3C56.4,62.4,54.8,59.6,52.4,58
		z M47.1,72.8c-4,0-7.2-3.2-7.2-7.2c0-0.2,0-0.4,0-0.6c0.3-3.7,3.4-6.6,7.2-6.6c2.1,0,3.9,0.9,5.3,2.3c1.2,1.3,1.9,3,1.9,4.9
		C54.3,69.6,51.1,72.8,47.1,72.8z"/>
</g>
</svg>
