<?xml version="1.0" encoding="utf-8"?>
<!-- Generator: Adobe Illustrator 24.1.0, SVG Export Plug-In . SVG Version: 6.00 Build 0)  -->
<svg version="1.1" id="Layer_1" xmlns="http://www.w3.org/2000/svg" xmlns:xlink="http://www.w3.org/1999/xlink" x="0px" y="0px"
	 viewBox="0 0 75 75" style="enable-background:new 0 0 75 75;" xml:space="preserve">
<style type="text/css">
	.st0{fill:#FFFFFF;}
</style>
<g id="XMLID_54075_">
	<path id="XMLID_54376_" class="st0" d="M36.9,3C17,3,0.9,19.1,0.9,38.9c0,19.8,16.1,35.9,36,35.9c19.8,0,35.9-16.1,35.9-35.9
		C72.8,19.1,56.7,3,36.9,3z M36.9,69.9c-17.1,0-31-13.9-31-31s13.9-31,31-31s31,13.9,31,31S54,69.9,36.9,69.9z"/>
	<path id="XMLID_54375_" class="st0" d="M27.1,34.6c4.8,0,8.7-3.9,8.7-8.7h-4.9c0,2.1-1.7,3.8-3.8,3.8s-3.8-1.7-3.8-3.8h-4.9
		C18.4,30.6,22.3,34.6,27.1,34.6z"/>
	<path id="XMLID_54208_" class="st0" d="M49.7,29.6c-2.1,0-3.8-1.7-3.8-3.8H41c0,4.8,3.9,8.7,8.7,8.7c4.8,0,8.7-3.9,8.7-8.7h-4.9
		C53.5,27.9,51.8,29.6,49.7,29.6z"/>
	<path id="XMLID_54201_" class="st0" d="M36.9,62.7c9.9,0,17.9-8,17.9-17.9H18.9C18.9,54.6,27,62.7,36.9,62.7z M49.2,48.9
		c-1.7,5.1-6.6,8.8-12.3,8.8c-5.7,0-10.6-3.7-12.3-8.8H49.2z"/>
	<rect id="XMLID_54197_" x="66.9" y="9.7" class="st0" width="2.1" height="4.4"/>
	<rect id="XMLID_54101_" x="66.9" y="2.3" class="st0" width="2.1" height="4.4"/>
	<rect id="XMLID_54100_" x="61.7" y="7.2" class="st0" width="4.4" height="2.1"/>
	<rect id="XMLID_54099_" x="69.7" y="7.2" class="st0" width="4.4" height="2.1"/>
	
		<rect id="XMLID_54098_" x="61.2" y="2" transform="matrix(0.5756 -0.8178 0.8178 0.5756 23.8377 51.5868)" class="st0" width="0.8" height="1.6"/>
	
		<rect id="XMLID_54097_" x="59" y="0.5" transform="matrix(0.5756 -0.8177 0.8177 0.5756 24.1683 49.1269)" class="st0" width="0.8" height="1.6"/>
	
		<rect id="XMLID_54096_" x="58.9" y="2.9" transform="matrix(0.5755 -0.8178 0.8178 0.5755 22.6633 50.1968)" class="st0" width="1.6" height="0.8"/>
	
		<rect id="XMLID_54095_" x="60.5" y="0.5" transform="matrix(0.5753 -0.8179 0.8179 0.5753 25.3187 50.5618)" class="st0" width="1.6" height="0.8"/>
</g>
</svg>
