<?xml version="1.0" encoding="utf-8"?>
<!-- Generator: Adobe Illustrator 24.1.0, SVG Export Plug-In . SVG Version: 6.00 Build 0)  -->
<svg version="1.1" id="Layer_1" xmlns="http://www.w3.org/2000/svg" xmlns:xlink="http://www.w3.org/1999/xlink" x="0px" y="0px"
	 viewBox="0 0 75 75" style="enable-background:new 0 0 75 75;" xml:space="preserve">
<style type="text/css">
	.st0{fill:#FFFFFF;}
</style>
<g id="XMLID_55453_">
	<path id="XMLID_55487_" class="st0" d="M55.3,14.5c0.9,1.2,1.6,2.7,1.9,4.2c0.1,0.6,0.7,1,1.3,0.9c0.7-0.1,1.2-0.7,1.1-1.4
		c-0.4-1.9-1.2-3.6-2.3-5.1c-0.4-0.6-1.3-0.6-1.8-0.1C55,13.3,55,14,55.3,14.5z"/>
	<path id="XMLID_55486_" class="st0" d="M49.8,10.8c1.3,0.3,2.4,0.9,3.5,1.7c0.5,0.4,1.2,0.3,1.6-0.2h0c0.5-0.5,0.4-1.4-0.2-1.8
		c-1.3-0.9-2.7-1.6-4.3-2c-0.7-0.2-1.4,0.3-1.5,1C48.8,10.1,49.2,10.7,49.8,10.8z"/>
	<path id="XMLID_55485_" class="st0" d="M41.9,31.9c9.1,3.9,17.8-2.7,17.8-11.3h-2.4c0,7.1-7.3,12.5-14.8,9
		c-1.8-0.9-3.3-2.4-4.2-4.2c-3.5-7.5,1.9-14.8,9-14.8V8.1c-8.6,0-15.2,8.8-11.3,17.8C37.1,28.6,39.3,30.8,41.9,31.9z"/>
	<polygon id="XMLID_55484_" class="st0" points="49.3,26.6 49.3,22.3 53.4,22.3 53.4,18.8 49.3,18.8 49.3,14.5 45.4,14.5 45.4,18.8 
		41.2,18.8 41.2,22.3 45.4,22.3 45.4,26.6 	"/>
	<path id="XMLID_55483_" class="st0" d="M30.9,25.3h0.2c0.6,0,1.2-0.5,1.2-1.2c0-0.6-0.5-1.1-1.2-1.1h-0.2V25.3z"/>
	<path id="XMLID_55482_" class="st0" d="M14.3,25.3h0.7V23h-0.7c-0.6,0-1.1,0.5-1.1,1.1C13.1,24.8,13.6,25.3,14.3,25.3z"/>
	<path id="XMLID_55481_" class="st0" d="M15,20l0.1,0.1l0,0c0.1,0.3,0.4,0.7,1.5,0.8c0.3,0,0.8,0.1,1.4,0.1c0.2,0,0.4,0,0.6,0
		c0.4,0,0.9,0,1.4,0c0.1,0,0.1,0,0.1,0c0,0,0,0,0,0c1.9-0.1,4.3-0.6,6.3-2.1l0,0c0.2-0.1,0.4-0.3,0.6-0.4l1.3-1
		c0.2-0.1,0.5-0.2,0.7-0.1c0.2,0.1,0.5,0.2,0.6,0.4l1.1,2.1l0.1-0.1c0.7-1.5,0.5-3.3-0.3-4.7c-0.5-0.9-1.3-1.6-2.3-2l-2.3-1.1
		c-2-0.9-4.5-0.7-6.4,0.4c0.4-0.3,1.3,0.3,2.1,1.5l0.3,0.4l-1.4,0.9L19.9,15c-0.7-1.1-1.9-0.9-2.2-0.9c-1.2,0-2.4,0.7-3.1,1.7
		c-0.6,1.1-0.7,2.3-0.1,3.4L15,20z"/>
	<path id="XMLID_55479_" class="st0" d="M29.6,26.7v-4.9L28.7,20c-2.2,1.5-5.1,2.8-9.5,2.8c-1,0-2-0.1-3.1-0.2v4.1
		c0,3.7,3,6.7,6.7,6.7C26.6,33.4,29.6,30.4,29.6,26.7z"/>
	<path id="XMLID_55478_" class="st0" d="M25.4,34.7c-0.8,0.3-1.6,0.4-2.5,0.4c-0.9,0-1.7-0.1-2.5-0.4v1.7l2.5,2.5l2.5-2.5V34.7z"/>
	<path id="XMLID_55476_" class="st0" d="M24.5,40.8L24.2,40l-0.7,0.7c-0.2,0.2-0.4,0.3-0.6,0.3c-0.2,0-0.4-0.1-0.6-0.3L21.5,40
		l-0.3,0.8l1.2,1.8h0.8L24.5,40.8z"/>
	<polygon id="XMLID_55475_" class="st0" points="22.9,54.9 24.5,47.8 23.1,44.3 22.6,44.3 21.2,47.8 	"/>
	<path id="XMLID_55474_" class="st0" d="M53.9,34.1c-0.1,0-0.2,0-0.3,0c-0.3,0-0.6,0.1-0.8,0.2c0,0-0.1,0-0.1,0.1
		c-0.1,0.2-0.2,0.4-0.2,0.7c0,1.1,0,2.4,0,2.4h1.2v-1.7c0-0.3,0.1-0.4,0.2-0.6c0,0,0,0,0.1-0.1c0.1-0.1,0.3-0.2,0.6-0.2
		c0.1,0,0.2,0,0.2,0c0.2,0,0.3,0,0.5,0h5.5c0.4,0,0.6,0.3,0.6,0.7v1.8h1.2V35c0-0.5-0.4-0.8-0.8-0.8h-7.2
		C54.4,34.2,54.1,34.1,53.9,34.1z"/>
	<path id="XMLID_55461_" class="st0" d="M57.6,49.3c0.5,0,0.8-0.4,0.8-0.8v-4.2h-1.7v4.2C56.8,48.9,57.2,49.3,57.6,49.3z"/>
	<path id="XMLID_55460_" class="st0" d="M65.2,45.9c2.3,0,4.2-1.9,4.2-4.2v-2.5H45.8v2.5c0,2.3,1.9,4.2,4.2,4.2h5.1v-2.5
		c0-0.5,0.4-0.8,0.8-0.8h3.4c0.5,0,0.8,0.4,0.8,0.8v2.5H65.2z"/>
	<path id="XMLID_55455_" class="st0" d="M69.4,55.8v-1.4H51.8v-1.7h17.7v-6.8c-1.1,1.1-2.6,1.8-4.2,1.8h-5.1v0.8
		c0,1.4-1.1,2.5-2.5,2.5c-1.4,0-2.5-1.1-2.5-2.5v-0.8h-5.1c-1.6,0-3.1-0.7-4.2-1.8v6.8h3v1.7h-3v1.4h-5.6V43.5
		c0-2.1-1.5-3.8-3.5-4.2l-3.8-0.6c0,0,0,0,0,0l-6.4-1.1l-1,1l0.7,2c0.1,0.2,0.1,0.5-0.1,0.7l-1.4,2.2l1.5,3.8c0.1,0.2,0.1,0.3,0,0.5
		l-1.8,7.9h-3.1l-1.8-7.9c0-0.2,0-0.3,0-0.5l1.5-3.8l-1.4-2.2c-0.1-0.2-0.2-0.5-0.1-0.7l0.7-2l-1-1l-6.7,1.1l-3.8,0.6
		c-2,0.3-3.5,2.1-3.5,4.2v12.2h-5v7.3h74.4v-7.3H69.4z M50.3,52.7h0.8v1.7h-0.8V52.7z M31.8,46h1.7v9.8h-1.7V46z M11.9,46h1.7v9.7
		h-1.7V46z"/>
</g>
</svg>
