<?xml version="1.0" encoding="utf-8"?>
<!-- Generator: Adobe Illustrator 24.1.0, SVG Export Plug-In . SVG Version: 6.00 Build 0)  -->
<svg version="1.1" id="Layer_1" xmlns="http://www.w3.org/2000/svg" xmlns:xlink="http://www.w3.org/1999/xlink" x="0px" y="0px"
	 viewBox="0 0 75 75" style="enable-background:new 0 0 75 75;" xml:space="preserve">
<style type="text/css">
	.st0{fill:#FFFFFF;}
</style>
<g id="XMLID_55538_">
	<path id="XMLID_55588_" class="st0" d="M19.2,58.5v5.6h7.6V55c0-1.6-1.1-2.9-2.7-3.1l-4.6-0.8l0.9-3.7h5.8l8.2-4.7l0,0.1l0.6-0.4
		l0.6-0.4l0-0.1l2.8-2.1c0,1.7,0.7,3.3,2,4.4L36.7,50l-5.4,5.4l2.9,2.9h3.6l4.9-4.9l5.3-7.4l2.1,0.2v6h7.6v-9.5
		c0-1.6-1.1-2.9-2.6-3.2l-4.6-0.7l1-4.9h12.5v-6.3H43.1l-11.2,10l-7.1,3.6l-7.3-1.2H12L8,50.3c-0.9,2.3-0.2,4.8,1.6,6.3l-3.8,5.7
		l-5.4,5.4L3,70.5h4l4.7-4.7l5.3-7.4L19.2,58.5z M46.3,45.8l-4.7,6.6l-4.4,4.4h-2.5l-1.5-1.5l4.5-4.6l3.9-5.8
		c0.2,0.1,0.3,0.1,0.5,0.2c0.5,0.2,1,0.3,1.5,0.4L46.3,45.8z M43.6,28.9h18.8v3.5H50.2l-1.5,7.4l6.1,1c0.9,0.1,1.5,0.9,1.5,1.8v8.1
		h-4.8v-5.9l-7.7-0.7c-0.4,0-0.8-0.1-1.2-0.3c-0.3-0.1-0.5-0.2-0.8-0.4l0,0c-1.6-1.1-2.3-3.2-1.6-5.1l0.9-2.3l-6.2,4.7l-0.4-0.5
		l-1.4-2L43.6,28.9z M9.3,50.8l3.7-9.5l4.3,0l7.6,1.3L32,39l1.7,2.6l-7.8,4.5h-6.5l-1.6,6.2l6.1,1c0.8,0.1,1.5,0.9,1.5,1.7v7.7h-4.8
		v-5.4l-7.7-0.7c-0.4,0-0.7-0.1-1.1-0.3c-0.3-0.1-0.5-0.2-0.8-0.4l0,0C9.2,54.8,8.6,52.7,9.3,50.8z M15.4,58.2l-4.7,6.6l-4.3,4.3
		H3.6l-1.3-1.3l4.5-4.6l3.9-5.8c0.1,0.1,0.3,0.1,0.4,0.2c0.5,0.2,1,0.3,1.5,0.4L15.4,58.2z"/>
	<polygon id="XMLID_55586_" class="st0" points="60.7,53 45.4,53 45.4,59.1 31.7,59.1 31.7,65.3 15.6,65.3 15.6,71.5 71.1,71.5 
		71.1,41.8 60.7,41.8 	"/>
	<polygon id="XMLID_55585_" class="st0" points="61.8,14.5 64.3,18.3 65.9,14 70.3,12.9 66.7,10 67,5.5 63.2,8 58.9,6.4 60.2,10.8 
		57.3,14.3 	"/>
	<polygon id="XMLID_55584_" class="st0" points="74.5,17.6 72.1,17.1 71.1,14.9 69.9,17 67.4,17.2 69.1,19 68.5,21.4 70.8,20.4 
		72.9,21.7 72.6,19.2 	"/>
	<polygon id="XMLID_55583_" class="st0" points="70.2,8.6 70.7,9.8 71.4,8.7 72.8,8.6 71.9,7.6 72.3,6.3 71,6.8 69.9,6 70,7.4 
		68.9,8.2 	"/>
	<path id="XMLID_55580_" class="st0" d="M16.2,39.3c2.9,0,5.3-2.4,5.3-5.3c0-2.9-2.4-5.3-5.3-5.3c-2.9,0-5.3,2.4-5.3,5.3
		C10.8,36.9,13.2,39.3,16.2,39.3z M16.2,30c2.2,0,3.9,1.8,3.9,3.9c0,2.2-1.8,3.9-3.9,3.9c-2.2,0-3.9-1.8-3.9-3.9
		C12.2,31.8,14,30,16.2,30z"/>
	<path id="XMLID_55540_" class="st0" d="M47,26.7c2.9,0,5.3-2.4,5.3-5.3s-2.4-5.3-5.3-5.3s-5.3,2.4-5.3,5.3S44.1,26.7,47,26.7z
		 M47,17.5c2.2,0,3.9,1.8,3.9,3.9s-1.8,3.9-3.9,3.9s-3.9-1.8-3.9-3.9S44.8,17.5,47,17.5z"/>
</g>
</svg>
