<?xml version="1.0" encoding="utf-8"?>
<!-- Generator: Adobe Illustrator 24.1.0, SVG Export Plug-In . SVG Version: 6.00 Build 0)  -->
<svg version="1.1" id="Layer_1" xmlns="http://www.w3.org/2000/svg" xmlns:xlink="http://www.w3.org/1999/xlink" x="0px" y="0px"
	 viewBox="0 0 75 75" style="enable-background:new 0 0 75 75;" xml:space="preserve">
<style type="text/css">
	.st0{fill:#FFFFFF;}
</style>
<g id="XMLID_55072_">
	<path id="XMLID_55110_" class="st0" d="M11,48L11,48c0.2,0,0.3-0.1,0.3-0.3c0-0.1-0.1-0.3-0.3-0.3H11V48z"/>
	<path id="XMLID_55109_" class="st0" d="M7.2,48h0.1v-0.5H7.2c-0.1,0-0.3,0.1-0.3,0.3C6.9,47.9,7,48,7.2,48z"/>
	<path id="XMLID_55108_" class="st0" d="M7.4,46.8L7.4,46.8L7.4,46.8c0,0.1,0.1,0.2,0.3,0.2c0.1,0,0.2,0,0.3,0c0,0,0.1,0,0.1,0
		c0.1,0,0.2,0,0.3,0c0,0,0,0,0,0s0,0,0,0c0.4,0,1-0.1,1.4-0.5l0,0c0,0,0.1-0.1,0.1-0.1l0.3-0.2c0,0,0.1,0,0.2,0c0.1,0,0.1,0,0.1,0.1
		l0.2,0.5l0,0c0.1-0.3,0.1-0.7-0.1-1.1c-0.1-0.2-0.3-0.4-0.5-0.5L9.8,45c-0.5-0.2-1-0.1-1.5,0.1c0.1-0.1,0.3,0.1,0.5,0.3l0.1,0.1
		l-0.3,0.2l-0.1-0.1c-0.2-0.2-0.4-0.2-0.5-0.2c-0.3,0-0.5,0.2-0.7,0.4c-0.1,0.2-0.2,0.5,0,0.8L7.4,46.8z"/>
	<path id="XMLID_55107_" class="st0" d="M10.7,48.3v-1.1l-0.2-0.4c-0.5,0.3-1.2,0.6-2.2,0.6c-0.2,0-0.5,0-0.7,0v0.9
		c0,0.8,0.7,1.5,1.5,1.5C10,49.8,10.7,49.1,10.7,48.3z"/>
	<path id="XMLID_55106_" class="st0" d="M8.4,53l0.3-0.9l-0.3-0.5c0,0,0-0.1,0-0.2L8.5,51l-0.2-0.2L6.8,51l-0.9,0.1
		c-0.5,0.1-0.8,0.5-0.8,0.9v2.8h1.5v-2.2H7v2.2h1.8l-0.4-1.8C8.4,53.1,8.4,53,8.4,53z"/>
	<path id="XMLID_55105_" class="st0" d="M9.7,50.1c-0.2,0.1-0.4,0.1-0.6,0.1c-0.2,0-0.4,0-0.6-0.1v0.4l0.6,0.6l0.6-0.6V50.1z"/>
	<path id="XMLID_55104_" class="st0" d="M9.1,51.5c0,0-0.1,0-0.1-0.1l-0.2-0.2l-0.1,0.2l0.3,0.4h0.2l0.3-0.4l-0.1-0.2l-0.2,0.2
		C9.2,51.5,9.2,51.5,9.1,51.5z"/>
	<polygon id="XMLID_55103_" class="st0" points="9.2,52.3 9.1,52.3 8.8,53.1 9.1,54.7 9.5,53.1 	"/>
	<path id="XMLID_55102_" class="st0" d="M12.3,51.2L11.4,51c0,0,0,0,0,0L10,50.8L9.7,51l0.2,0.5c0,0.1,0,0.1,0,0.2l-0.3,0.5L9.9,53
		c0,0,0,0.1,0,0.1l-0.4,1.8h1.7v-2.2h0.4v2.2h1.5v-2.8C13.1,51.6,12.7,51.2,12.3,51.2z"/>
	<path id="XMLID_55099_" class="st0" d="M65.9,16.1c-4.9,0-9,4-9,9c0,1.5,0.4,3,1.1,4.4l-3.2,6.3l6.2-3.2c1.5,0.9,3.1,1.5,4.9,1.5
		c4.9,0,9-4,9-9C74.9,20.1,70.9,16.1,65.9,16.1z M65.9,32c-1.5,0-3-0.5-4.2-1.4l-0.5-0.4l-1.7,0.9l0.9-1.7l-0.3-0.5
		c-0.7-1.1-1.1-2.4-1.1-3.8c0-3.8,3.1-6.9,6.9-6.9c3.8,0,6.9,3.1,6.9,6.9C72.8,28.9,69.7,32,65.9,32z"/>
	<path id="XMLID_55096_" class="st0" d="M66.1,21.3c-2.2,0-4,1.8-4,4c0,2.2,1.8,4,4,4c2.2,0,4-1.8,4-4
		C70.1,23.1,68.3,21.3,66.1,21.3z M66.1,28.7c-1.9,0-3.4-1.5-3.4-3.4s1.5-3.4,3.4-3.4c1.9,0,3.4,1.5,3.4,3.4S68,28.7,66.1,28.7z"/>
	<path id="XMLID_55095_" class="st0" d="M65.1,24.8c0.5,0,1-0.4,1-1h-0.5c0,0.2-0.2,0.4-0.4,0.4c-0.2,0-0.4-0.2-0.4-0.4h-0.5
		C64.1,24.4,64.5,24.8,65.1,24.8z"/>
	<path id="XMLID_55094_" class="st0" d="M67.5,24.3c-0.2,0-0.4-0.2-0.4-0.4h-0.5c0,0.5,0.4,1,1,1s1-0.4,1-1H68
		C68,24.1,67.8,24.3,67.5,24.3z"/>
	<path id="XMLID_55093_" class="st0" d="M66.1,27.4c-0.8,0-1.4-0.6-1.4-1.4h-0.5c0,1.1,0.9,2,2,2c1.1,0,2-0.9,2-2h-0.5
		C67.6,26.7,66.9,27.4,66.1,27.4z"/>
	<path id="XMLID_55090_" class="st0" d="M18,50.7c0-4.9-4-9-9-9s-9,4-9,9s4,9,9,9c1.7,0,3.4-0.5,4.9-1.5l6.2,3.2L16.8,55
		C17.6,53.7,18,52.2,18,50.7z M15.4,56.6l-1.7-0.9l-0.5,0.4c-1.2,0.9-2.7,1.4-4.2,1.4c-3.8,0-6.9-3.1-6.9-6.9c0-3.8,3.1-6.9,6.9-6.9
		s6.9,3.1,6.9,6.9c0,1.3-0.4,2.6-1.1,3.8l-0.3,0.5L15.4,56.6z"/>
	<path id="XMLID_55087_" class="st0" d="M55.2,41c-0.4-2.5-1.4-4.8-2.8-6.8l3-3c-1.1-1.5-2.4-2.8-3.9-3.9l-1.2,1.2l-1.8,1.8
		c-2-1.4-4.3-2.4-6.8-2.9v-4.3c-0.9-0.1-1.9-0.2-2.9-0.2c-0.9,0-1.8,0.1-2.6,0.2v4.2c-2.5,0.4-4.9,1.4-6.9,2.8l-3-3
		c-1.5,1.1-2.8,2.4-3.9,3.8l1.2,1.2l1.8,1.8c-1.5,2-2.5,4.4-2.9,6.9h-4.3c-0.1,0.9-0.2,1.8-0.2,2.8c0,0.9,0.1,1.8,0.2,2.7h4.2
		c0.4,2.6,1.4,4.9,2.9,6.9l-3,3c1.1,1.5,2.4,2.8,3.9,3.9l1.2-1.2l1.8-1.8c2,1.4,4.4,2.4,6.9,2.8v4.2c0.9,0.1,1.7,0.2,2.6,0.2
		c1,0,1.9-0.1,2.9-0.2v-4.3c2.5-0.4,4.8-1.4,6.8-2.9l1.8,1.8l1.2,1.2c1.5-1.1,2.8-2.4,3.9-3.9l-3-3c1.4-2,2.4-4.3,2.8-6.8h4.2
		c0.1-0.9,0.2-1.8,0.2-2.7c0-0.9-0.1-1.9-0.2-2.8H55.2z M38.9,55.4c-6.4,0-11.6-5.2-11.6-11.6c0-6.4,5.2-11.6,11.6-11.6
		c6.4,0,11.6,5.2,11.6,11.6C50.5,50.2,45.3,55.4,38.9,55.4z"/>
	<path id="XMLID_55082_" class="st0" d="M38.9,32.9c-6,0-10.9,4.9-10.9,10.9c0,6,4.9,10.9,10.9,10.9s10.9-4.9,10.9-10.9
		C49.8,37.8,44.9,32.9,38.9,32.9z M45.7,46.3c-0.1,0.1-0.1,0.2-0.2,0.4c-0.7,1.6-2,3-3.6,3.7c-0.1,0.1-0.3,0.1-0.4,0.2
		c-0.8,0.3-1.7,0.5-2.7,0.5c-0.9,0-1.7-0.2-2.5-0.4c-0.2-0.1-0.3-0.1-0.5-0.2c-1.6-0.7-2.9-2-3.7-3.6c-0.1-0.2-0.1-0.3-0.2-0.5
		c-0.3-0.8-0.5-1.6-0.5-2.6c0-0.9,0.2-1.8,0.5-2.6c0.1-0.2,0.1-0.3,0.2-0.5c0.8-1.6,2.1-2.9,3.7-3.6c0.2-0.1,0.3-0.1,0.4-0.2
		c0.8-0.3,1.6-0.4,2.5-0.4c1,0,1.9,0.2,2.7,0.5c0.1,0,0.2,0.1,0.4,0.1c1.6,0.7,2.9,2.1,3.6,3.7c0,0.1,0.1,0.2,0.1,0.3
		c0.3,0.8,0.5,1.7,0.5,2.6C46.2,44.7,46,45.6,45.7,46.3z"/>
	<path id="XMLID_55076_" class="st0" d="M14.3,19.1v1.4h10.6v-0.2h-1.8v-5.2h-1.3v5.2h-0.7v-3.8h-1.3v3.8h-0.7v-3h-1.3v3h-0.7v-1.7
		h-1.3v1.7h-1.3V19c0.6-0.3,1.1-0.6,1.5-0.8c0.1,0.1,0.2,0.1,0.3,0.1c0.2,0,0.4-0.2,0.4-0.4c0-0.1-0.1-0.2-0.2-0.3l0.4-0.9l1.2-0.2
		c0.1,0.2,0.2,0.3,0.4,0.3c0.2,0,0.4-0.2,0.4-0.4l0.9-0.2l0.4-0.6c0,0,0.1,0,0.1,0c0.2,0,0.4-0.2,0.4-0.4c0-0.1-0.1-0.2-0.1-0.3
		l0.1-0.2l1.3-0.4c0.1,0.1,0.2,0.2,0.4,0.2c0.2,0,0.4-0.2,0.4-0.4c0,0,0,0,0,0l0.8-0.2l0.1,0.3l1-0.7h-1.2l0.1,0.3L22.7,14
		c-0.1-0.1-0.2-0.2-0.4-0.2c-0.2,0-0.4,0.2-0.4,0.4v0l-1.3,0.4l-0.1,0.2c0,0-0.1,0-0.1,0c-0.2,0-0.4,0.2-0.4,0.4
		c0,0.1,0.1,0.2,0.1,0.3l-0.3,0.6l-0.8,0.1c-0.1-0.1-0.2-0.3-0.4-0.3c-0.2,0-0.4,0.2-0.4,0.4l-1.2,0.2l-0.5,1c0,0-0.1,0-0.1,0
		c-0.2,0-0.4,0.2-0.4,0.4c0,0,0,0.1,0,0.1c-0.3,0.2-0.8,0.4-1.4,0.7v-4.7h-0.2v4.8c-0.3,0.2-0.6,0.4-0.9,0.5l0.1,0.1
		C13.7,19.4,14,19.2,14.3,19.1z M22.1,14.2c0-0.1,0.1-0.2,0.2-0.2c0.1,0,0.1,0,0.2,0.1c0,0,0.1,0.1,0.1,0.2v0c0,0.1-0.1,0.2-0.2,0.2
		c-0.1,0-0.2,0-0.2-0.1C22.1,14.3,22.1,14.3,22.1,14.2C22.1,14.2,22.1,14.2,22.1,14.2z M20.3,15C20.3,15,20.3,15,20.3,15
		c0.1,0,0.1,0,0.2,0.1c0,0,0.1,0.1,0.1,0.2c0,0.1-0.1,0.2-0.2,0.2c0,0,0,0,0,0c-0.1,0-0.1,0-0.1-0.1c0,0-0.1-0.1-0.1-0.1
		C20.1,15.1,20.2,15,20.3,15z M18.2,16.3c0-0.1,0.1-0.2,0.2-0.2c0.1,0,0.2,0,0.2,0.1c0,0,0,0.1,0,0.1c0,0,0,0,0,0
		c0,0.1-0.1,0.2-0.2,0.2c-0.1,0-0.2-0.1-0.2-0.1C18.2,16.5,18.2,16.4,18.2,16.3C18.2,16.4,18.2,16.4,18.2,16.3z M16.2,17.7
		C16.2,17.7,16.2,17.7,16.2,17.7c0.1,0,0.1,0,0.2,0.1c0,0,0.1,0.1,0.1,0.2c0,0.1-0.1,0.2-0.2,0.2c0,0-0.1,0-0.1,0
		c0,0-0.1-0.1-0.1-0.1c0,0,0,0,0-0.1C16,17.8,16.1,17.7,16.2,17.7z"/>
	<path id="XMLID_55073_" class="st0" d="M14.1,23.6h10.5c0.2,0,0.5,0,0.7,0l6.4,4l-2.7-6c0.8-1,1.3-2.3,1.3-3.6v-3.1
		c0-3.1-2.5-5.7-5.7-5.7H14.1c-3.1,0-5.6,2.5-5.6,5.7v3.1C8.5,21.1,11,23.6,14.1,23.6z M10.3,14.9c0-2.1,1.7-3.9,3.9-3.9h10.5
		c2.1,0,3.9,1.7,3.9,3.9v3.1c0,1.1-0.4,2.1-1.2,2.8l-0.5,0.4l0.8,1.7l-1.8-1.1l-0.3-0.1l-0.2,0c-0.2,0-0.5,0.1-0.7,0.1H14.1
		c-2.1,0-3.9-1.7-3.9-3.9V14.9z"/>
</g>
</svg>
