<?xml version="1.0" encoding="utf-8"?>
<!-- Generator: Adobe Illustrator 24.1.0, SVG Export Plug-In . SVG Version: 6.00 Build 0)  -->
<svg version="1.1" id="Layer_1" xmlns="http://www.w3.org/2000/svg" xmlns:xlink="http://www.w3.org/1999/xlink" x="0px" y="0px"
	 viewBox="0 0 75 75" style="enable-background:new 0 0 75 75;" xml:space="preserve">
<style type="text/css">
	.st0{fill:#FFFFFF;}
</style>
<g id="XMLID_23_">
	<path id="XMLID_1260_" class="st0" d="M46.69,56.47l-3.01-0.43l-1.33-2.7L41,56.04l-0.38,0.06l-2.61,0.38l2.18,2.11l-0.52,3.01
		l0.96-0.52l1.73-0.9l2.68,1.42l-0.51-3.01L46.69,56.47z M46.69,56.47l-3.01-0.43l-1.33-2.7L41,56.04l-0.38,0.06l-2.61,0.38
		l2.18,2.11l-0.52,3.01l0.96-0.52l1.73-0.9l2.68,1.42l-0.51-3.01L46.69,56.47z M46.69,56.47l-3.01-0.43l-1.33-2.7L41,56.04
		l-0.38,0.06l-2.61,0.38l2.18,2.11l-0.52,3.01l0.96-0.52l1.73-0.9l2.68,1.42l-0.51-3.01L46.69,56.47z M46.69,56.47l-3.01-0.43
		l-1.33-2.7L41,56.04l-0.38,0.06l-2.61,0.38l2.18,2.11l-0.52,3.01l0.96-0.52l1.73-0.9l2.68,1.42l-0.51-3.01L46.69,56.47z
		 M47.15,53.05c-1.23-1.23-2.93-2-4.81-2c-0.6,0-1.19,0.09-1.73,0.24c-2.92,0.76-5.08,3.42-5.08,6.57c0,2.52,1.37,4.72,3.4,5.89
		c0.99,0.6,2.16,0.92,3.4,0.92c3.76,0,6.8-3.04,6.8-6.8C49.15,55.98,48.4,54.27,47.15,53.05z M42.35,64.36
		c-0.99,0-1.93-0.22-2.76-0.63c-2.22-1.03-3.74-3.26-3.74-5.89c0-2.99,2.02-5.51,4.77-6.26c0.54-0.16,1.14-0.24,1.73-0.24
		c3.6,0,6.5,2.92,6.5,6.5C48.84,61.45,45.95,64.36,42.35,64.36z M43.68,56.03l-1.33-2.7L41,56.03l-0.38,0.06l-2.61,0.38l2.18,2.11
		l-0.52,3.01l0.96-0.52l1.73-0.9l2.68,1.42l-0.51-3.01l2.16-2.11L43.68,56.03z M46.69,56.47l-3.01-0.43l-1.33-2.7L41,56.04
		l-0.38,0.06l-2.61,0.38l2.18,2.11l-0.52,3.01l0.96-0.52l1.73-0.9l2.68,1.42l-0.51-3.01L46.69,56.47z M46.69,56.47l-3.01-0.43
		l-1.33-2.7L41,56.04l-0.38,0.06l-2.61,0.38l2.18,2.11l-0.52,3.01l0.96-0.52l1.73-0.9l2.68,1.42l-0.51-3.01L46.69,56.47z
		 M46.69,56.47l-3.01-0.43l-1.33-2.7L41,56.04l-0.38,0.06l-2.61,0.38l2.18,2.11l-0.52,3.01l0.96-0.52l1.73-0.9l2.68,1.42l-0.51-3.01
		L46.69,56.47z M46.69,56.47l-3.01-0.43l-1.33-2.7L41,56.04l-0.38,0.06l-2.61,0.38l2.18,2.11l-0.52,3.01l0.96-0.52l1.73-0.9
		l2.68,1.42l-0.51-3.01L46.69,56.47z M47.15,53.05c-1.23-1.23-2.93-2-4.81-2c-0.6,0-1.19,0.09-1.73,0.24
		c-2.92,0.76-5.08,3.42-5.08,6.57c0,2.52,1.37,4.72,3.4,5.89c0.99,0.6,2.16,0.92,3.4,0.92c3.76,0,6.8-3.04,6.8-6.8
		C49.15,55.98,48.4,54.27,47.15,53.05z M42.35,64.36c-0.99,0-1.93-0.22-2.76-0.63c-2.22-1.03-3.74-3.26-3.74-5.89
		c0-2.99,2.02-5.51,4.77-6.26c0.54-0.16,1.14-0.24,1.73-0.24c3.6,0,6.5,2.92,6.5,6.5C48.84,61.45,45.95,64.36,42.35,64.36z
		 M43.68,56.03l-1.33-2.7L41,56.03l-0.38,0.06l-2.61,0.38l2.18,2.11l-0.52,3.01l0.96-0.52l1.73-0.9l2.68,1.42l-0.51-3.01l2.16-2.11
		L43.68,56.03z M46.69,56.47l-3.01-0.43l-1.33-2.7L41,56.04l-0.38,0.06l-2.61,0.38l2.18,2.11l-0.52,3.01l0.96-0.52l1.73-0.9
		l2.68,1.42l-0.51-3.01L46.69,56.47z M46.69,56.47l-3.01-0.43l-1.33-2.7L41,56.04l-0.38,0.06l-2.61,0.38l2.18,2.11l-0.52,3.01
		l0.96-0.52l1.73-0.9l2.68,1.42l-0.51-3.01L46.69,56.47z M46.69,56.47l-3.01-0.43l-1.33-2.7L41,56.04l-0.38,0.06l-2.61,0.38
		l2.18,2.11l-0.52,3.01l0.96-0.52l1.73-0.9l2.68,1.42l-0.51-3.01L46.69,56.47z M46.69,56.47l-3.01-0.43l-1.33-2.7L41,56.04
		l-0.38,0.06l-2.61,0.38l2.18,2.11l-0.52,3.01l0.96-0.52l1.73-0.9l2.68,1.42l-0.51-3.01L46.69,56.47z M47.15,53.05
		c-1.23-1.23-2.93-2-4.81-2c-0.6,0-1.19,0.09-1.73,0.24c-2.92,0.76-5.08,3.42-5.08,6.57c0,2.52,1.37,4.72,3.4,5.89
		c0.99,0.6,2.16,0.92,3.4,0.92c3.76,0,6.8-3.04,6.8-6.8C49.15,55.98,48.4,54.27,47.15,53.05z M42.35,64.36
		c-0.99,0-1.93-0.22-2.76-0.63c-2.22-1.03-3.74-3.26-3.74-5.89c0-2.99,2.02-5.51,4.77-6.26c0.54-0.16,1.14-0.24,1.73-0.24
		c3.6,0,6.5,2.92,6.5,6.5C48.84,61.45,45.95,64.36,42.35,64.36z M43.68,56.03l-1.33-2.7L41,56.03l-0.38,0.06l-2.61,0.38l2.18,2.11
		l-0.52,3.01l0.96-0.52l1.73-0.9l2.68,1.42l-0.51-3.01l2.16-2.11L43.68,56.03z M47.15,53.05c-1.23-1.23-2.93-2-4.81-2
		c-0.6,0-1.19,0.09-1.73,0.24c-2.92,0.76-5.08,3.42-5.08,6.57c0,2.52,1.37,4.72,3.4,5.89c0.99,0.6,2.16,0.92,3.4,0.92
		c3.76,0,6.8-3.04,6.8-6.8C49.15,55.98,48.4,54.27,47.15,53.05z M42.35,64.36c-0.99,0-1.93-0.22-2.76-0.63
		c-2.22-1.03-3.74-3.26-3.74-5.89c0-2.99,2.02-5.51,4.77-6.26c0.54-0.16,1.14-0.24,1.73-0.24c3.6,0,6.5,2.92,6.5,6.5
		C48.84,61.45,45.95,64.36,42.35,64.36z M43.68,56.03l-1.33-2.7L41,56.03l-0.38,0.06l-2.61,0.38l2.18,2.11l-0.52,3.01l0.96-0.52
		l1.73-0.9l2.68,1.42l-0.51-3.01l2.16-2.11L43.68,56.03z M50.81,57.85c0-0.16-0.15-0.4-0.31-0.6c-0.16-0.24-0.33-0.49-0.38-0.78
		s0.02-0.58,0.11-0.87c0.06-0.25,0.13-0.51,0.07-0.67c-0.06-0.15-0.27-0.31-0.49-0.45c-0.24-0.16-0.49-0.33-0.63-0.6
		c-0.16-0.25-0.18-0.56-0.2-0.85c-0.02-0.25-0.04-0.52-0.16-0.65c-0.11-0.13-0.36-0.2-0.61-0.25c-0.27-0.09-0.58-0.16-0.79-0.34
		c-0.24-0.2-0.36-0.47-0.49-0.74c-0.09-0.24-0.22-0.47-0.36-0.56s-0.42-0.06-0.65-0.04c-0.31,0.02-0.6,0.06-0.88-0.04
		c-0.27-0.11-0.49-0.33-0.7-0.54c-0.18-0.18-0.36-0.36-0.54-0.4c-0.15-0.02-0.38,0.07-0.61,0.2c-0.27,0.13-0.54,0.25-0.85,0.25
		c-0.04,0-0.09,0-0.13-0.02c-0.25-0.02-0.49-0.13-0.72-0.24s-0.47-0.22-0.63-0.2c-0.15,0.04-0.31,0.16-0.47,0.33
		c-0.02,0.04-0.04,0.06-0.07,0.07c-0.2,0.22-0.42,0.43-0.69,0.54c-0.29,0.09-0.58,0.06-0.87,0.04c-0.27-0.02-0.52-0.04-0.67,0.04
		c-0.16,0.09-0.25,0.33-0.38,0.56c-0.11,0.27-0.24,0.54-0.47,0.74c-0.22,0.18-0.52,0.25-0.81,0.34c-0.24,0.06-0.49,0.13-0.6,0.25
		c-0.13,0.13-0.15,0.4-0.16,0.65c-0.02,0.29-0.06,0.6-0.2,0.85c-0.15,0.27-0.4,0.43-0.63,0.6c-0.22,0.15-0.43,0.29-0.49,0.45
		c-0.07,0.16,0,0.42,0.07,0.67c0.07,0.29,0.16,0.58,0.11,0.87c-0.06,0.29-0.22,0.54-0.4,0.78c-0.15,0.2-0.31,0.43-0.31,0.6
		c0,0.18,0.16,0.42,0.31,0.61c0.18,0.25,0.34,0.49,0.4,0.78s-0.04,0.58-0.11,0.88c-0.07,0.24-0.15,0.49-0.07,0.63
		c0.06,0.16,0.27,0.33,0.49,0.47c0.24,0.16,0.49,0.34,0.63,0.6c0.15,0.25,0.18,0.56,0.2,0.85c0.02,0.25,0.04,0.52,0.15,0.65
		c0.13,0.13,0.38,0.2,0.61,0.25c0.18,0.06,0.38,0.11,0.54,0.18c0.11,0.06,0.2,0.11,0.27,0.18c0.24,0.18,0.36,0.45,0.47,0.72
		c0.11,0.24,0.22,0.47,0.38,0.56c0.11,0.07,0.31,0.07,0.51,0.06c0.06,0,0.11-0.02,0.16-0.02c0.29-0.02,0.58-0.06,0.87,0.06
		c0.13,0.04,0.24,0.11,0.34,0.2c0.13,0.09,0.24,0.22,0.34,0.33c0.18,0.18,0.38,0.36,0.54,0.4c0.16,0.04,0.4-0.09,0.63-0.18
		c0.2-0.11,0.4-0.2,0.61-0.24c0.07-0.04,0.16-0.04,0.24-0.04c0.31,0,0.58,0.15,0.85,0.27c0.02,0,0.04,0.02,0.06,0.02
		c0.2,0.09,0.42,0.2,0.56,0.16c0.18-0.04,0.36-0.22,0.54-0.4c0.22-0.22,0.43-0.43,0.7-0.52c0.29-0.11,0.58-0.07,0.88-0.06
		c0.24,0.04,0.51,0.06,0.65-0.04c0.04-0.02,0.06-0.04,0.09-0.06c0.11-0.13,0.2-0.31,0.27-0.51c0.13-0.27,0.25-0.54,0.49-0.72
		c0.22-0.2,0.52-0.27,0.79-0.36c0.25-0.06,0.51-0.13,0.61-0.25c0.11-0.13,0.15-0.4,0.16-0.65c0.02-0.29,0.04-0.6,0.2-0.85
		c0.15-0.25,0.4-0.43,0.63-0.6c0.22-0.15,0.43-0.29,0.49-0.47c0.06-0.15-0.02-0.4-0.07-0.63c-0.09-0.31-0.16-0.6-0.11-0.88
		c0.06-0.29,0.22-0.52,0.38-0.78C50.67,58.26,50.81,58.03,50.81,57.85z M42.35,65.08h-0.15c-1.51-0.02-2.9-0.52-4.05-1.35
		c-1.84-1.3-3.04-3.46-3.04-5.89c0-3.38,2.34-6.23,5.49-7.02c0.54-0.13,1.14-0.2,1.73-0.2h0.02c4,0,7.22,3.24,7.22,7.22
		C49.57,61.84,46.34,65.08,42.35,65.08z M42.35,51.05c-0.6,0-1.19,0.09-1.73,0.24c-2.92,0.76-5.08,3.42-5.08,6.57
		c0,2.52,1.37,4.72,3.4,5.89c0.99,0.6,2.16,0.92,3.4,0.92c3.76,0,6.8-3.04,6.8-6.8c0-1.87-0.76-3.58-2-4.81
		C45.93,51.82,44.22,51.05,42.35,51.05z M42.35,64.36c-0.99,0-1.93-0.22-2.76-0.63c-2.22-1.03-3.74-3.26-3.74-5.89
		c0-2.99,2.02-5.51,4.77-6.26c0.54-0.16,1.14-0.24,1.73-0.24c3.6,0,6.5,2.92,6.5,6.5C48.84,61.45,45.95,64.36,42.35,64.36z
		 M43.68,56.03l-1.33-2.7L41,56.03l-0.38,0.06l-2.61,0.38l2.18,2.11l-0.52,3.01l0.96-0.52l1.73-0.9l2.68,1.42l-0.51-3.01l2.16-2.11
		L43.68,56.03z M39.44,9.97H16.22c-2.36,0-4.27,1.91-4.27,4.27v49.65c0,2.36,1.91,4.27,4.27,4.27h20.44l1.57-2.31
		c-0.16,0-0.29-0.06-0.42-0.13c-0.11-0.06-0.2-0.15-0.27-0.24c-0.16-0.18-0.25-0.4-0.34-0.6c-0.09-0.2-0.2-0.42-0.31-0.52
		c-0.13-0.11-0.36-0.16-0.58-0.22c-0.29-0.07-0.63-0.16-0.87-0.42c-0.02,0-0.04-0.02-0.06-0.04c-0.24-0.29-0.27-0.67-0.29-0.99
		c-0.02-0.24-0.04-0.47-0.13-0.6c-0.07-0.15-0.27-0.29-0.45-0.4c-0.27-0.2-0.6-0.42-0.72-0.76s-0.02-0.7,0.07-1.01
		c0.06-0.24,0.13-0.47,0.09-0.61c-0.04-0.15-0.15-0.33-0.27-0.51c0,0,0-0.02-0.02-0.02c-0.2-0.29-0.42-0.6-0.42-0.97
		c0-0.36,0.22-0.67,0.42-0.94c0.02-0.02,0.02-0.02,0.02-0.04c0.13-0.16,0.24-0.34,0.27-0.51c0.04-0.16-0.04-0.38-0.09-0.6
		c-0.09-0.33-0.2-0.69-0.07-1.03c0.13-0.34,0.45-0.56,0.72-0.74c0.18-0.15,0.38-0.27,0.45-0.42c0.09-0.13,0.11-0.36,0.13-0.6
		c0.02-0.33,0.06-0.7,0.29-0.97c0.24-0.29,0.6-0.38,0.92-0.47c0.22-0.06,0.45-0.11,0.58-0.22c0.11-0.11,0.22-0.33,0.31-0.52
		c0.15-0.31,0.31-0.65,0.61-0.83c0.31-0.18,0.69-0.15,1.01-0.11c0.24,0.02,0.47,0.04,0.63-0.02c0.15-0.06,0.31-0.22,0.45-0.38
		c0.09-0.09,0.18-0.16,0.27-0.25c0.18-0.15,0.38-0.27,0.6-0.33c0.36-0.07,0.7,0.11,0.99,0.25c0.11,0.04,0.22,0.09,0.31,0.13
		c0.11,0.04,0.2,0.07,0.29,0.07c0.16,0,0.38-0.11,0.6-0.2c0.31-0.15,0.63-0.31,0.99-0.25c0.36,0.07,0.61,0.34,0.85,0.58
		c0.16,0.16,0.33,0.33,0.47,0.38c0.16,0.06,0.4,0.04,0.61,0.02c0.34-0.04,0.72-0.07,1.03,0.11c0.33,0.18,0.47,0.52,0.61,0.83
		c0.09,0.2,0.2,0.42,0.31,0.52c0.13,0.11,0.34,0.16,0.58,0.22c0.33,0.09,0.69,0.18,0.92,0.47c0.24,0.27,0.25,0.65,0.29,0.97
		c0.02,0.24,0.04,0.47,0.13,0.61c0.07,0.13,0.27,0.25,0.45,0.4c0.29,0.18,0.6,0.4,0.72,0.74c0.11,0.34,0.02,0.7-0.07,1.03
		c-0.06,0.22-0.13,0.43-0.09,0.6c0.02,0.16,0.16,0.36,0.29,0.54c0.2,0.27,0.42,0.58,0.42,0.94c0,0.38-0.22,0.69-0.42,0.97
		c-0.13,0.18-0.27,0.36-0.29,0.52c-0.04,0.15,0.04,0.38,0.09,0.61c0.09,0.31,0.18,0.67,0.07,1.01c-0.13,0.34-0.43,0.56-0.72,0.76
		c-0.18,0.13-0.38,0.25-0.45,0.4c-0.09,0.13-0.11,0.36-0.13,0.6c-0.04,0.33-0.06,0.7-0.29,0.99c-0.24,0.27-0.6,0.36-0.92,0.45
		c-0.24,0.06-0.45,0.11-0.58,0.22c-0.11,0.11-0.22,0.33-0.31,0.52c-0.13,0.27-0.25,0.56-0.49,0.76h-0.02l1.68,2.49
		c2.23-0.13,4-1.98,4-4.25V24.85C42.82,24.86,38.64,16.27,39.44,9.97z M17.45,23.44h14.47v1.46H17.45V23.44z M17.45,37.8H39v1.46
		H17.45V37.8z M27.65,57.99h-10.2v-1.46h10.2C27.65,56.54,27.65,57.99,27.65,57.99z M27.65,47.81h-10.2v-1.46h10.2
		C27.65,46.35,27.65,47.81,27.65,47.81z M46,43.81H17.45v-1.46H46V43.81z M46,34.98H17.45v-1.44H46V34.98z M46,30.45H17.45v-1.46H46
		V30.45z M48.22,63.55c0.25-0.06,0.51-0.13,0.61-0.25c0.11-0.13,0.15-0.4,0.16-0.65c0.02-0.29,0.04-0.6,0.2-0.85
		c0.15-0.25,0.4-0.43,0.63-0.6c0.22-0.15,0.43-0.29,0.49-0.47c0.06-0.15-0.02-0.4-0.07-0.63c-0.09-0.31-0.16-0.6-0.11-0.88
		c0.06-0.29,0.22-0.52,0.38-0.78c0.16-0.2,0.31-0.43,0.31-0.61c0-0.16-0.15-0.4-0.31-0.6c-0.16-0.24-0.33-0.49-0.38-0.78
		c-0.06-0.29,0.02-0.58,0.11-0.87c0.06-0.25,0.13-0.51,0.07-0.67c-0.06-0.15-0.27-0.31-0.49-0.45c-0.24-0.16-0.49-0.33-0.63-0.6
		c-0.16-0.25-0.18-0.56-0.2-0.85c-0.02-0.25-0.04-0.52-0.16-0.65c-0.11-0.13-0.36-0.2-0.61-0.25c-0.27-0.09-0.58-0.16-0.79-0.34
		c-0.24-0.2-0.36-0.47-0.49-0.74c-0.09-0.24-0.22-0.47-0.36-0.56s-0.42-0.06-0.65-0.04c-0.31,0.02-0.6,0.06-0.88-0.04
		c-0.27-0.11-0.49-0.33-0.7-0.54c-0.18-0.18-0.36-0.36-0.54-0.4c-0.15-0.02-0.38,0.07-0.61,0.2c-0.27,0.13-0.54,0.25-0.85,0.25
		c-0.04,0-0.09,0-0.13-0.02c-0.25-0.02-0.49-0.13-0.72-0.24s-0.47-0.22-0.63-0.2c-0.15,0.04-0.31,0.16-0.47,0.33
		c-0.02,0.04-0.04,0.06-0.07,0.07c-0.2,0.22-0.42,0.43-0.69,0.54c-0.29,0.09-0.58,0.06-0.87,0.04c-0.27-0.02-0.52-0.04-0.67,0.04
		c-0.16,0.09-0.25,0.33-0.38,0.56c-0.11,0.27-0.24,0.54-0.47,0.74c-0.22,0.18-0.52,0.25-0.81,0.34c-0.24,0.06-0.49,0.13-0.6,0.25
		c-0.13,0.13-0.15,0.4-0.16,0.65c-0.02,0.29-0.06,0.6-0.2,0.85c-0.15,0.27-0.4,0.43-0.63,0.6c-0.22,0.15-0.43,0.29-0.49,0.45
		c-0.07,0.16,0,0.42,0.07,0.67c0.07,0.29,0.16,0.58,0.11,0.87c-0.06,0.29-0.22,0.54-0.4,0.78c-0.15,0.2-0.31,0.43-0.31,0.6
		c0,0.18,0.16,0.42,0.31,0.61c0.18,0.25,0.34,0.49,0.4,0.78s-0.04,0.58-0.11,0.88c-0.07,0.24-0.15,0.49-0.07,0.63
		c0.06,0.16,0.27,0.33,0.49,0.47c0.24,0.16,0.49,0.34,0.63,0.6c0.15,0.25,0.18,0.56,0.2,0.85c0.02,0.25,0.04,0.52,0.15,0.65
		c0.13,0.13,0.38,0.2,0.61,0.25c0.18,0.06,0.38,0.11,0.54,0.18c0.11,0.06,0.2,0.11,0.27,0.18c0.24,0.18,0.36,0.45,0.47,0.72
		c0.11,0.24,0.22,0.47,0.38,0.56c0.11,0.07,0.31,0.07,0.51,0.06c0.06,0,0.11-0.02,0.16-0.02c0.29-0.02,0.58-0.06,0.87,0.06
		c0.13,0.04,0.24,0.11,0.34,0.2c0.13,0.09,0.24,0.22,0.34,0.33c0.18,0.18,0.38,0.36,0.54,0.4c0.16,0.04,0.4-0.09,0.63-0.18
		c0.2-0.11,0.4-0.2,0.61-0.24c0.07-0.04,0.16-0.04,0.24-0.04c0.31,0,0.58,0.15,0.85,0.27c0.02,0,0.04,0.02,0.06,0.02
		c0.2,0.09,0.42,0.2,0.56,0.16c0.18-0.04,0.36-0.22,0.54-0.4c0.22-0.22,0.43-0.43,0.7-0.52c0.29-0.11,0.58-0.07,0.88-0.06
		c0.24,0.04,0.51,0.06,0.65-0.04c0.04-0.02,0.06-0.04,0.09-0.06c0.11-0.13,0.2-0.31,0.27-0.51c0.13-0.27,0.25-0.54,0.49-0.72
		C47.64,63.72,47.95,63.64,48.22,63.55z M42.35,65.08h-0.15c-1.51-0.02-2.9-0.52-4.05-1.35c-1.84-1.3-3.04-3.46-3.04-5.89
		c0-3.38,2.34-6.23,5.49-7.02c0.54-0.13,1.14-0.2,1.73-0.2h0.02c4,0,7.22,3.24,7.22,7.22C49.57,61.84,46.34,65.08,42.35,65.08z
		 M47.15,53.05c-1.23-1.23-2.93-2-4.81-2c-0.6,0-1.19,0.09-1.73,0.24c-2.92,0.76-5.08,3.42-5.08,6.57c0,2.52,1.37,4.72,3.4,5.89
		c0.99,0.6,2.16,0.92,3.4,0.92c3.76,0,6.8-3.04,6.8-6.8C49.15,55.98,48.4,54.27,47.15,53.05z M42.35,64.36
		c-0.99,0-1.93-0.22-2.76-0.63c-2.22-1.03-3.74-3.26-3.74-5.89c0-2.99,2.02-5.51,4.77-6.26c0.54-0.16,1.14-0.24,1.73-0.24
		c3.6,0,6.5,2.92,6.5,6.5C48.84,61.45,45.95,64.36,42.35,64.36z M43.68,56.03l-1.33-2.7L41,56.03l-0.38,0.06l-2.61,0.38l2.18,2.11
		l-0.52,3.01l0.96-0.52l1.73-0.9l2.68,1.42l-0.51-3.01l2.16-2.11L43.68,56.03z M42.93,66.56c-0.15-0.07-0.29-0.15-0.43-0.18
		l-0.7,1.77h1.82l-0.63-1.57C42.96,66.56,42.94,66.56,42.93,66.56z M46.69,56.47l-3.01-0.43l-1.33-2.7L41,56.04l-0.38,0.06
		l-2.61,0.38l2.18,2.11l-0.52,3.01l0.96-0.52l1.73-0.9l2.68,1.42l-0.51-3.01L46.69,56.47z M46.69,56.47l-3.01-0.43l-1.33-2.7
		L41,56.04l-0.38,0.06l-2.61,0.38l2.18,2.11l-0.52,3.01l0.96-0.52l1.73-0.9l2.68,1.42l-0.51-3.01L46.69,56.47z M47.15,53.05
		c-1.23-1.23-2.93-2-4.81-2c-0.6,0-1.19,0.09-1.73,0.24c-2.92,0.76-5.08,3.42-5.08,6.57c0,2.52,1.37,4.72,3.4,5.89
		c0.99,0.6,2.16,0.92,3.4,0.92c3.76,0,6.8-3.04,6.8-6.8C49.15,55.98,48.4,54.27,47.15,53.05z M42.35,64.36
		c-0.99,0-1.93-0.22-2.76-0.63c-2.22-1.03-3.74-3.26-3.74-5.89c0-2.99,2.02-5.51,4.77-6.26c0.54-0.16,1.14-0.24,1.73-0.24
		c3.6,0,6.5,2.92,6.5,6.5C48.84,61.45,45.95,64.36,42.35,64.36z M43.68,56.03l-1.33-2.7L41,56.03l-0.38,0.06l-2.61,0.38l2.18,2.11
		l-0.52,3.01l0.96-0.52l1.73-0.9l2.68,1.42l-0.51-3.01l2.16-2.11L43.68,56.03z M47.15,53.05c-1.23-1.23-2.93-2-4.81-2
		c-0.6,0-1.19,0.09-1.73,0.24c-2.92,0.76-5.08,3.42-5.08,6.57c0,2.52,1.37,4.72,3.4,5.89c0.99,0.6,2.16,0.92,3.4,0.92
		c3.76,0,6.8-3.04,6.8-6.8C49.15,55.98,48.4,54.27,47.15,53.05z M42.35,64.36c-0.99,0-1.93-0.22-2.76-0.63
		c-2.22-1.03-3.74-3.26-3.74-5.89c0-2.99,2.02-5.51,4.77-6.26c0.54-0.16,1.14-0.24,1.73-0.24c3.6,0,6.5,2.92,6.5,6.5
		C48.84,61.45,45.95,64.36,42.35,64.36z M43.68,56.03l-1.33-2.7L41,56.03l-0.38,0.06l-2.61,0.38l2.18,2.11l-0.52,3.01l0.96-0.52
		l1.73-0.9l2.68,1.42l-0.51-3.01l2.16-2.11L43.68,56.03z M50.81,57.85c0-0.16-0.15-0.4-0.31-0.6c-0.16-0.24-0.33-0.49-0.38-0.78
		s0.02-0.58,0.11-0.87c0.06-0.25,0.13-0.51,0.07-0.67c-0.06-0.15-0.27-0.31-0.49-0.45c-0.24-0.16-0.49-0.33-0.63-0.6
		c-0.16-0.25-0.18-0.56-0.2-0.85c-0.02-0.25-0.04-0.52-0.16-0.65c-0.11-0.13-0.36-0.2-0.61-0.25c-0.27-0.09-0.58-0.16-0.79-0.34
		c-0.24-0.2-0.36-0.47-0.49-0.74c-0.09-0.24-0.22-0.47-0.36-0.56s-0.42-0.06-0.65-0.04c-0.31,0.02-0.6,0.06-0.88-0.04
		c-0.27-0.11-0.49-0.33-0.7-0.54c-0.18-0.18-0.36-0.36-0.54-0.4c-0.15-0.02-0.38,0.07-0.61,0.2c-0.27,0.13-0.54,0.25-0.85,0.25
		c-0.04,0-0.09,0-0.13-0.02c-0.25-0.02-0.49-0.13-0.72-0.24s-0.47-0.22-0.63-0.2c-0.15,0.04-0.31,0.16-0.47,0.33
		c-0.02,0.04-0.04,0.06-0.07,0.07c-0.2,0.22-0.42,0.43-0.69,0.54c-0.29,0.09-0.58,0.06-0.87,0.04c-0.27-0.02-0.52-0.04-0.67,0.04
		c-0.16,0.09-0.25,0.33-0.38,0.56c-0.11,0.27-0.24,0.54-0.47,0.74c-0.22,0.18-0.52,0.25-0.81,0.34c-0.24,0.06-0.49,0.13-0.6,0.25
		c-0.13,0.13-0.15,0.4-0.16,0.65c-0.02,0.29-0.06,0.6-0.2,0.85c-0.15,0.27-0.4,0.43-0.63,0.6c-0.22,0.15-0.43,0.29-0.49,0.45
		c-0.07,0.16,0,0.42,0.07,0.67c0.07,0.29,0.16,0.58,0.11,0.87c-0.06,0.29-0.22,0.54-0.4,0.78c-0.15,0.2-0.31,0.43-0.31,0.6
		c0,0.18,0.16,0.42,0.31,0.61c0.18,0.25,0.34,0.49,0.4,0.78s-0.04,0.58-0.11,0.88c-0.07,0.24-0.15,0.49-0.07,0.63
		c0.06,0.16,0.27,0.33,0.49,0.47c0.24,0.16,0.49,0.34,0.63,0.6c0.15,0.25,0.18,0.56,0.2,0.85c0.02,0.25,0.04,0.52,0.15,0.65
		c0.13,0.13,0.38,0.2,0.61,0.25c0.18,0.06,0.38,0.11,0.54,0.18c0.11,0.06,0.2,0.11,0.27,0.18c0.24,0.18,0.36,0.45,0.47,0.72
		c0.11,0.24,0.22,0.47,0.38,0.56c0.11,0.07,0.31,0.07,0.51,0.06c0.06,0,0.11-0.02,0.16-0.02c0.29-0.02,0.58-0.06,0.87,0.06
		c0.13,0.04,0.24,0.11,0.34,0.2c0.13,0.09,0.24,0.22,0.34,0.33c0.18,0.18,0.38,0.36,0.54,0.4c0.16,0.04,0.4-0.09,0.63-0.18
		c0.2-0.11,0.4-0.2,0.61-0.24c0.07-0.04,0.16-0.04,0.24-0.04c0.31,0,0.58,0.15,0.85,0.27c0.02,0,0.04,0.02,0.06,0.02
		c0.2,0.09,0.42,0.2,0.56,0.16c0.18-0.04,0.36-0.22,0.54-0.4c0.22-0.22,0.43-0.43,0.7-0.52c0.29-0.11,0.58-0.07,0.88-0.06
		c0.24,0.04,0.51,0.06,0.65-0.04c0.04-0.02,0.06-0.04,0.09-0.06c0.11-0.13,0.2-0.31,0.27-0.51c0.13-0.27,0.25-0.54,0.49-0.72
		c0.22-0.2,0.52-0.27,0.79-0.36c0.25-0.06,0.51-0.13,0.61-0.25c0.11-0.13,0.15-0.4,0.16-0.65c0.02-0.29,0.04-0.6,0.2-0.85
		c0.15-0.25,0.4-0.43,0.63-0.6c0.22-0.15,0.43-0.29,0.49-0.47c0.06-0.15-0.02-0.4-0.07-0.63c-0.09-0.31-0.16-0.6-0.11-0.88
		c0.06-0.29,0.22-0.52,0.38-0.78C50.67,58.26,50.81,58.03,50.81,57.85z M42.35,65.08h-0.15c-1.51-0.02-2.9-0.52-4.05-1.35
		c-1.84-1.3-3.04-3.46-3.04-5.89c0-3.38,2.34-6.23,5.49-7.02c0.54-0.13,1.14-0.2,1.73-0.2h0.02c4,0,7.22,3.24,7.22,7.22
		C49.57,61.84,46.34,65.08,42.35,65.08z M42.35,51.05c-0.6,0-1.19,0.09-1.73,0.24c-2.92,0.76-5.08,3.42-5.08,6.57
		c0,2.52,1.37,4.72,3.4,5.89c0.99,0.6,2.16,0.92,3.4,0.92c3.76,0,6.8-3.04,6.8-6.8c0-1.87-0.76-3.58-2-4.81
		C45.93,51.82,44.22,51.05,42.35,51.05z M42.35,64.36c-0.99,0-1.93-0.22-2.76-0.63c-2.22-1.03-3.74-3.26-3.74-5.89
		c0-2.99,2.02-5.51,4.77-6.26c0.54-0.16,1.14-0.24,1.73-0.24c3.6,0,6.5,2.92,6.5,6.5C48.84,61.45,45.95,64.36,42.35,64.36z
		 M43.68,56.03l-1.33-2.7L41,56.03l-0.38,0.06l-2.61,0.38l2.18,2.11l-0.52,3.01l0.96-0.52l1.73-0.9l2.68,1.42l-0.51-3.01l2.16-2.11
		L43.68,56.03z M46.69,56.47l-3.01-0.43l-1.33-2.7L41,56.04l-0.38,0.06l-2.61,0.38l2.18,2.11l-0.52,3.01l0.96-0.52l1.73-0.9
		l2.68,1.42l-0.51-3.01L46.69,56.47z M46.69,56.47l-3.01-0.43l-1.33-2.7L41,56.04l-0.38,0.06l-2.61,0.38l2.18,2.11l-0.52,3.01
		l0.96-0.52l1.73-0.9l2.68,1.42l-0.51-3.01L46.69,56.47z M47.15,53.05c-1.23-1.23-2.93-2-4.81-2c-0.6,0-1.19,0.09-1.73,0.24
		c-2.92,0.76-5.08,3.42-5.08,6.57c0,2.52,1.37,4.72,3.4,5.89c0.99,0.6,2.16,0.92,3.4,0.92c3.76,0,6.8-3.04,6.8-6.8
		C49.15,55.98,48.4,54.27,47.15,53.05z M42.35,64.36c-0.99,0-1.93-0.22-2.76-0.63c-2.22-1.03-3.74-3.26-3.74-5.89
		c0-2.99,2.02-5.51,4.77-6.26c0.54-0.16,1.14-0.24,1.73-0.24c3.6,0,6.5,2.92,6.5,6.5C48.84,61.45,45.95,64.36,42.35,64.36z
		 M43.68,56.03l-1.33-2.7L41,56.03l-0.38,0.06l-2.61,0.38l2.18,2.11l-0.52,3.01l0.96-0.52l1.73-0.9l2.68,1.42l-0.51-3.01l2.16-2.11
		L43.68,56.03z M47.15,53.05c-1.23-1.23-2.93-2-4.81-2c-0.6,0-1.19,0.09-1.73,0.24c-2.92,0.76-5.08,3.42-5.08,6.57
		c0,2.52,1.37,4.72,3.4,5.89c0.99,0.6,2.16,0.92,3.4,0.92c3.76,0,6.8-3.04,6.8-6.8C49.15,55.98,48.4,54.27,47.15,53.05z
		 M42.35,64.36c-0.99,0-1.93-0.22-2.76-0.63c-2.22-1.03-3.74-3.26-3.74-5.89c0-2.99,2.02-5.51,4.77-6.26
		c0.54-0.16,1.14-0.24,1.73-0.24c3.6,0,6.5,2.92,6.5,6.5C48.84,61.45,45.95,64.36,42.35,64.36z M43.68,56.03l-1.33-2.7L41,56.03
		l-0.38,0.06l-2.61,0.38l2.18,2.11l-0.52,3.01l0.96-0.52l1.73-0.9l2.68,1.42l-0.51-3.01l2.16-2.11L43.68,56.03z M50.81,57.85
		c0-0.16-0.15-0.4-0.31-0.6c-0.16-0.24-0.33-0.49-0.38-0.78s0.02-0.58,0.11-0.87c0.06-0.25,0.13-0.51,0.07-0.67
		c-0.06-0.15-0.27-0.31-0.49-0.45c-0.24-0.16-0.49-0.33-0.63-0.6c-0.16-0.25-0.18-0.56-0.2-0.85c-0.02-0.25-0.04-0.52-0.16-0.65
		c-0.11-0.13-0.36-0.2-0.61-0.25c-0.27-0.09-0.58-0.16-0.79-0.34c-0.24-0.2-0.36-0.47-0.49-0.74c-0.09-0.24-0.22-0.47-0.36-0.56
		s-0.42-0.06-0.65-0.04c-0.31,0.02-0.6,0.06-0.88-0.04c-0.27-0.11-0.49-0.33-0.7-0.54c-0.18-0.18-0.36-0.36-0.54-0.4
		c-0.15-0.02-0.38,0.07-0.61,0.2c-0.27,0.13-0.54,0.25-0.85,0.25c-0.04,0-0.09,0-0.13-0.02c-0.25-0.02-0.49-0.13-0.72-0.24
		s-0.47-0.22-0.63-0.2c-0.15,0.04-0.31,0.16-0.47,0.33c-0.02,0.04-0.04,0.06-0.07,0.07c-0.2,0.22-0.42,0.43-0.69,0.54
		c-0.29,0.09-0.58,0.06-0.87,0.04c-0.27-0.02-0.52-0.04-0.67,0.04c-0.16,0.09-0.25,0.33-0.38,0.56c-0.11,0.27-0.24,0.54-0.47,0.74
		c-0.22,0.18-0.52,0.25-0.81,0.34c-0.24,0.06-0.49,0.13-0.6,0.25c-0.13,0.13-0.15,0.4-0.16,0.65c-0.02,0.29-0.06,0.6-0.2,0.85
		c-0.15,0.27-0.4,0.43-0.63,0.6c-0.22,0.15-0.43,0.29-0.49,0.45c-0.07,0.16,0,0.42,0.07,0.67c0.07,0.29,0.16,0.58,0.11,0.87
		c-0.06,0.29-0.22,0.54-0.4,0.78c-0.15,0.2-0.31,0.43-0.31,0.6c0,0.18,0.16,0.42,0.31,0.61c0.18,0.25,0.34,0.49,0.4,0.78
		s-0.04,0.58-0.11,0.88c-0.07,0.24-0.15,0.49-0.07,0.63c0.06,0.16,0.27,0.33,0.49,0.47c0.24,0.16,0.49,0.34,0.63,0.6
		c0.15,0.25,0.18,0.56,0.2,0.85c0.02,0.25,0.04,0.52,0.15,0.65c0.13,0.13,0.38,0.2,0.61,0.25c0.18,0.06,0.38,0.11,0.54,0.18
		c0.11,0.06,0.2,0.11,0.27,0.18c0.24,0.18,0.36,0.45,0.47,0.72c0.11,0.24,0.22,0.47,0.38,0.56c0.11,0.07,0.31,0.07,0.51,0.06
		c0.06,0,0.11-0.02,0.16-0.02c0.29-0.02,0.58-0.06,0.87,0.06c0.13,0.04,0.24,0.11,0.34,0.2c0.13,0.09,0.24,0.22,0.34,0.33
		c0.18,0.18,0.38,0.36,0.54,0.4c0.16,0.04,0.4-0.09,0.63-0.18c0.2-0.11,0.4-0.2,0.61-0.24c0.07-0.04,0.16-0.04,0.24-0.04
		c0.31,0,0.58,0.15,0.85,0.27c0.02,0,0.04,0.02,0.06,0.02c0.2,0.09,0.42,0.2,0.56,0.16c0.18-0.04,0.36-0.22,0.54-0.4
		c0.22-0.22,0.43-0.43,0.7-0.52c0.29-0.11,0.58-0.07,0.88-0.06c0.24,0.04,0.51,0.06,0.65-0.04c0.04-0.02,0.06-0.04,0.09-0.06
		c0.11-0.13,0.2-0.31,0.27-0.51c0.13-0.27,0.25-0.54,0.49-0.72c0.22-0.2,0.52-0.27,0.79-0.36c0.25-0.06,0.51-0.13,0.61-0.25
		c0.11-0.13,0.15-0.4,0.16-0.65c0.02-0.29,0.04-0.6,0.2-0.85c0.15-0.25,0.4-0.43,0.63-0.6c0.22-0.15,0.43-0.29,0.49-0.47
		c0.06-0.15-0.02-0.4-0.07-0.63c-0.09-0.31-0.16-0.6-0.11-0.88c0.06-0.29,0.22-0.52,0.38-0.78C50.67,58.26,50.81,58.03,50.81,57.85z
		 M42.35,65.08h-0.15c-1.51-0.02-2.9-0.52-4.05-1.35c-1.84-1.3-3.04-3.46-3.04-5.89c0-3.38,2.34-6.23,5.49-7.02
		c0.54-0.13,1.14-0.2,1.73-0.2h0.02c4,0,7.22,3.24,7.22,7.22C49.57,61.84,46.34,65.08,42.35,65.08z M42.35,51.05
		c-0.6,0-1.19,0.09-1.73,0.24c-2.92,0.76-5.08,3.42-5.08,6.57c0,2.52,1.37,4.72,3.4,5.89c0.99,0.6,2.16,0.92,3.4,0.92
		c3.76,0,6.8-3.04,6.8-6.8c0-1.87-0.76-3.58-2-4.81C45.93,51.82,44.22,51.05,42.35,51.05z M42.35,64.36c-0.99,0-1.93-0.22-2.76-0.63
		c-2.22-1.03-3.74-3.26-3.74-5.89c0-2.99,2.02-5.51,4.77-6.26c0.54-0.16,1.14-0.24,1.73-0.24c3.6,0,6.5,2.92,6.5,6.5
		C48.84,61.45,45.95,64.36,42.35,64.36z M43.68,56.03l-1.33-2.7L41,56.03l-0.38,0.06l-2.61,0.38l2.18,2.11l-0.52,3.01l0.96-0.52
		l1.73-0.9l2.68,1.42l-0.51-3.01l2.16-2.11L43.68,56.03z M46.69,56.47l-3.01-0.43l-1.33-2.7L41,56.04l-0.38,0.06l-2.61,0.38
		l2.18,2.11l-0.52,3.01l0.96-0.52l1.73-0.9l2.68,1.42l-0.51-3.01L46.69,56.47z M46.69,56.47l-3.01-0.43l-1.33-2.7L41,56.04
		l-0.38,0.06l-2.61,0.38l2.18,2.11l-0.52,3.01l0.96-0.52l1.73-0.9l2.68,1.42l-0.51-3.01L46.69,56.47z M47.15,53.05
		c-1.23-1.23-2.93-2-4.81-2c-0.6,0-1.19,0.09-1.73,0.24c-2.92,0.76-5.08,3.42-5.08,6.57c0,2.52,1.37,4.72,3.4,5.89
		c0.99,0.6,2.16,0.92,3.4,0.92c3.76,0,6.8-3.04,6.8-6.8C49.15,55.98,48.4,54.27,47.15,53.05z M42.35,64.36
		c-0.99,0-1.93-0.22-2.76-0.63c-2.22-1.03-3.74-3.26-3.74-5.89c0-2.99,2.02-5.51,4.77-6.26c0.54-0.16,1.14-0.24,1.73-0.24
		c3.6,0,6.5,2.92,6.5,6.5C48.84,61.45,45.95,64.36,42.35,64.36z M43.68,56.03l-1.33-2.7L41,56.03l-0.38,0.06l-2.61,0.38l2.18,2.11
		l-0.52,3.01l0.96-0.52l1.73-0.9l2.68,1.42l-0.51-3.01l2.16-2.11L43.68,56.03z M46.69,56.47l-3.01-0.43l-1.33-2.7L41,56.04
		l-0.38,0.06l-2.61,0.38l2.18,2.11l-0.52,3.01l0.96-0.52l1.73-0.9l2.68,1.42l-0.51-3.01L46.69,56.47z M46.69,56.47l-3.01-0.43
		l-1.33-2.7L41,56.04l-0.38,0.06l-2.61,0.38l2.18,2.11l-0.52,3.01l0.96-0.52l1.73-0.9l2.68,1.42l-0.51-3.01L46.69,56.47z
		 M47.15,53.05c-1.23-1.23-2.93-2-4.81-2c-0.6,0-1.19,0.09-1.73,0.24c-2.92,0.76-5.08,3.42-5.08,6.57c0,2.52,1.37,4.72,3.4,5.89
		c0.99,0.6,2.16,0.92,3.4,0.92c3.76,0,6.8-3.04,6.8-6.8C49.15,55.98,48.4,54.27,47.15,53.05z M42.35,64.36
		c-0.99,0-1.93-0.22-2.76-0.63c-2.22-1.03-3.74-3.26-3.74-5.89c0-2.99,2.02-5.51,4.77-6.26c0.54-0.16,1.14-0.24,1.73-0.24
		c3.6,0,6.5,2.92,6.5,6.5C48.84,61.45,45.95,64.36,42.35,64.36z M43.68,56.03l-1.33-2.7L41,56.03l-0.38,0.06l-2.61,0.38l2.18,2.11
		l-0.52,3.01l0.96-0.52l1.73-0.9l2.68,1.42l-0.51-3.01l2.16-2.11L43.68,56.03z M46.69,56.47l-3.01-0.43l-1.33-2.7L41,56.04
		l-0.38,0.06l-2.61,0.38l2.18,2.11l-0.52,3.01l0.96-0.52l1.73-0.9l2.68,1.42l-0.51-3.01L46.69,56.47z M46.69,56.47l-3.01-0.43
		l-1.33-2.7L41,56.04l-0.38,0.06l-2.61,0.38l2.18,2.11l-0.52,3.01l0.96-0.52l1.73-0.9l2.68,1.42l-0.51-3.01L46.69,56.47z
		 M46.69,56.47l-3.01-0.43l-1.33-2.7L41,56.04l-0.38,0.06l-2.61,0.38l2.18,2.11l-0.52,3.01l0.96-0.52l1.73-0.9l2.68,1.42l-0.51-3.01
		L46.69,56.47z M46.69,56.47l-3.01-0.43l-1.33-2.7L41,56.04l-0.38,0.06l-2.61,0.38l2.18,2.11l-0.52,3.01l0.96-0.52l1.73-0.9
		l2.68,1.42l-0.51-3.01L46.69,56.47z"/>
	<g id="XMLID_1253_">
		<g id="XMLID_1256_">
			<path id="XMLID_1257_" class="st0" d="M52.66,21.12c-5.73,0-10.38-4.66-10.38-10.38S46.93,0.36,52.66,0.36
				s10.38,4.66,10.38,10.38S58.39,21.12,52.66,21.12z M52.66,1.99c-4.83,0-8.75,3.93-8.75,8.75s3.93,8.75,8.75,8.75
				s8.75-3.93,8.75-8.75S57.49,1.99,52.66,1.99z"/>
		</g>
		<g id="XMLID_1254_">
			<polygon id="XMLID_1255_" class="st0" points="50.91,15.77 46.1,10.96 47.83,9.23 50.91,12.3 57.49,5.72 59.22,7.45 			"/>
		</g>
	</g>
	<g id="XMLID_1016_">
		<path id="XMLID_1020_" class="st0" d="M50.61,71l-2.9-0.42l-1.5,4.05l-2.61-6.5h4.79c0.09,0,0.18,0,0.27-0.02L50.61,71z"/>
		<polygon id="XMLID_1018_" class="st0" points="36.67,68.14 41.79,68.14 39.24,74.5 37.75,70.44 34.83,70.86 		"/>
	</g>
</g>
</svg>
