<?xml version="1.0" encoding="utf-8"?>
<!-- Generator: Adobe Illustrator 24.1.0, SVG Export Plug-In . SVG Version: 6.00 Build 0)  -->
<svg version="1.1" id="Layer_1" xmlns="http://www.w3.org/2000/svg" xmlns:xlink="http://www.w3.org/1999/xlink" x="0px" y="0px"
	 viewBox="0 0 75 75" style="enable-background:new 0 0 75 75;" xml:space="preserve">
<style type="text/css">
	.st0{fill:#FFFFFF;}
</style>
<path id="XMLID_872_" class="st0" d="M62.87,58.88V25.73h-8.58v33.15h-4.32V34.4h-8.58v24.47H37.1V39.76h-8.58v19.12h-4.29V48.1
	h-8.59v10.78H7.58v-8.45c3.74-2.08,7.26-3.92,9.34-5c0.46,0.53,1.15,0.84,1.9,0.84c1.46,0,2.63-1.17,2.63-2.63
	c0-0.82-0.37-1.57-1-2.03l2.88-5.71l7.46-1.24c0.33,1.04,1.31,1.79,2.48,1.79c1.44,0,2.61-1.17,2.61-2.63l5.89-0.97l2.37-4
	C44.4,28.95,44.71,29,45.02,29c1.44,0,2.63-1.2,2.63-2.63c0-0.8-0.35-1.51-0.91-1.97l0.64-1.09l8.12-2.32
	c0.42,0.91,1.33,1.51,2.37,1.51c1.46,0,2.63-1.17,2.63-2.63c0-0.09,0-0.2-0.02-0.29l5.44-1.55l0.64,1.75l6.22-4.69h-7.95l0.73,1.95
	l-5.42,1.55c-0.44-0.8-1.28-1.35-2.28-1.35c-1.44,0-2.63,1.2-2.63,2.63v0.11l-8.54,2.46l-0.84,1.44c-0.26-0.09-0.55-0.13-0.84-0.13
	c-1.46,0-2.63,1.17-2.63,2.63c0,0.75,0.33,1.46,0.86,1.92l-2.12,3.63l-5.44,0.91c-0.4-0.95-1.33-1.62-2.41-1.62
	c-1.4,0-2.55,1.09-2.61,2.43l-8.01,1.33l-3.1,6.15c-0.22-0.06-0.46-0.11-0.73-0.11c-1.44,0-2.61,1.2-2.61,2.63
	c0,0.31,0.06,0.62,0.15,0.91c-2.01,1.04-5.27,2.74-8.78,4.69V18.85H6.53V49.8c-2.01,1.13-4.09,2.32-6.06,3.49l0.55,0.89
	c1.77-1.06,3.65-2.15,5.51-3.19v8.92h68v-1.04H62.87z M57.88,18.32c0.46,0,0.91,0.22,1.17,0.55c0.22,0.26,0.35,0.6,0.35,0.97v0.02
	c-0.02,0.84-0.69,1.51-1.53,1.51c-0.55,0-1.02-0.29-1.28-0.71c-0.15-0.24-0.24-0.53-0.24-0.82c0-0.06,0-0.13,0.02-0.2
	C56.46,18.89,57.1,18.32,57.88,18.32z M43.49,26.35c0-0.84,0.69-1.53,1.53-1.53c0.09,0,0.15,0,0.24,0.02
	c0.35,0.06,0.69,0.24,0.91,0.51c0.24,0.26,0.37,0.62,0.37,1c0,0.84-0.69,1.53-1.53,1.53c-0.11,0-0.2,0-0.31-0.02
	c-0.35-0.09-0.66-0.29-0.89-0.55C43.62,27.04,43.49,26.71,43.49,26.35z M33.27,32.3c0.53,0,1,0.29,1.26,0.69
	c0.15,0.24,0.24,0.53,0.24,0.82c0,0.06,0,0.11-0.02,0.18c-0.06,0.75-0.73,1.35-1.48,1.35c-0.6,0-1.13-0.35-1.37-0.86
	c-0.11-0.2-0.15-0.42-0.15-0.66c0-0.11,0.02-0.24,0.04-0.35C31.94,32.81,32.56,32.3,33.27,32.3z M17.31,43.63
	c0-0.84,0.69-1.53,1.51-1.53c0.06,0,0.13,0,0.2,0.02c0.37,0.04,0.71,0.22,0.93,0.49c0.24,0.26,0.4,0.62,0.4,1.02
	c0,0.84-0.69,1.53-1.53,1.53c-0.31,0-0.62-0.11-0.86-0.29c-0.29-0.2-0.49-0.49-0.6-0.84C17.34,43.9,17.31,43.76,17.31,43.63z"/>
</svg>
