<?xml version="1.0" encoding="utf-8"?>
<!-- Generator: Adobe Illustrator 24.1.0, SVG Export Plug-In . SVG Version: 6.00 Build 0)  -->
<svg version="1.1" id="Layer_1" xmlns="http://www.w3.org/2000/svg" xmlns:xlink="http://www.w3.org/1999/xlink" x="0px" y="0px"
	 viewBox="0 0 75 75" style="enable-background:new 0 0 75 75;" xml:space="preserve">
<style type="text/css">
	.st0{fill:#FFFFFF;}
</style>
<g id="XMLID_489_">
	<polygon id="XMLID_1475_" class="st0" points="50.4,53.1 49.12,57.82 53.14,57.82 	"/>
	<path id="XMLID_1476_" class="st0" d="M74.5,47.8l-9.82,10.01h-0.58c-0.02-0.02-0.02-0.1-0.05-0.12c-0.05-0.2-0.1-0.38-0.15-0.58
		c-0.05-0.12-0.1-0.27-0.12-0.4c-0.07-0.22-0.15-0.43-0.25-0.65c-0.05-0.12-0.1-0.27-0.15-0.43c-0.1-0.25-0.22-0.5-0.35-0.75
		c-0.07-0.12-0.12-0.25-0.17-0.38c-0.2-0.38-0.43-0.78-0.68-1.16c-0.02-0.02-0.05-0.07-0.07-0.1c-0.22-0.35-0.48-0.7-0.75-1.06
		c-0.1-0.12-0.22-0.25-0.33-0.38c-0.2-0.25-0.43-0.5-0.68-0.75c-0.15-0.15-0.3-0.27-0.45-0.43c-0.17-0.15-0.33-0.33-0.53-0.48
		C63.63,46.45,70.01,46.15,74.5,47.8z"/>
	<path id="XMLID_1474_" class="st0" d="M63.16,57.82h-8.96l-3.44-5.98l-2.63-4.52c1.16,0.02,2.29,0.12,3.31,0.33
		c2.73,0.45,5.07,1.43,6.95,2.89c0.4,0.33,0.8,0.68,1.16,1.01c0.12,0.12,0.22,0.25,0.33,0.38c0.22,0.22,0.45,0.45,0.63,0.7
		c0.12,0.15,0.22,0.3,0.35,0.43c0.15,0.22,0.33,0.45,0.45,0.68c0.12,0.15,0.2,0.3,0.3,0.45c0.12,0.22,0.25,0.43,0.35,0.63
		c0.1,0.17,0.17,0.33,0.25,0.48c0.1,0.2,0.17,0.4,0.27,0.6c0.05,0.15,0.12,0.3,0.17,0.45c0.07,0.2,0.15,0.38,0.2,0.58
		c0.05,0.12,0.1,0.27,0.15,0.4C63.06,57.49,63.11,57.67,63.16,57.82z"/>
	<path id="XMLID_1478_" class="st0" d="M60.39,30.41l-9.14,16.26c-0.38-0.05-0.78-0.07-1.16-0.12c-0.22-0.02-0.43-0.05-0.68-0.07
		c-0.68-0.05-1.38-0.1-2.11-0.1h-0.8l3.24,5.6l-1.58,5.85h-1.76c-0.07-0.38-0.15-0.78-0.22-1.16c-0.1-0.45-0.17-0.9-0.27-1.33
		c-0.12-0.65-0.3-1.28-0.45-1.91c-0.1-0.38-0.17-0.75-0.27-1.13c-0.2-0.75-0.4-1.48-0.63-2.21c-0.07-0.22-0.12-0.45-0.2-0.68
		c-0.3-0.96-0.6-1.86-0.93-2.76c-0.07-0.2-0.17-0.4-0.25-0.63c-0.25-0.65-0.5-1.33-0.78-1.96c-0.12-0.33-0.27-0.6-0.43-0.9
		c-0.22-0.53-0.45-1.06-0.7-1.56c-0.15-0.3-0.33-0.63-0.5-0.93c-0.22-0.45-0.48-0.93-0.73-1.35c-0.17-0.33-0.35-0.6-0.55-0.93
		c-0.2-0.35-0.43-0.7-0.63-1.06C43.55,32.99,54.14,30.84,60.39,30.41z"/>
	<path id="XMLID_1480_" class="st0" d="M45.48,57.82H22.74l-0.68-2.19l-9.24-30.35c2.68-0.4,15.84-1.56,25.03,12.25
		c0.45,0.68,0.9,1.38,1.3,2.11c0.15,0.22,0.27,0.5,0.43,0.75c0.25,0.5,0.53,0.98,0.8,1.5c0.15,0.3,0.27,0.63,0.43,0.96
		c0.22,0.48,0.45,0.96,0.68,1.45c0.15,0.35,0.3,0.73,0.45,1.11c0.2,0.48,0.38,0.96,0.58,1.45c0.12,0.38,0.27,0.8,0.4,1.21
		c0.17,0.5,0.35,0.98,0.5,1.5c0.15,0.43,0.27,0.85,0.4,1.3c0.15,0.5,0.3,1.03,0.43,1.56c0.12,0.45,0.25,0.93,0.35,1.4
		c0.12,0.53,0.27,1.06,0.38,1.61c0.12,0.48,0.22,1.01,0.33,1.5C45.36,57.25,45.41,57.54,45.48,57.82z"/>
	<path id="XMLID_1477_" class="st0" d="M21.76,57.82h-4.54l-0.17-0.3L8.76,42.39l-3.21-5.88c1.73-0.22,6.58-0.58,10.22,1.66
		L21.76,57.82z"/>
	<path id="XMLID_1482_" class="st0" d="M16.16,57.82h-5.72C7.6,53.68,2.1,48.76,0.5,47.36c1.3-0.93,5.09-3.47,7.76-3.96l6.75,12.33
		L16.16,57.82z"/>
	<path id="XMLID_1467_" class="st0" d="M54.77,61.32c-4.08,0.32-8.31,0.67-16.63,0.67c-8.31,0-12.54-0.34-16.62-0.67
		C17.5,61,13.34,60.66,5.3,60.65H4.83v0.93H5.3c8,0.01,12.14,0.34,16.15,0.67c2,0.16,4.03,0.32,6.56,0.44
		c2.65,0.13,5.86,0.22,10.13,0.22c4.28,0,7.48-0.09,10.14-0.22c2.52-0.12,4.56-0.28,6.56-0.44c3.61-0.29,7.32-0.58,13.84-0.65
		c0.88-0.01,1.8-0.02,2.79-0.02v-0.93c-0.99,0-1.92,0.01-2.79,0.02C62.12,60.73,58.39,61.03,54.77,61.32z"/>
	<path id="XMLID_1466_" class="st0" d="M5.3,62.49c3.99,0.02,7.03,0.1,9.59,0.22v0.93c-2.53-0.12-5.57-0.2-9.59-0.22H4.83v-0.93H5.3
		z"/>
	<path id="XMLID_1465_" class="st0" d="M17.2,62.84c1.16,0.07,2.19,0.15,3.21,0.22V64c-1.03-0.07-2.08-0.15-3.21-0.22V62.84z"/>
	<path id="XMLID_1464_" class="st0" d="M54.76,63.17c1.13-0.1,2.26-0.17,3.49-0.27v0.93c-1.21,0.1-2.31,0.17-3.42,0.27
		c-2.01,0.15-4.04,0.33-6.55,0.43c-2.66,0.15-5.85,0.22-10.14,0.22c-4.27,0-7.48-0.07-10.11-0.22c-2.53-0.1-4.57-0.27-6.58-0.43
		c-0.12,0-0.25-0.02-0.38-0.02v-0.93c0.15,0,0.3,0.02,0.45,0.02c4.09,0.33,8.31,0.65,16.62,0.65S50.69,63.5,54.76,63.17z"/>
	<path id="XMLID_1463_" class="st0" d="M71.45,62.49v0.93c-0.98,0-1.91,0.02-2.79,0.02c-1.91,0.02-3.57,0.05-5.04,0.1v-0.93
		c1.48-0.05,3.14-0.07,5.04-0.1C69.54,62.51,70.47,62.49,71.45,62.49z"/>
	<path id="XMLID_1455_" class="st0" d="M37.56,10.25c-4.03,0-7.29,3.26-7.29,7.29c0,6.03,7.29,12.69,7.29,12.69s7.29-6.6,7.29-12.69
		C44.85,13.51,41.58,10.25,37.56,10.25z M37.56,21.57c-2.41,0-4.35-1.95-4.35-4.35c0-2.41,1.95-4.35,4.35-4.35
		c2.41,0,4.35,1.95,4.35,4.35C41.92,19.63,39.97,21.57,37.56,21.57z"/>
	<path id="XMLID_1454_" class="st0" d="M37.56,15.71c-1.25-1.78-4.26,0.04-2.33,2.69c0.72,1.07,2.33,1.92,2.33,1.92
		s1.61-0.85,2.33-1.92C41.82,15.75,38.81,13.93,37.56,15.71z"/>
	<path id="XMLID_1468_" class="st0" d="M5.3,58.48H4.83v0.93v0.7h17.01c1.88,0.15,3.81,0.3,6.18,0.41
		c2.65,0.13,5.86,0.22,10.13,0.22c4.28,0,7.48-0.09,10.14-0.22c2.37-0.11,4.29-0.26,6.18-0.41h17.01v-0.7v-0.93H5.3z"/>
</g>
</svg>
