<?xml version="1.0" encoding="utf-8"?>
<!-- Generator: Adobe Illustrator 24.1.0, SVG Export Plug-In . SVG Version: 6.00 Build 0)  -->
<svg version="1.1" id="Layer_1" xmlns="http://www.w3.org/2000/svg" xmlns:xlink="http://www.w3.org/1999/xlink" x="0px" y="0px"
	 viewBox="0 0 75 75" style="enable-background:new 0 0 75 75;" xml:space="preserve">
<style type="text/css">
	.st0{fill:#FFFFFF;}
</style>
<g id="XMLID_188_">
	<path id="XMLID_189_" class="st0" d="M10.31,26.83c0,1.92,1.56,3.49,3.49,3.49s3.49-1.56,3.49-3.49s-1.56-3.49-3.49-3.49
		C11.88,23.34,10.31,24.9,10.31,26.83z"/>
	<path id="XMLID_1500_" class="st0" d="M26.27,47.23h-8.99v-9.57l9.24,3.65l0.84-2.13l-10.08-3.98v-0.31c0-1.92-1.56-3.49-3.49-3.49
		l0,0c-1.92,0-3.49,1.56-3.49,3.49v12.34v3.98H7.53V38.32c0-0.8-0.65-1.44-1.44-1.44s-1.44,0.65-1.44,1.44v12.89v1.89L0.53,65.46
		l2.26,0.76L6.9,53.9h0.63h9.92l4.27,12.34l2.26-0.78l-4-11.55h1.82v-2.69h2.76l6.26,13.94l2.91-1.3l-7.45-16.59V47.23z"/>
	<path id="XMLID_1501_" class="st0" d="M74.28,65.46l-4.12-12.36v-1.89V38.32c0-0.8-0.65-1.44-1.44-1.44
		c-0.79,0-1.44,0.65-1.44,1.44v12.89h-2.79v-3.98V34.88c0-1.92-1.56-3.49-3.49-3.49s-3.49,1.56-3.49,3.49v0.31l-10.08,3.98
		l0.84,2.13l9.24-3.65v9.57h-8.99v0.03l-7.44,16.59l2.91,1.3l6.26-13.94h2.76v2.69h1.82l-4,11.55l2.26,0.78l4.27-12.34h9.92h0.63
		l4.11,12.32L74.28,65.46z"/>
	<path id="XMLID_1502_" class="st0" d="M57.52,26.83c0,1.92,1.56,3.49,3.49,3.49s3.49-1.56,3.49-3.49s-1.56-3.49-3.49-3.49
		C59.08,23.34,57.52,24.9,57.52,26.83z"/>
	<rect id="XMLID_1503_" x="24.26" y="42.25" class="st0" width="26.56" height="2.59"/>
	<rect id="XMLID_1504_" x="35.8" y="45.84" class="st0" width="4.08" height="20.39"/>
	<path id="XMLID_1508_" class="st0" d="M69.88,12.66H58.93c-1.82,0-3.31,1.49-3.31,3.31v3.06c0,0.48,0.12,0.95,0.34,1.38
		c0.16,0.33,0.16,0.73-0.03,1.04l-1.67,2.68c-0.2,0.33,0.15,0.72,0.5,0.54l3.93-2.03c0.39-0.2,0.82-0.3,1.25-0.3h9.94
		c1.83,0,3.31-1.49,3.31-3.31v-3.06C73.19,14.14,71.71,12.66,69.88,12.66z M72.4,19.02c0,1.39-1.12,2.51-2.51,2.51h-9.77
		c-0.33,0-0.8-0.02-1.12,0.07c-0.37,0.12-0.75,0.38-1.12,0.54c-0.05,0.03-0.1,0.05-0.14,0.07h0l-1.99,1.03l0.82-1.31
		c0,0,0,0,0.01-0.02l0.07-0.12c0.01-0.01,0.02-0.02,0.02-0.03c0.14-0.26,0.46-0.82,0.14-1.42c-0.25-0.4-0.38-0.86-0.38-1.33v-3.06
		c0-1.38,1.13-2.51,2.51-2.51h10.95c1.39,0,2.51,1.12,2.51,2.51L72.4,19.02L72.4,19.02z"/>
	<rect id="XMLID_1510_" x="58.29" y="15.43" class="st0" width="3.69" height="0.8"/>
	<rect id="XMLID_1511_" x="58.29" y="17.12" class="st0" width="9.39" height="0.8"/>
	<rect id="XMLID_1512_" x="58.29" y="19.18" class="st0" width="11.61" height="0.8"/>
	<path id="XMLID_1515_" class="st0" d="M18.52,21.36c-0.16-0.25-0.17-0.57-0.04-0.84c0.22-0.43,0.4-0.88,0.4-1.37v-3.19
		c0-1.82-1.48-3.3-3.3-3.3H4.62c-1.82,0-3.3,1.48-3.3,3.3v3.06c0,1.82,1.49,3.31,3.31,3.31H15c0.15,0,0.3,0.03,0.44,0.1l4.17,2.16
		c0.38,0.2,0.78-0.23,0.55-0.6L18.52,21.36z M17.28,22.5l-1.75-0.84c-0.15-0.08-0.33-0.12-0.5-0.12H4.62c-1.38,0-2.5-1.12-2.5-2.5
		v-3.07c0-1.38,1.13-2.5,2.5-2.5h10.96c1.38,0,2.5,1.13,2.5,2.5v2.9c0,0.41-0.07,0.82-0.23,1.2c-0.13,0.33-0.22,0.35-0.23,0.42
		c-0.22,0.37-0.05,0.81,0.08,1.06c0.07,0.12,0.13,0.2,0.13,0.2l0.94,1.51L17.28,22.5C17.29,22.5,17.28,22.5,17.28,22.5z"/>
	<polygon class="st0" points="13.57,15.41 9.02,19.97 6.14,17.08 7.27,15.96 9.02,17.71 12.44,14.29 	"/>
</g>
</svg>
