<?xml version="1.0" encoding="utf-8"?>
<!-- Generator: Adobe Illustrator 24.1.0, SVG Export Plug-In . SVG Version: 6.00 Build 0)  -->
<svg version="1.1" id="Layer_1" xmlns="http://www.w3.org/2000/svg" xmlns:xlink="http://www.w3.org/1999/xlink" x="0px" y="0px"
	 viewBox="0 0 75 75" style="enable-background:new 0 0 75 75;" xml:space="preserve">
<style type="text/css">
	.st0{fill:#004CBF;}
</style>
<g>
	<path class="st0" d="M72.27,7.37c-1.7-1.7-4.13-2.44-6.49-1.97c-7.23,1.42-14.08,4.48-19.78,8.86c-1.46,1.12-3.08,2.45-4.8,3.97
		c-9.08-0.57-15.99,4.1-22.83,9.39c-3.57,2.76-6.57,5.79-8.93,9.03c-0.26,0.36-0.32,0.83-0.16,1.24c0.16,0.41,0.52,0.72,0.96,0.8
		l10.01,1.28c0.08,0.02,0.17,0.03,0.25,0.03c0.61,0,1.15-0.43,1.27-1.05c0.14-0.71-0.33-1.38-1.03-1.52l-7.94-0.89
		c1.99-2.43,4.39-4.74,7.15-6.87c5.73-4.43,11.49-8.42,18.47-8.87c-3.39,3.26-7.04,7.31-10.63,12.15c-0.02,0.02-0.04,0.02-0.05,0.04
		c-0.1,0.1-0.15,0.21-0.21,0.32c-1.41,1.92-2.82,3.92-4.19,6.1c-0.32,0.51-0.25,1.18,0.18,1.6l15.12,15.12
		c0.25,0.25,0.58,0.38,0.92,0.38c0.24,0,0.47-0.07,0.69-0.2c2.18-1.37,4.18-2.77,6.1-4.18c0.11-0.06,0.23-0.12,0.32-0.22
		c0.02-0.02,0.02-0.04,0.04-0.05c4.75-3.53,8.76-7.12,11.99-10.46c-0.55,6.85-4.47,12.52-8.84,18.17c-1.93,2.51-4.02,4.72-6.21,6.6
		l-1.12-7.93c-0.18-0.7-0.88-1.11-1.57-0.94c-0.7,0.17-1.11,0.88-0.94,1.57l1.61,9.9c0.11,0.42,0.42,0.77,0.83,0.91
		c0.14,0.05,0.28,0.07,0.42,0.07c0.28,0,0.56-0.09,0.79-0.27c2.94-2.26,5.7-5.07,8.23-8.33c5.23-6.77,9.84-13.61,9.39-22.55
		c1.59-1.78,2.96-3.45,4.11-4.95c2.4-3.13,4.37-6.63,5.92-10.33c0.01-0.04,0.05-0.06,0.05-0.09c0-0.01-0.01-0.03,0-0.04
		c1.25-3,2.26-6.11,2.89-9.33C74.71,11.5,73.97,9.07,72.27,7.37z M39.73,53.56L26.08,39.91c0.9-1.4,1.81-2.73,2.73-4.02l14.94,14.94
		C42.46,51.75,41.12,52.66,39.73,53.56z M63.33,32.07c-1.15,1.5-2.53,3.17-4.13,4.96c-0.11,0.09-0.21,0.19-0.28,0.31
		c-3.33,3.69-7.67,7.83-13.07,11.92L30.37,33.8c6.2-8.19,12.54-13.92,17.19-17.49c2.5-1.91,5.24-3.53,8.13-4.89
		c1.53,6.14,6.37,10.98,12.51,12.51C66.86,26.83,65.24,29.58,63.33,32.07z M71.7,13.37c-0.55,2.81-1.43,5.53-2.48,8.16
		c-5.53-1.22-9.89-5.58-11.11-11.11c2.63-1.05,5.35-1.92,8.16-2.48c1.53-0.3,3.05,0.16,4.16,1.27
		C71.54,10.31,72.01,11.82,71.7,13.37z"/>
	<path class="st0" d="M50.75,22.77c-1.68,1.69-1.68,4.43,0,6.12c0.82,0.82,1.9,1.26,3.06,1.26s2.24-0.45,3.06-1.26
		c1.69-1.69,1.69-4.43,0-6.12C55.18,21.08,52.44,21.08,50.75,22.77z M55.03,27.05c-0.65,0.65-1.8,0.65-2.45,0
		c-0.68-0.68-0.68-1.78,0-2.45c0.34-0.34,0.78-0.51,1.23-0.51c0.44,0,0.89,0.17,1.22,0.51C55.71,25.27,55.71,26.38,55.03,27.05z"/>
	<path class="st0" d="M41.68,31.84c-1.68,1.69-1.68,4.43,0,6.12c0.82,0.82,1.9,1.26,3.06,1.26s2.24-0.45,3.06-1.26
		c1.69-1.69,1.69-4.43,0-6.12C46.11,30.16,43.37,30.16,41.68,31.84z M45.96,36.13c-0.65,0.65-1.8,0.65-2.45,0
		c-0.68-0.68-0.68-1.78,0-2.45c0.34-0.34,0.78-0.51,1.23-0.51c0.44,0,0.89,0.17,1.22,0.51C46.64,34.35,46.64,35.45,45.96,36.13z"/>
	<path class="st0" d="M31.66,53.49c-0.69-0.21-1.43,0.2-1.63,0.89c-2.95,10.08-8.21,12.09-18.69,12.29
		c-0.63-3.56-0.37-8.59,2.27-12.46c2.17-3.18,5.62-5.11,10.25-5.73c0.72-0.1,1.22-0.76,1.12-1.48c-0.1-0.72-0.78-1.22-1.48-1.12
		c-5.4,0.73-9.46,3.03-12.06,6.85c-3.39,4.96-3.48,11.3-2.44,15.57c0.15,0.59,0.67,1,1.27,1c0.01,0,0.01,0,0.01,0
		c12.03-0.1,18.78-2.32,22.26-14.19C32.76,54.42,32.36,53.69,31.66,53.49z"/>
	<circle class="st0" cx="3.11" cy="56.51" r="2.46"/>
	<path class="st0" d="M33.82,62.78c-1.18-0.41-2.46,0.22-2.87,1.4c-0.41,1.18,0.22,2.46,1.4,2.87c1.18,0.41,2.46-0.22,2.87-1.4
		C35.62,64.47,35,63.19,33.82,62.78z"/>
	<path class="st0" d="M2.97,64.03c-0.49-0.17-1.02,0.09-1.19,0.58c-0.17,0.49,0.09,1.02,0.58,1.19c0.49,0.17,1.02-0.09,1.19-0.58
		C3.72,64.73,3.46,64.2,2.97,64.03z"/>
	<path class="st0" d="M26.38,67.06c-0.49-0.17-1.02,0.09-1.19,0.58c-0.17,0.49,0.09,1.02,0.58,1.19c0.49,0.17,1.02-0.09,1.19-0.58
		C27.13,67.76,26.87,67.22,26.38,67.06z"/>
</g>
</svg>
