<svg width="125" height="35" viewBox="0 0 125 35" fill="none" xmlns="http://www.w3.org/2000/svg">
<path d="M68.0881 20.3798H59.2134V15.4403H67.5861V12.2921H59.2134V7.56974H68.0881V4.19081H55.1152V23.7723H68.0881V20.3798Z" fill="#02A1FD"/>
<path d="M84.4259 23.7723H88.7818L81.9697 4.19081H77.1523L70.3538 23.7723H74.5605L76.0532 19.0228H82.9332L84.4259 23.7723ZM79.4457 7.93613H79.5407L82.0511 15.956H76.9352L79.4457 7.93613Z" fill="#02A1FD"/>
<path d="M90.1926 18.1815C90.3147 21.8725 93.4222 24.098 98.0903 24.098C102.989 24.098 105.988 21.6825 105.988 17.8558C105.988 14.884 104.183 13.2149 100.044 12.3871L97.9682 11.9664C95.6613 11.505 94.7114 10.7587 94.7114 9.55096C94.7114 8.11254 96.0684 7.16264 98.0903 7.16264C100.153 7.16264 101.605 8.16682 101.741 9.83593H105.608C105.54 6.23988 102.663 3.85156 98.0903 3.85156C93.7343 3.85156 90.6132 6.22631 90.6132 9.80879C90.6132 12.7263 92.5266 14.599 96.4348 15.3725L98.4974 15.7796C100.954 16.2817 101.876 17.0144 101.876 18.3036C101.876 19.742 100.384 20.8005 98.1989 20.8005C95.9734 20.8005 94.3178 19.8234 94.06 18.1815H90.1926Z" fill="#02A1FD"/>
<path d="M118.173 23.7723V16.4581L124.999 4.19081H120.602L116.206 12.5499H116.111L111.728 4.19081H107.263L114.075 16.4581V23.7723H118.173Z" fill="#02A1FD"/>
<path d="M57.7362 32.0864L59.6752 26.4791H58.6066L57.2077 30.9401H57.1416L55.731 26.4791H54.6236L56.582 32.0864H57.7362ZM61.8045 32.0864V26.4791H60.802V32.0864H61.8045ZM63.3471 26.4791V32.0864H65.4493C67.128 32.0864 68.0879 31.0567 68.0879 29.2575C68.0879 27.4972 67.1164 26.4791 65.4493 26.4791H63.3471ZM64.3496 27.3223H65.3172C66.4169 27.3223 67.0659 28.0373 67.0659 29.273C67.0659 30.536 66.4325 31.2432 65.3172 31.2432H64.3496V27.3223ZM73.0267 31.2432H70.3998V29.6383H72.8829V28.8417H70.3998V27.3223H73.0267V26.4791H69.3973V32.0864H73.0267V31.2432ZM76.8464 26.3392C75.2182 26.3392 74.1923 27.47 74.1923 29.2808C74.1923 31.0878 75.2026 32.2263 76.8464 32.2263C78.4823 32.2263 79.4965 31.0878 79.4965 29.2808C79.4965 27.47 78.4784 26.3392 76.8464 26.3392ZM76.8464 27.2057C77.8411 27.2057 78.4745 28.0101 78.4745 29.2808C78.4745 30.5437 77.845 31.3598 76.8464 31.3598C75.836 31.3598 75.2182 30.5437 75.2182 29.2808C75.2182 28.0101 75.8516 27.2057 76.8464 27.2057ZM84.0893 29.9764H85.2007L86.3004 32.0864H87.4468L86.2227 29.8248C86.8911 29.5839 87.2797 28.9661 87.2797 28.2238C87.2797 27.1513 86.5413 26.4791 85.3639 26.4791H83.0868V32.0864H84.0893V29.9764ZM84.0893 27.2912H85.224C85.8613 27.2912 86.2499 27.6526 86.2499 28.2433C86.2499 28.8456 85.8846 29.1914 85.2473 29.1914H84.0893V27.2912ZM92.2845 31.2432H89.6577V29.6383H92.1408V28.8417H89.6577V27.3223H92.2845V26.4791H88.6551V32.0864H92.2845V31.2432ZM96.384 32.0864L98.3231 26.4791H97.2544L95.8555 30.9401H95.7895L94.3789 26.4791H93.2714L95.2299 32.0864H96.384ZM100.452 32.0864V26.4791H99.4498V32.0864H100.452ZM105.624 31.2432H102.997V29.6383H105.481V28.8417H102.997V27.3223H105.624V26.4791H101.995V32.0864H105.624V31.2432ZM110.26 28.0723H110.318L111.461 32.0864H112.401L113.905 26.4791H112.867L111.908 30.6875H111.853L110.734 26.4791H109.844L108.741 30.6875H108.682L107.723 26.4791H106.677L108.181 32.0864H109.125L110.26 28.0723ZM114.818 30.567C114.869 31.5813 115.72 32.2263 117.006 32.2263C118.366 32.2263 119.209 31.5502 119.209 30.4621C119.209 29.6111 118.731 29.137 117.593 28.8767L116.948 28.729C116.252 28.5658 115.968 28.3443 115.968 27.9596C115.968 27.4739 116.396 27.1552 117.041 27.1552C117.655 27.1552 118.09 27.47 118.16 27.9713H119.12C119.073 27.0115 118.222 26.3392 117.045 26.3392C115.79 26.3392 114.958 27.0153 114.958 28.0257C114.958 28.8572 115.436 29.3585 116.454 29.5917L117.181 29.7588C117.9 29.9259 118.207 30.1746 118.207 30.5826C118.207 31.0606 117.729 31.4064 117.068 31.4064C116.357 31.4064 115.859 31.08 115.797 30.567H114.818Z" fill="#004BDF"/>
<path d="M45.6417 16.8451V33.6957H16.8569C13.7116 33.7012 10.6282 32.822 7.95879 31.1585C7.51897 30.8836 7.09701 30.5936 6.68606 30.2789C6.0718 29.8136 5.48871 29.3085 4.94052 28.767C2.5821 26.4109 0.975655 23.4081 0.324514 20.1386C-0.326628 16.8692 0.00680353 13.48 1.28261 10.4001C2.55841 7.32025 4.71924 4.68808 7.4916 2.83677C10.264 0.985453 13.5232 -0.00178544 16.8569 2.42404e-06H28.7898C31.0024 -0.000719671 33.1935 0.434449 35.238 1.28065C37.2824 2.12686 39.1402 3.36752 40.7051 4.93179C42.27 6.49606 43.5114 8.35328 44.3584 10.3974C45.2055 12.4415 45.6415 14.6324 45.6417 16.8451Z" fill="url(#paint0_linear)"/>
<path d="M31.5924 10.4568V23.2391C31.5924 24.7729 30.2179 26.0168 28.5397 26.0168H11.204C9.52165 26.0168 8.1582 24.7798 8.1582 23.2391V10.4568C8.1582 8.92706 9.52165 7.68457 11.204 7.68457H28.5397C30.2234 7.68457 31.5924 8.93393 31.5924 10.4568Z" fill="url(#paint1_linear)"/>
<path d="M37.9692 12.0377V21.6313C37.9692 22.4161 37.1363 22.959 36.3556 22.6827L31.5918 20.9991V12.67L36.3501 10.9849C37.1363 10.71 37.9692 11.2529 37.9692 12.0377Z" fill="url(#paint2_linear)"/>
<path d="M13.7677 14.594L14.411 15.8969C14.4228 15.9211 14.4404 15.942 14.4622 15.9578C14.484 15.9737 14.5094 15.9839 14.5361 15.9876L15.9737 16.1966C16.0043 16.2011 16.033 16.2141 16.0566 16.2341C16.0803 16.254 16.0978 16.2802 16.1074 16.3096C16.117 16.339 16.1181 16.3705 16.1108 16.4006C16.1034 16.4306 16.0879 16.458 16.0658 16.4797L15.0254 17.494C15.0058 17.5124 14.9912 17.5353 14.9828 17.5608C14.9744 17.5862 14.9725 17.6134 14.9772 17.6397L15.2233 19.0733C15.2282 19.1037 15.2247 19.1349 15.2129 19.1634C15.2012 19.1919 15.1818 19.2166 15.1568 19.2347C15.1319 19.2528 15.1024 19.2636 15.0716 19.2659C15.0409 19.2682 15.0101 19.262 14.9827 19.2478L13.6963 18.5716C13.6727 18.5587 13.6462 18.552 13.6193 18.552C13.5924 18.552 13.5659 18.5587 13.5423 18.5716L12.2559 19.2423C12.2285 19.2565 12.1977 19.2627 12.167 19.2604C12.1362 19.2581 12.1067 19.2473 12.0818 19.2292C12.0568 19.2111 12.0374 19.1864 12.0257 19.1579C12.0139 19.1294 12.0104 19.0982 12.0153 19.0678L12.2614 17.6342C12.2659 17.6079 12.2638 17.5808 12.2554 17.5554C12.2471 17.53 12.2326 17.507 12.2133 17.4885L11.1728 16.4742C11.1507 16.4525 11.1352 16.4251 11.1278 16.3951C11.1205 16.365 11.1216 16.3335 11.1312 16.3041C11.1408 16.2747 11.1583 16.2485 11.182 16.2286C11.2056 16.2086 11.2343 16.1956 11.2649 16.1911L12.7081 15.9876C12.7346 15.9837 12.7599 15.9733 12.7817 15.9576C12.8034 15.9418 12.8211 15.921 12.8331 15.8969L13.4764 14.594C13.4904 14.5675 13.5114 14.5454 13.537 14.5299C13.5627 14.5145 13.5921 14.5063 13.6221 14.5063C13.652 14.5063 13.6814 14.5145 13.7071 14.5299C13.7327 14.5454 13.7537 14.5675 13.7677 14.594Z" fill="url(#paint3_linear)"/>
<path d="M26.0506 14.5197L25.4074 15.8227C25.3955 15.8469 25.3779 15.8678 25.3561 15.8836C25.3343 15.8994 25.309 15.9097 25.2823 15.9134L23.8446 16.1223C23.8141 16.1269 23.7853 16.1399 23.7617 16.1599C23.7381 16.1798 23.7205 16.206 23.711 16.2354C23.7014 16.2648 23.7002 16.2963 23.7076 16.3264C23.7149 16.3564 23.7305 16.3838 23.7526 16.4055L24.793 17.4198C24.8125 17.4382 24.8272 17.4611 24.8356 17.4865C24.844 17.512 24.8459 17.5391 24.8411 17.5655L24.5951 18.999C24.5901 19.0295 24.5937 19.0607 24.6054 19.0892C24.6172 19.1177 24.6366 19.1424 24.6615 19.1605C24.6865 19.1786 24.716 19.1894 24.7467 19.1917C24.7775 19.194 24.8082 19.1878 24.8356 19.1736L26.1221 18.4974C26.1457 18.4845 26.1722 18.4778 26.1991 18.4778C26.2259 18.4778 26.2524 18.4845 26.276 18.4974L27.5625 19.1681C27.5899 19.1823 27.6207 19.1885 27.6514 19.1862C27.6821 19.1839 27.7116 19.1731 27.7366 19.155C27.7615 19.1369 27.781 19.1122 27.7927 19.0837C27.8044 19.0552 27.808 19.024 27.803 18.9935L27.557 17.56C27.5525 17.5336 27.5545 17.5066 27.5629 17.4812C27.5713 17.4558 27.5858 17.4328 27.6051 17.4143L28.6456 16.4C28.6676 16.3783 28.6832 16.3509 28.6905 16.3209C28.6979 16.2908 28.6967 16.2593 28.6872 16.2299C28.6776 16.2005 28.66 16.1743 28.6364 16.1544C28.6128 16.1344 28.5841 16.1214 28.5535 16.1168L27.1103 15.9134C27.0837 15.9094 27.0585 15.8991 27.0367 15.8833C27.0149 15.8675 26.9973 15.8468 26.9852 15.8227L26.342 14.5197C26.328 14.4933 26.307 14.4712 26.2813 14.4557C26.2556 14.4403 26.2263 14.4321 26.1963 14.4321C26.1664 14.4321 26.137 14.4403 26.1113 14.4557C26.0856 14.4712 26.0647 14.4933 26.0506 14.5197Z" fill="url(#paint4_linear)"/>
<path d="M20.0197 14.528L20.6629 15.8309C20.675 15.855 20.6926 15.8758 20.7144 15.8916C20.7362 15.9074 20.7614 15.9177 20.788 15.9217L22.227 16.1306C22.2575 16.1353 22.2861 16.1485 22.3095 16.1685C22.333 16.1886 22.3504 16.2148 22.3598 16.2442C22.3692 16.2735 22.3702 16.3049 22.3628 16.3349C22.3554 16.3648 22.3398 16.3921 22.3178 16.4137L21.2773 17.428C21.2582 17.4467 21.244 17.4697 21.2359 17.4951C21.2277 17.5205 21.2259 17.5475 21.2306 17.5737L21.4752 19.0073C21.4797 19.038 21.4755 19.0694 21.4631 19.0979C21.4506 19.1264 21.4305 19.1508 21.4049 19.1684C21.3792 19.186 21.3492 19.1961 21.3182 19.1975C21.2871 19.1989 21.2563 19.1916 21.2292 19.1763L19.9441 18.5001C19.9202 18.4872 19.8936 18.4805 19.8664 18.4805C19.8393 18.4805 19.8127 18.4872 19.7888 18.5001L18.5078 19.1763C18.4805 19.1907 18.4498 19.1971 18.419 19.1948C18.3883 19.1925 18.3588 19.1817 18.3339 19.1635C18.309 19.1454 18.2897 19.1206 18.2781 19.092C18.2666 19.0634 18.2633 19.0321 18.2687 19.0018L18.5133 17.5682C18.518 17.542 18.5162 17.515 18.508 17.4896C18.4999 17.4642 18.4857 17.4412 18.4666 17.4225L17.4248 16.4082C17.4027 16.3865 17.3871 16.3591 17.3798 16.3291C17.3724 16.299 17.3736 16.2676 17.3832 16.2381C17.3927 16.2087 17.4103 16.1826 17.4339 16.1626C17.4575 16.1426 17.4863 16.1296 17.5168 16.1251L18.9559 15.9162C18.9823 15.9123 19.0075 15.902 19.029 15.8862C19.0506 15.8704 19.0679 15.8495 19.0796 15.8255L19.7228 14.5225C19.7368 14.4948 19.7584 14.4717 19.7849 14.4557C19.8115 14.4398 19.842 14.4316 19.873 14.4322C19.904 14.4327 19.9342 14.442 19.9601 14.459C19.9861 14.4759 20.0067 14.4998 20.0197 14.528Z" fill="#0363FD"/>
<defs>
<linearGradient id="paint0_linear" x1="5.29513" y1="30.5276" x2="43.4371" y2="8.50639" gradientUnits="userSpaceOnUse">
<stop stop-color="#0360FD"/>
<stop offset="1" stop-color="#01D2FD"/>
</linearGradient>
<linearGradient id="paint1_linear" x1="8.62963" y1="24.7207" x2="31.1182" y2="8.97379" gradientUnits="userSpaceOnUse">
<stop stop-color="#E0E0E0"/>
<stop offset="1" stop-color="white"/>
</linearGradient>
<linearGradient id="paint2_linear" x1="31.5395" y1="16.7685" x2="37.9993" y2="16.7685" gradientUnits="userSpaceOnUse">
<stop stop-color="#E0E0E0"/>
<stop offset="1" stop-color="white"/>
</linearGradient>
<linearGradient id="paint3_linear" x1="11.122" y1="16.8838" x2="16.1153" y2="16.8838" gradientUnits="userSpaceOnUse">
<stop stop-color="#01D2FD"/>
<stop offset="1" stop-color="#0360FD"/>
</linearGradient>
<linearGradient id="paint4_linear" x1="28.6964" y1="16.8096" x2="23.7031" y2="16.8096" gradientUnits="userSpaceOnUse">
<stop stop-color="#01D2FD"/>
<stop offset="1" stop-color="#0360FD"/>
</linearGradient>
</defs>
</svg>
