<svg xmlns="http://www.w3.org/2000/svg" width="448.655" height="716.46" viewBox="0 0 448.655 716.46">
  <g id="Group_1462" data-name="Group 1462" transform="translate(-1096.346 -394.398)">
    <g id="Group_1458" data-name="Group 1458" transform="translate(-18669 -1086)">
      <g id="Group_1414" data-name="Group 1414" transform="translate(20041.018 1527.782)">
        <path id="Path_1453" data-name="Path 1453" d="M3963.246,165.4c-6.06,1.4-8.856-4.661-13.051-7.458-1.4-.466-2.8,0-4.2,0a24.971,24.971,0,0,0,2.331-5.127c5.127-.932,8.391,2.331,11.187,6.06a5.562,5.562,0,0,0,6.06.932c-.466,1.864-1.865,3.729-2.331,5.593Z" transform="translate(-3946 -152.655)" fill="#02ccc0"/>
      </g>
      <g id="Group_1416" data-name="Group 1416" transform="translate(20185.516 1495.314)">
        <path id="Path_1455" data-name="Path 1455" d="M4261.593,83c3.729,3.263,2.331,8.39,2.331,12.585-.466,1.864-.466,3.729,2.331,5.127-1.864.466-4.195.932-6.06,1.4-2.8-3.729-2.331-8.39-1.4-12.585A6.441,6.441,0,0,0,4256,84.4l5.593-1.4Z" transform="translate(-4256 -83)" fill="#ff5b7e"/>
      </g>
      <g id="Group_1418" data-name="Group 1418" transform="translate(20074.111 1614.175)">
        <path id="Path_1457" data-name="Path 1457" d="M4017,347.789c2.331-4.2,6.526-5.127,11.187-5.593q2.8-.7,4.195-4.2c1.4,1.4,1.865,3.729,3.263,5.127-2.331,4.2-6.526,5.127-11.187,5.593q-2.8.7-4.195,4.2c-1.4-1.4-1.865-3.729-3.263-5.127Z" transform="translate(-4017 -338)" fill="#ff5b7e"/>
      </g>
      <g id="Group_1419" data-name="Group 1419" transform="translate(20147.293 1547.986)">
        <path id="Path_1458" data-name="Path 1458" d="M4174,205.788c2.331-3.729,6.526-5.593,11.187-5.593q2.8-.7,4.195-4.2c1.4,1.4,1.865,3.729,3.263,5.127-2.8,4.661-8.39,4.2-13.051,6.06-1.4.466-1.865,1.865-2.8,3.263-.466-1.864-1.864-3.263-2.8-4.661Z" transform="translate(-4174 -196)" fill="#ff5b7e"/>
      </g>
      <g id="Group_1420" data-name="Group 1420" transform="translate(20064.324 1757.178)">
        <path id="Path_1459" data-name="Path 1459" d="M4002.059,644.891a17.239,17.239,0,0,1,2.331,5.127c0,4.2-3.729,8.856.932,13.051-2.331-.466-4.195.466-6.059.932-2.8-3.729-2.8-8.39-.933-12.585.466-2.331-.932-4.2-2.331-5.593,1.864,0,3.729-1.4,6.06-.932Z" transform="translate(-3996 -644.796)" fill="#feb546"/>
      </g>
      <g id="Group_1421" data-name="Group 1421" transform="translate(19854.57 1544.257)">
        <path id="Path_1460" data-name="Path 1460" d="M3551.593,188c3.263,3.729,2.8,8.856.932,13.051-.466,1.864.932,3.729,2.331,5.127-1.865.466-3.729.466-5.594,1.4a9.488,9.488,0,0,1-2.331-8.39c.932-3.263,2.331-7.458-.932-9.789l5.593-1.4Z" transform="translate(-3546 -188)" fill="#feb546"/>
      </g>
      <g id="Group_1423" data-name="Group 1423" transform="translate(19858.299 1659.854)">
        <path id="Path_1462" data-name="Path 1462" d="M3554,446.721c2.8-4.661,7.924-5.593,12.585-7.458.932,0,1.865-1.864,2.331-3.263.932,1.864,2.8,2.8,3.729,4.661-1.865,5.593-7.924,5.127-12.585,7.458a5.945,5.945,0,0,0-2.331,3.263c-1.4-1.4-2.331-3.263-3.729-4.661Z" transform="translate(-3554 -436)" fill="#ff5b7e"/>
      </g>
      <g id="Group_1424" data-name="Group 1424" transform="translate(20195.77 1696.678)">
        <path id="Path_1463" data-name="Path 1463" d="M4278,525.721c2.8-4.661,7.924-5.593,13.051-7.458.932,0,1.864-1.865,2.331-3.263.466,1.865,3.263,2.8,2.8,4.661-.933,6.06-7.458,5.127-12.119,7.458a5.945,5.945,0,0,0-2.331,3.263c-1.4-1.4-2.33-3.263-3.729-4.661Z" transform="translate(-4278 -515)" fill="#ff5b7e"/>
      </g>
      <g id="Group_1425" data-name="Group 1425" transform="translate(20114.199 1796.428)">
        <path id="Path_1464" data-name="Path 1464" d="M4118.382,743.916c-5.594-.466-7.924-5.593-11.187-9.322-.933-.932-2.8-.466-4.2-.466.466-1.865,2.331-3.263,2.8-5.127a8.466,8.466,0,0,1,7.458,3.729c1.865,3.263,4.2,6.526,8.39,6.06-1.4,1.4-1.864,3.729-3.263,5.127Z" transform="translate(-4103 -729)" fill="#02ccc0"/>
      </g>
      <g id="Group_1426" data-name="Group 1426" transform="translate(20012.584 1796.395)">
        <path id="Path_1465" data-name="Path 1465" d="M3900.848,743.879c-6.06.466-7.924-6.06-11.653-9.322-1.4-.932-2.8-.466-4.2-.466,1.4-1.4,1.865-3.729,3.263-5.127,5.127-.466,7.458,4.2,10.255,7.924a6,6,0,0,0,5.594,1.864c-1.4,1.4-1.865,3.729-3.263,5.127Z" transform="translate(-3885 -728.931)" fill="#ff5b7e"/>
      </g>
      <g id="Group_1430" data-name="Group 1430" transform="translate(19911.436 1480.398)">
        <path id="Path_1469" data-name="Path 1469" d="M3668,60.322a15.149,15.149,0,0,1,11.653-5.127q2.8-.7,4.2-4.2c1.4,1.4,1.864,3.729,3.263,5.127a10.214,10.214,0,0,1-9.323,5.127c-2.8,0-5.593.932-6.525,4.2-1.4-1.4-1.865-3.729-3.263-5.127Z" transform="translate(-3668 -51)" fill="#feb546"/>
      </g>
      <g id="Group_1431" data-name="Group 1431" transform="translate(19948.727 1701.339)">
        <path id="Path_1470" data-name="Path 1470" d="M3748,534.322c2.331-5.127,8.39-4.2,13.052-6.06,1.4-.466,1.865-1.865,2.8-3.263.932,1.864,1.4,3.729,2.8,5.127-2.331,3.729-6.992,4.661-11.187,5.127-2.331.466-3.263,2.331-4.661,4.2-.932-1.865-1.4-3.729-2.8-5.127Z" transform="translate(-3748 -525)" fill="#feb546"/>
      </g>
      <g id="Group_1432" data-name="Group 1432" transform="translate(19993.473 1592.733)">
        <path id="Path_1471" data-name="Path 1471" d="M3844,298.992c2.331-2.8,6.06-4.661,9.788-3.729,3.263.932,5.594-.932,6.992-3.263.932,1.864.932,4.2,2.331,5.593-2.8,3.729-7.924,3.729-12.119,3.729a5.917,5.917,0,0,0-5.128,3.263,26.306,26.306,0,0,1-1.864-5.593Z" transform="translate(-3844 -292)" fill="#02ccc0"/>
      </g>
      <g id="Group_1434" data-name="Group 1434" transform="translate(20017.711 1481.797)">
        <path id="Path_1473" data-name="Path 1473" d="M3896,60.526c3.263-3.263,7.458-4.2,12.119-3.263,2.331,0,3.729-1.864,5.127-3.263,0,1.864,2.331,3.729,1.4,5.127-1.865,5.127-8.856,2.8-13.517,4.2-1.4.466-1.865,1.4-2.8,2.8A28.5,28.5,0,0,1,3896,60.526Z" transform="translate(-3896 -54)" fill="#02ccc0"/>
      </g>
      <g id="Group_1435" data-name="Group 1435" transform="translate(20022.838 1647.735)">
        <path id="Path_1474" data-name="Path 1474" d="M3923.314,423.984c-4.661,0-7.924-3.263-10.721-6.992-1.4-1.4-2.8-2.8-5.594-1.4.466-2.331,1.864-3.729,2.8-5.593a13.191,13.191,0,0,1,10.255,6.992c1.4,1.865,3.729,1.865,6.059,1.865-.466,1.864-2.331,3.263-2.8,5.127Z" transform="translate(-3907 -410)" fill="#ff5b7e"/>
      </g>
      <g id="Group_1436" data-name="Group 1436" transform="translate(20101.838 1490.653)">
        <path id="Path_1475" data-name="Path 1475" d="M4083.716,73c2.8,4.2.932,8.856-1.4,12.585-.932,1.864,0,4.2,1.4,5.593h-5.594c-4.195-4.661.933-9.322,1.4-14.45.466-1.4-.933-2.331-1.4-3.729Z" transform="translate(-4076.484 -73)" fill="#feb546"/>
      </g>
      <g id="Group_1437" data-name="Group 1437" transform="translate(19969.779 1506.035)">
        <path id="Path_1476" data-name="Path 1476" d="M3800.546,106c1.865,4.2.932,8.39-1.4,12.585-1.4,1.864-.466,4.2,1.4,6.06h-6.06c-2.331-3.729-1.4-8.856,1.4-12.585,1.4-1.864.466-4.2-1.4-6.06Z" transform="translate(-3793.166 -106)" fill="#ff5b7e"/>
      </g>
      <g id="Group_1438" data-name="Group 1438" transform="translate(20008.092 1714.391)">
        <path id="Path_1477" data-name="Path 1477" d="M3883.117,553c2.331,4.2.932,8.39-1.4,12.585q-1.4,2.8,1.4,5.593c-1.865,0-4.2.466-6.06-.466-2.331-1.4-1.865-5.127-.932-7.924.932-1.864,2.8-3.729,2.8-6.06a5.755,5.755,0,0,0-1.864-3.729Z" transform="translate(-3875.361 -553)" fill="#02ccc0"/>
      </g>
      <g id="Group_1439" data-name="Group 1439" transform="translate(19967.078 1786.639)">
        <path id="Path_1478" data-name="Path 1478" d="M3794.657,708c2.331,3.729,1.4,8.856-1.4,12.585-1.4,1.864-.466,4.2,1.4,6.06h-6.06c-1.865-4.2-1.865-9.322,1.865-12.585,0-1.865,0-4.2-1.865-6.06Z" transform="translate(-3787.373 -708)" fill="#ff5b7e"/>
      </g>
      <g id="Group_1441" data-name="Group 1441" transform="translate(20149.623 1702.271)">
        <path id="Path_1480" data-name="Path 1480" d="M4194.382,541.916c-6.06.466-7.458-6.06-11.187-9.322-.932-.932-2.8-.466-4.195-.932.466-1.864,2.331-2.8,3.263-4.661,3.729.466,6.992,1.864,8.39,6.06.932,2.8,3.729,4.2,6.992,3.729-.933,1.864-2.331,3.263-3.263,5.127Z" transform="translate(-4179 -527)" fill="#feb546"/>
      </g>
      <g id="Group_1442" data-name="Group 1442" transform="translate(19896.055 1590.869)">
        <path id="Path_1481" data-name="Path 1481" d="M3650.382,303.382c-5.594-.466-7.924-5.593-11.187-9.322a4.183,4.183,0,0,0-4.195-.932c.932-1.864,2.331-3.263,3.263-5.127,3.263.932,6.992,2.331,8.856,6.526a5.909,5.909,0,0,0,6.526,3.729c-1.4,1.4-1.865,3.729-3.263,5.127Z" transform="translate(-3635 -288)" fill="#feb546"/>
      </g>
      <g id="Group_1444" data-name="Group 1444" transform="translate(19949.658 1636.083)">
        <path id="Path_1483" data-name="Path 1483" d="M3756.991,385c3.729,5.127-.466,9.789-1.4,14.916a5.753,5.753,0,0,0,1.864,3.729c-1.864,0-4.2.466-5.594-.466-1.864-1.4-2.331-5.127-1.4-7.924.932-1.865,2.8-3.729,2.8-6.06a10.15,10.15,0,0,0-2.331-3.729,26.577,26.577,0,0,1,6.059-.466Z" transform="translate(-3750 -385)" fill="#ff5b7e"/>
      </g>
      <g id="Group_1447" data-name="Group 1447" transform="translate(20092.291 1701.339)">
        <path id="Path_1486" data-name="Path 1486" d="M4056,529.661c3.263-3.729,8.39-2.8,12.585-1.865a6.44,6.44,0,0,0,5.127-2.8l1.4,5.593c-3.729,4.2-9.323,1.865-13.984,2.331-1.4,0-2.331,1.4-3.263,2.8a30.169,30.169,0,0,1-1.865-6.059Z" transform="translate(-4056 -525)" fill="#02ccc0"/>
      </g>
      <g id="Group_1448" data-name="Group 1448" transform="translate(20171.531 1633.752)">
        <path id="Path_1487" data-name="Path 1487" d="M4226,385.127c3.263-3.263,8.39-3.263,12.585-2.331a6.442,6.442,0,0,0,5.127-2.8l1.4,5.593c-3.729,4.2-9.323,2.331-13.984,2.331-1.4,0-2.331,1.4-3.262,2.8a26.241,26.241,0,0,1-1.865-5.593Z" transform="translate(-4226 -380)" fill="#ff5b7e"/>
      </g>
    </g>
    <g id="Group_1456" data-name="Group 1456" transform="translate(-309.305)">
      <path id="Path_1274" data-name="Path 1274" d="M2087.877,613.2a.7.7,0,0,1-1.171-.39c-.725-4.256-3.094-17.631-4.219-17.693-1.338-.073.488,11.93-.608,12.518s-2.581-11.166-4.024-11.013.271,10.824-.314,11.1-3.32-9.772-4.222-10.192.711,10.663.1,11.2-4.272-6.741-4.934-6.5-1.141.292,2.4,19.035l1.708,7.32,4.622,5.223,7.895-2.821s10.872-22.01,10.365-22.886C2094.985,607.263,2094.156,607.348,2087.877,613.2Z" transform="translate(-662.367 -109.093)" fill="#ffc0bb"/>
      <path id="Path_1275" data-name="Path 1275" d="M2537.139,1150.857a.7.7,0,0,1,1.115-.528c3.466,2.573,14.425,10.6,15.281,9.866,1.017-.872-8.6-8.282-8.215-9.465s9.584,6.283,10.521,5.176-7.679-7.633-7.447-8.237,9.155,4.765,10.1,4.444-7.886-7.212-7.812-8.025,7.747,1.916,8.057,1.286.623-1-14.891-12.1l-6.295-4.108-6.95-.579-3.753,7.5s7.361,23.419,8.333,23.7C2536.106,1160.059,2536.646,1159.424,2537.139,1150.857Z" transform="translate(-907.324 -393.907)" fill="#ffc0bb"/>
      <path id="Path_1298" data-name="Path 1298" d="M2338.527,1407.19l73.72,218.024s25.308,21.909,24.21,9.123c-.255-2.975-3.994-24.115-4.312-28.018-2.669-32.813-9.961-97.187-15.821-119.276-6.339-23.9-21.379-63.6-21.379-63.6Z" transform="translate(-806.785 -542.645)" fill="#ffc0bb"/>
      <path id="Path_1320" data-name="Path 1320" d="M2448.2,1889.579l23.015-19.125,23.64,10.076-6.842,6.491-25.883,7.462s-10.495.139-10.991-.1S2448.2,1889.579,2448.2,1889.579Z" transform="translate(-865.338 -789.972)" fill="#ffc0bb"/>
      <path id="Path_1321" data-name="Path 1321" d="M2440.1,1901.12l-5.809,5.015a3.536,3.536,0,0,0,2.766,6.2l48.413-6.618a3.12,3.12,0,0,0,2.67-3.514l-1.385-10.132C2455.917,1906.743,2444.354,1905.142,2440.1,1901.12Z" transform="translate(-857.24 -801.513)" fill="#f46c0f"/>
      <g id="Group_1332" data-name="Group 1332" transform="translate(1428.027 768.885)">
        <path id="Path_1323" data-name="Path 1323" d="M2147.221,1201.964s-35.5,112.752-30.762,128.378c3.031,10,59.606,167.295,60.5,167s23.51-6.911,23.51-6.911-41.99-153.7-39.937-163.546,44.625-100.71,44.625-100.71Z" transform="translate(-2116.024 -1201.964)" fill="#ffc0bb"/>
        <path id="Path_1324" data-name="Path 1324" d="M2202.709,1825.3l15.651-26.915,26.7,1.394-4.365,8.789-22.623,16.544s-10.205,3.887-10.777,3.829S2202.709,1825.3,2202.709,1825.3Z" transform="translate(-2162.303 -1520.38)" fill="#ffc0bb"/>
        <path id="Path_1325" data-name="Path 1325" d="M2197.689,1826.894l-3.883,6.977a3.679,3.679,0,0,0,4.919,5.07l44.941-23.774a3.247,3.247,0,0,0,1.351-4.388l-4.975-9.406C2215.153,1826.734,2203.281,1829.3,2197.689,1826.894Z" transform="translate(-2157.283 -1521.976)" fill="#f46c0f"/>
        <path id="Path_1326" data-name="Path 1326" d="M2201.351,1469.976a1020.591,1020.591,0,0,1,31.964,133.977l-40.84-88.073Z" transform="translate(-2156.84 -1345.05)" fill="#ffc0bb"/>
      </g>
      <g id="Group_1335" data-name="Group 1335" transform="translate(1473.045 454.817)">
        <path id="Path_1343" data-name="Path 1343" d="M2231.481,665.005s-23.328-11.664-18.12-44.658c1.642-10.407,11.48-14.005,9.764-27.85s-6.172-30.844,8.118-46.522,27.458-17.531,45.333-17.8c18.641-.28,51.112,12.478,58.939,35.1s36.711,3.18,67.2,24.537,21.324,55.349,13.406,72.877c-24.386,53.985-69,62.729-122.958,49.381s-9.659-22.9-10.154-23.742S2231.481,665.005,2231.481,665.005Z" transform="translate(-2212.603 -528.17)" fill="#f46c0f"/>
        <g id="Group_1334" data-name="Group 1334" transform="translate(26.955 18.23)">
          <path id="Path_1344" data-name="Path 1344" d="M2324.494,719.066l-1.6-19.117,21.579,1.644,6.055,23.667c.735,2.807-8.2,4.192-10.833,5.412-3.061,1.418-5.914-6.344-10.666-6.961A5.243,5.243,0,0,1,2324.494,719.066Z" transform="translate(-2298.438 -638.11)" fill="#ffc0bb"/>
          <g id="Group_1333" data-name="Group 1333" transform="translate(24.452 61.839)" opacity="0.6">
            <path id="Path_1345" data-name="Path 1345" d="M2324,713.223l-1.114-13.274,22.2,3.97,1.26,4.854C2341.864,711.173,2332.852,714.587,2324,713.223Z" transform="translate(-2322.89 -699.949)" fill="#fc8d84"/>
          </g>
          <path id="Path_1346" data-name="Path 1346" d="M2271.025,615.154a57.511,57.511,0,0,1-.243-14.645c.1-.951.137-1.906.161-2.862a31.151,31.151,0,1,1,61.7,6.853,6.74,6.74,0,0,1,6.039.726c3.3,2.342,3.6,7.58.668,11.7s-7.984,5.561-11.285,3.219a5.933,5.933,0,0,1-1.195-1.137c-4.52,14.628-19.086,23.7-33.736,20.523A28.685,28.685,0,0,1,2271.025,615.154Z" transform="translate(-2270.431 -567.28)" fill="#ffc0bb"/>
          <path id="Path_1347" data-name="Path 1347" d="M2336.545,643.953a2.719,2.719,0,1,0,3.235-2.076A2.716,2.716,0,0,0,2336.545,643.953Z" transform="translate(-2305.694 -607.072)" fill="#333"/>
          <path id="Path_1348" data-name="Path 1348" d="M2286.887,636.525a2.719,2.719,0,1,0,3.235-2.076A2.715,2.715,0,0,0,2286.887,636.525Z" transform="translate(-2279.183 -603.107)" fill="#333"/>
          <path id="Path_1349" data-name="Path 1349" d="M2332.195,631.1a25.569,25.569,0,0,1,4.065-.433,13.418,13.418,0,0,1,3.779.448,12.448,12.448,0,0,1,3.474,1.507l.428.243c.142.084.263.2.4.286l.827.579c.554.4,1.051.872,1.671,1.279a11.977,11.977,0,0,0-.962-1.938,9.873,9.873,0,0,0-1.423-1.677,8.851,8.851,0,0,0-3.915-2.182,9.27,9.27,0,0,0-4.478-.076A8.584,8.584,0,0,0,2332.195,631.1Z" transform="translate(-2303.405 -600.176)" fill="#f46c0f"/>
          <path id="Path_1350" data-name="Path 1350" d="M2291.67,624.675a8.575,8.575,0,0,0-3.034-3.1,9.263,9.263,0,0,0-4.265-1.362,8.855,8.855,0,0,0-4.41.813,9.873,9.873,0,0,0-1.886,1.132,12,12,0,0,0-1.534,1.527c.717-.187,1.34-.476,1.993-.677l.97-.283c.162-.041.312-.108.474-.142l.484-.093a12.448,12.448,0,0,1,3.774-.315,13.426,13.426,0,0,1,3.724.786A25.5,25.5,0,0,1,2291.67,624.675Z" transform="translate(-2273.692 -595.531)" fill="#f46c0f"/>
          <path id="Path_1351" data-name="Path 1351" d="M2310.728,630.742a20.88,20.88,0,0,1-.32,5.848,16.017,16.017,0,0,1-.824,2.888,7.6,7.6,0,0,1-1.74,2.728l-.364.286-.323.242a3.036,3.036,0,0,0-.432.336,2.215,2.215,0,0,0-.587.82,2.629,2.629,0,0,0,.15,2.115,8.085,8.085,0,0,0,4.042,3.457,6.624,6.624,0,0,1-5.306-2.739,3.991,3.991,0,0,1-.552-3.412,3.115,3.115,0,0,1,.4-.845,3.6,3.6,0,0,1,.575-.717,4.61,4.61,0,0,1,.693-.56,2.858,2.858,0,0,0,.247-.2l.2-.161a7.234,7.234,0,0,0,1.384-2.058,24.426,24.426,0,0,0,1.035-2.556C2309.616,634.441,2310.146,632.607,2310.728,630.742Z" transform="translate(-2288.513 -601.161)" fill="#f99893"/>
        </g>
        <path id="Path_1352" data-name="Path 1352" d="M2310.375,564.964s14.369,29.9,43.589,34.336l4.9-20.955s-9.677-11.176-10.937-12.61-20.864-8.2-20.864-8.2l-16.333,2.349Z" transform="translate(-2264.801 -543.849)" fill="#f46c0f"/>
      </g>
      <path id="Path_1354" data-name="Path 1354" d="M2386.494,792.489s34.637,117.705,68.825,159.936L2442,960.565s-64.754-85.669-74.809-123.073S2386.494,792.489,2386.494,792.489Z" transform="translate(-820.967 -214.468)" fill="#ffc0bb"/>
      <path id="Path_1363" data-name="Path 1363" d="M2218.24,736.927s-89.289-1.9-73,73.513c0,0,7.24,25.942,6.033,34.388s-12.67,31.251-11.463,52.729-66.363,55.263-71.793,76.378c0,0,23.529,13.876,33.181,25.942s31.975,63.347,101.958,65.157,98.339,5.429,98.339,5.429-3.017-25.338-34.992-62.743-24.736-141.172-53.091-166.511C2213.413,841.209,2249.008,742.446,2218.24,736.927Z" transform="translate(-662.367 -184.802)" fill="#07085b"/>
      <path id="Path_1364" data-name="Path 1364" d="M2348.012,1010.118c-31.975-37.4-24.735-141.172-53.09-166.511,0,0,31.273-86.772,9.853-102.192-.006.016-29.16,82.887-42.431,94.952,0,0,24.488,49.471,25.818,73.6s-17.975,57.03-7.719,76.478,19.253,88.437-59.753,60.277c15.039,11.1,35.585,19.973,63.975,20.708,69.983,1.81,98.339,5.429,98.339,5.429S2379.987,1047.523,2348.012,1010.118Z" transform="translate(-743.875 -187.201)" fill="#02ccc0" opacity="0.3" style="mix-blend-mode: multiply;isolation: isolate"/>
      <path id="Path_1365" data-name="Path 1365" d="M2090.982,666.617s28.5,69.911,33.33,71.52,45.047-13.46,61.135-23.421,34.992-18.065,41.024-9.79-11.261,50.9-89.288,61.764c0,0-29.763,8.853-42.633-28.954a406.925,406.925,0,0,1-17.14-72.583Z" transform="translate(-667.381 -146.485)" fill="#ffc0bb"/>
      <g id="Group_1336" data-name="Group 1336" transform="translate(1487.016 654.823)">
        <path id="Path_1366" data-name="Path 1366" d="M2269.721,965.941a148.76,148.76,0,0,1-25.187-1.929,2.372,2.372,0,0,1-1.9-2.872l0-.013a2.377,2.377,0,0,1,2.719-1.809c7.145,1.216,31.056,4.279,63.722-2.017a2.38,2.38,0,0,1,2.79,1.855h0a2.373,2.373,0,0,1-1.867,2.806A212.911,212.911,0,0,1,2269.721,965.941Zm-27.1-4.725.531-2.316h0Z" transform="translate(-2242.573 -957.257)" fill="#ff5b7e"/>
      </g>
      <path id="Path_1367" data-name="Path 1367" d="M2321.454,681.827a9.764,9.764,0,0,1-18.832-.061Z" transform="translate(-787.617 -155.355)" fill="#fff"/>
    </g>
  </g>
</svg>
