<?xml version="1.0" encoding="utf-8"?>
<!-- Generator: Adobe Illustrator 24.1.0, SVG Export Plug-In . SVG Version: 6.00 Build 0)  -->
<svg version="1.1" id="Layer_1" xmlns="http://www.w3.org/2000/svg" xmlns:xlink="http://www.w3.org/1999/xlink" x="0px" y="0px"
	 viewBox="0 0 150 150" style="enable-background:new 0 0 150 150;" xml:space="preserve">
<style type="text/css">
	.st0{fill:#231F20;}
</style>
<g id="XMLID_188_">
	<path id="XMLID_189_" class="st0" d="M20.68,49.69c0,3.86,3.13,6.99,6.99,6.99c3.86,0,6.99-3.13,6.99-6.99
		c0-3.86-3.13-6.99-6.99-6.99C23.81,42.7,20.68,45.83,20.68,49.69z"/>
	<path id="XMLID_1500_" class="st0" d="M52.68,90.61H34.66V71.41l18.53,7.31l1.69-4.27l-20.22-7.98v-0.62
		c0-3.86-3.13-6.99-6.99-6.99h0c-3.86,0-6.99,3.13-6.99,6.99v24.75v7.98h-5.59V72.74c0-1.6-1.3-2.89-2.89-2.89s-2.89,1.3-2.89,2.89
		v25.85v3.8l-8.26,24.78l4.54,1.52l8.24-24.71h1.27H35l8.57,24.74l4.53-1.57l-8.03-23.17h3.64v-5.39h5.53l12.55,27.96l5.83-2.61
		L52.68,90.67V90.61z"/>
	<path id="XMLID_1501_" class="st0" d="M148.95,127.17l-8.26-24.78v-3.8V72.74c0-1.6-1.3-2.89-2.89-2.89s-2.89,1.3-2.89,2.89v25.85
		h-5.59v-7.98V65.85c0-3.86-3.13-6.99-6.99-6.99c-3.86,0-6.99,3.13-6.99,6.99v0.62l-20.22,7.98l1.69,4.27l18.53-7.31v19.19H97.32
		v0.06l-14.93,33.27l5.83,2.61l12.55-27.96h5.53v5.39h3.64l-8.03,23.17l4.53,1.57l8.57-24.74h19.9h1.27l8.24,24.71L148.95,127.17z"
		/>
	<path id="XMLID_1502_" class="st0" d="M115.34,49.69c0,3.86,3.13,6.99,6.99,6.99c3.86,0,6.99-3.13,6.99-6.99
		c0-3.86-3.13-6.99-6.99-6.99C118.47,42.7,115.34,45.83,115.34,49.69z"/>
	<rect id="XMLID_1503_" x="48.64" y="80.63" class="st0" width="53.26" height="5.19"/>
	<rect id="XMLID_1504_" x="71.78" y="87.81" class="st0" width="8.18" height="40.88"/>
	<path id="XMLID_1508_" class="st0" d="M140.14,21.28h-21.96c-3.65,0-6.63,2.98-6.63,6.63v6.13c0,0.97,0.25,1.91,0.68,2.77
		c0.33,0.67,0.32,1.46-0.07,2.09l-3.35,5.38c-0.41,0.66,0.31,1.44,1,1.08l7.88-4.08c0.78-0.4,1.64-0.61,2.51-0.61h19.94
		c3.66,0,6.63-2.98,6.63-6.63V27.9C146.77,24.25,143.81,21.28,140.14,21.28z M145.18,34.04c0,2.78-2.25,5.03-5.03,5.03h-19.59
		c-0.67,0-1.61-0.05-2.25,0.15c-0.75,0.25-1.51,0.76-2.24,1.09c-0.1,0.06-0.2,0.1-0.29,0.15h-0.01l-3.99,2.07l1.64-2.63
		c0,0,0.01-0.01,0.02-0.04l0.15-0.25c0.02-0.02,0.04-0.04,0.04-0.06c0.29-0.52,0.92-1.64,0.29-2.85c-0.5-0.8-0.77-1.72-0.77-2.67
		v-6.13c0-2.77,2.27-5.03,5.03-5.03h21.96c2.78,0,5.03,2.25,5.03,5.03V34.04z"/>
	<rect id="XMLID_1510_" x="116.88" y="26.83" class="st0" width="7.39" height="1.6"/>
	<rect id="XMLID_1511_" x="116.88" y="30.23" class="st0" width="18.83" height="1.6"/>
	<rect id="XMLID_1512_" x="116.88" y="34.35" class="st0" width="23.29" height="1.6"/>
	<path id="XMLID_1515_" class="st0" d="M37.13,38.73c-0.32-0.51-0.35-1.15-0.08-1.68c0.44-0.87,0.81-1.77,0.81-2.75l0-6.4
		c0-3.65-2.96-6.62-6.62-6.62H9.26c-3.65,0-6.62,2.96-6.62,6.62v6.14c0,3.65,2.98,6.63,6.63,6.63h20.81c0.3,0,0.61,0.07,0.88,0.21
		l8.37,4.33c0.77,0.4,1.57-0.47,1.11-1.2L37.13,38.73z M34.65,41.01l-3.5-1.69c-0.31-0.16-0.66-0.24-1.01-0.24H9.26
		c-2.77,0-5.02-2.25-5.02-5.02V27.9c0-2.76,2.26-5.02,5.02-5.02h21.97c2.76,0,5.02,2.26,5.02,5.02l0,5.82
		c0,0.83-0.14,1.65-0.46,2.41c-0.27,0.66-0.44,0.7-0.47,0.85c-0.44,0.75-0.1,1.63,0.17,2.13c0.14,0.25,0.26,0.41,0.26,0.41
		l1.88,3.02l-2.97-1.53H34.65z"/>
	<polygon class="st0" points="27.2,26.79 18.08,35.93 12.31,30.14 14.57,27.89 18.08,31.4 24.95,24.54 	"/>
</g>
</svg>
