<?xml version="1.0" encoding="utf-8"?>
<!-- Generator: Adobe Illustrator 24.1.0, SVG Export Plug-In . SVG Version: 6.00 Build 0)  -->
<svg version="1.1" id="Layer_1" xmlns="http://www.w3.org/2000/svg" xmlns:xlink="http://www.w3.org/1999/xlink" x="0px" y="0px"
	 viewBox="0 0 150 150" style="enable-background:new 0 0 150 150;" xml:space="preserve">
<g id="XMLID_1077_">
	<rect id="XMLID_1079_" x="76.74" y="94.45" width="18.55" height="54.66"/>
	<polygon id="XMLID_1086_" points="24.22,72.47 41.58,72.47 41.58,54.02 24.32,54.02 	"/>
	<path id="XMLID_1087_" d="M44.28,142.35c0,3.71,3.01,6.72,6.72,6.72h20.46V94.41H44.28V142.35z"/>
	<path id="XMLID_1088_" d="M24.18,104.93c0,3.71,3.01,6.72,6.72,6.72h10.63v-33.8H24.18V104.93z"/>
	<path id="XMLID_1089_" d="M7.58,83.4c0,1.6,0.6,3.21,1.81,4.31c2.31,2.41,6.22,2.41,8.63,0l0.7-0.7l0.2-17.45l-9.53,9.53
		C8.18,80.19,7.58,81.8,7.58,83.4z"/>
	<path id="XMLID_1090_" d="M9.48,32.75c-1.6-0.1-3.11,0.6-4.31,1.71c-1.1,1.2-1.81,2.71-1.81,4.31s0.6,3.21,1.81,4.31l13.74,13.94
		V39.48l-5.12-4.91C12.69,33.36,11.09,32.75,9.48,32.75z"/>
	<path id="XMLID_1091_" d="M26.33,17.41c-1.2,1.2-2.01,2.91-2.01,4.71V48.6h17.25V15.5l-10.43-0.1
		C29.34,15.4,27.63,16.11,26.33,17.41z"/>
	<path id="XMLID_1092_" d="M100.71,149.11h19.76c3.71,0,6.72-3.01,6.72-6.72V94.45h-26.48V149.11z"/>
	<path id="XMLID_1093_" d="M129.67,62.99c0.43,0,0.85-0.03,1.25-0.09v-1.87c1.1-0.19,2.11-0.63,2.98-1.26l0.8,0.81l0.5,0.5
		c0.64-0.48,1.21-1.05,1.69-1.7l-1.31-1.31c0.61-0.87,1.03-1.87,1.21-2.97h1.86c0.05-0.38,0.08-0.79,0.08-1.18
		c0-0.38-0.02-0.75-0.07-1.12c0-0.03-0.01-0.07-0.01-0.1h-1.92v1.08l-0.39,0.05c-0.26,0.04-0.54,0.06-0.81,0.06
		c-0.26,0-0.5-0.02-0.74-0.05l-0.06-0.01v0.08c0,2.79-2.27,5.06-5.06,5.06c-2.79,0-5.07-2.26-5.07-5.06c0-2.8,2.27-5.06,5.07-5.06
		h0.08l0-0.03c-0.03-0.24-0.05-0.49-0.05-0.77c0-0.29,0.01-0.54,0.05-0.79l0.05-0.39h1.12v-1.93c-0.04,0-0.08-0.01-0.12-0.01
		c-0.37-0.05-0.75-0.07-1.13-0.07c-0.39,0-0.77,0.02-1.14,0.07v1.85c-1.11,0.18-2.14,0.61-3.01,1.23l-1.31-1.31
		c-0.64,0.47-1.22,1.04-1.71,1.68l0.5,0.51l0.81,0.8c-0.64,0.88-1.08,1.91-1.27,3.01h-1.86c-0.06,0.4-0.08,0.81-0.08,1.22
		c0,0.4,0.02,0.8,0.08,1.18h1.85c0.18,1.12,0.62,2.15,1.26,3.03l-1.3,1.3c0.48,0.64,1.05,1.22,1.69,1.69l0.51-0.5l0.8-0.8
		c0.88,0.62,1.91,1.06,3.03,1.23v1.86C128.9,62.97,129.28,62.99,129.67,62.99z"/>
	<path id="XMLID_1094_" d="M126.78,52.57c0.33-0.7,0.91-1.27,1.62-1.57c0.07-0.03,0.13-0.06,0.2-0.08c0.33-0.12,0.7-0.19,1.08-0.19
		c0.42,0,0.81,0.08,1.18,0.24c0.04,0.01,0.08,0.02,0.11,0.04l0.49-0.49c-0.22-0.37-0.39-0.77-0.5-1.18
		c-0.15-0.04-0.3-0.08-0.46-0.11c-0.23-0.04-0.47-0.06-0.7-0.07c-0.04,0-0.09,0-0.13,0c-2.64,0-4.78,2.14-4.78,4.78
		c0,2.64,2.14,4.77,4.78,4.77c2.64,0,4.78-2.14,4.78-4.77v-0.12c0-0.18-0.02-0.36-0.05-0.54c-0.03-0.21-0.07-0.43-0.13-0.63
		c-0.4-0.11-0.79-0.27-1.15-0.49l-0.51,0.51c0.01,0.04,0.03,0.07,0.05,0.11c0.13,0.36,0.21,0.74,0.21,1.15
		c0,0.39-0.07,0.77-0.2,1.12c-0.02,0.05-0.05,0.1-0.07,0.16c-0.31,0.71-0.86,1.29-1.57,1.62c-0.06,0.03-0.12,0.05-0.18,0.07
		c-0.37,0.15-0.76,0.23-1.18,0.23c-0.38,0-0.75-0.07-1.08-0.19c-0.08-0.02-0.15-0.06-0.22-0.08c-0.7-0.31-1.28-0.88-1.61-1.59
		c-0.03-0.07-0.06-0.15-0.1-0.22c-0.12-0.34-0.21-0.72-0.21-1.12c0-0.41,0.08-0.79,0.22-1.15
		C126.71,52.71,126.74,52.63,126.78,52.57z"/>
	<path id="XMLID_1099_" d="M136.28,43.84v-1.1c-0.24-0.03-0.49-0.05-0.74-0.05c-0.23,0-0.46,0.01-0.68,0.04v1.1
		c-0.66,0.11-1.27,0.36-1.79,0.73l-0.78-0.78c-0.38,0.28-0.72,0.62-1.01,1l0.3,0.3l0.48,0.48c-0.38,0.52-0.64,1.13-0.75,1.79h-1.1
		c-0.03,0.23-0.05,0.48-0.05,0.72c0,0.24,0.01,0.48,0.05,0.7h1.1c0.11,0.67,0.37,1.28,0.75,1.8l-0.77,0.77
		c0.28,0.38,0.62,0.72,1.01,1l0.3-0.3l0.48-0.48c0.52,0.37,1.14,0.63,1.8,0.73v1.1c0.22,0.03,0.45,0.04,0.68,0.04
		c0.25,0,0.5-0.02,0.74-0.05v-1.11c0.65-0.11,1.25-0.37,1.77-0.75l0.48,0.48l0.3,0.3c0.38-0.29,0.72-0.63,1-1.01l-0.78-0.78
		c0.36-0.52,0.62-1.12,0.72-1.76h1.1c0.03-0.23,0.05-0.47,0.05-0.7c0-0.24-0.02-0.49-0.05-0.72h-1.1c-0.11-0.65-0.36-1.24-0.72-1.75
		l0.78-0.78c-0.29-0.38-0.62-0.72-1-1.01l-0.3,0.3l-0.48,0.48C137.53,44.21,136.93,43.95,136.28,43.84z M138.54,48.07
		c0,1.66-1.35,3.01-3.01,3.01c-1.66,0-3.01-1.35-3.01-3.01c0-1.66,1.35-3.01,3.01-3.01C137.19,45.06,138.54,46.41,138.54,48.07z"/>
	<path id="XMLID_1102_" d="M135.53,45.23c-1.57,0-2.84,1.27-2.84,2.84c0,1.57,1.27,2.84,2.84,2.84c1.57,0,2.84-1.27,2.84-2.84
		C138.37,46.5,137.1,45.23,135.53,45.23z M137.31,48.73c-0.01,0.03-0.03,0.06-0.04,0.09c-0.18,0.42-0.51,0.77-0.93,0.97
		c-0.04,0.02-0.07,0.03-0.11,0.04c-0.22,0.09-0.45,0.14-0.7,0.14c-0.22,0-0.44-0.04-0.64-0.11c-0.04-0.01-0.08-0.03-0.13-0.05
		c-0.42-0.19-0.76-0.52-0.96-0.94c-0.02-0.04-0.04-0.08-0.05-0.13c-0.07-0.2-0.12-0.43-0.12-0.66c0-0.24,0.05-0.47,0.13-0.68
		c0.02-0.04,0.03-0.09,0.05-0.13c0.2-0.42,0.54-0.75,0.96-0.93c0.04-0.02,0.08-0.04,0.12-0.05c0.2-0.07,0.42-0.11,0.64-0.11
		c0.25,0,0.48,0.05,0.7,0.14c0.03,0.01,0.06,0.02,0.09,0.04c0.42,0.19,0.76,0.54,0.95,0.95c0.01,0.03,0.02,0.06,0.03,0.09
		c0.08,0.21,0.13,0.44,0.13,0.68C137.43,48.3,137.39,48.52,137.31,48.73z"/>
	<path id="XMLID_1103_" d="M138.74,63.13c-0.81-0.53-1.86-0.56-2.7-0.06h-0.01l-1.19,0.64c0.57,0.1,1.11,0.34,1.57,0.68
		L138.74,63.13z"/>
	<path id="XMLID_1104_" d="M138.04,66.05l4.44-2.4c-0.53-0.55-1.36-0.77-1.98-0.47l-3.41,1.85c0.28,0.35,0.5,0.75,0.64,1.18
		L138.04,66.05z"/>
	<path id="XMLID_1105_" d="M143.92,63.88l-5.46,2.95l-0.55,0.3c0.01,0.08,0.02,0.18,0.02,0.26c0,0.26-0.21,0.46-0.47,0.45
		l-3.78-0.17c-1.11-0.06-2.22,0-3.32,0.15c-0.24,0.04-0.47-0.13-0.5-0.37c-0.03-0.25,0.14-0.48,0.38-0.5
		c1.16-0.16,2.32-0.21,3.48-0.16l3.28,0.15c-0.23-1.38-1.42-2.39-2.82-2.39h-4.42c-0.86,0-1.71-0.2-2.48-0.57l-0.46-0.22
		c-2.33-1.13-5.09-0.86-7.16,0.69l-1.09,0.97c-0.6,0.53-5.91,3.26-7.18,3.92l3.99,6.2c0.01-0.01,0.03-0.02,0.04-0.03l6.65-3.8
		c0.64-0.36,1.4-0.47,2.13-0.29l6.63,1.22c1.6,0.28,3.25,0.06,4.71-0.65l11.1-7.63C145.96,63.59,144.83,63.4,143.92,63.88z"/>
	<path id="XMLID_1106_" d="M113.25,83.81c0.12,0.04,3.22-4.97,3.22-4.97l-7.4-10.84l-4.68,2.37
		C104.4,70.36,113.14,83.77,113.25,83.81z"/>
	<path id="XMLID_1109_" d="M137.91,58.2c0,1.63,1.32,2.95,2.95,2.95c1.63,0,2.95-1.32,2.95-2.95c0-1.63-1.32-2.95-2.95-2.95
		C139.24,55.25,137.91,56.57,137.91,58.2z M143.35,58.2c0,1.37-1.11,2.48-2.48,2.48c-1.37,0-2.48-1.11-2.48-2.48
		c0-1.37,1.11-2.48,2.48-2.48C142.23,55.72,143.35,56.83,143.35,58.2z"/>
	<polygon id="XMLID_1110_" points="139.49,57.77 139,58.26 140.36,59.63 142.73,57.26 142.23,56.77 140.36,58.64 	"/>
	<path id="XMLID_1111_" d="M47.39,39.38l0.84,0.19l4.17-20.03l-0.84-0.18c-0.5-0.1-1,0.22-1.11,0.72l-3.79,18.19
		C46.57,38.78,46.89,39.27,47.39,39.38z"/>
	<path id="XMLID_1114_" d="M69.92,35.67c0.65,2.28,3.03,3.6,5.31,2.94c0.41-0.12,0.81-0.3,1.17-0.53c0.01-0.01,0.03-0.02,0.04-0.03
		c3.14-2.11,2.2-6.98-1.52-7.76c-0.76-0.16-1.56-0.11-2.29,0.15c-0.31,0.11-0.61,0.26-0.89,0.43c-0.37,0.24-0.7,0.53-0.98,0.86
		c-0.1,0.14-0.27,0.2-0.43,0.17l-2.54-0.53l-5.48-1.14l-0.72,3.47l5.51,1.15c0,0,0,0,0,0l2.35,0.49l0.15,0.03
		C69.75,35.41,69.88,35.52,69.92,35.67z M71.56,33.97c0.14-0.66,0.53-1.24,1.1-1.61c0.01-0.01,0.03-0.02,0.04-0.03
		c1.17-0.74,2.72-0.4,3.48,0.76c0.76,1.16,0.45,2.72-0.69,3.49c-0.01,0.01-0.03,0.02-0.04,0.03c-1.18,0.77-2.75,0.44-3.53-0.74
		C71.55,35.32,71.42,34.63,71.56,33.97z"/>
	<path id="XMLID_1117_" d="M53.22,40.6l0.8-3.77c0.05-0.23,0.27-0.38,0.5-0.33c0.23,0.05,0.38,0.27,0.33,0.5l-0.8,3.76l5.82,1.21
		c0.51,0.1,1-0.22,1.11-0.73l0.65-3.14c-0.98-0.41-1.54-1.47-1.32-2.51l1.59-7.61c0.22-1.05,1.15-1.79,2.22-1.78l0.65-3.13
		c0.1-0.51-0.22-1-0.72-1.11l-5.81-1.22l-0.8,3.77c-0.05,0.23-0.27,0.37-0.5,0.33c-0.23-0.05-0.37-0.27-0.33-0.5l0.8-3.76
		l-4.18-0.87l-4.18,20.02L53.22,40.6z M52.9,30.08c0.37-1.77,2.1-2.91,3.87-2.54c1.77,0.37,2.91,2.1,2.54,3.87
		c-0.37,1.77-2.1,2.91-3.87,2.54l0,0C53.67,33.59,52.53,31.86,52.9,30.08L52.9,30.08z"/>
	<path id="XMLID_1118_" d="M55.61,33.14c0.63,0.13,1.29,0.01,1.82-0.35c1.12-0.74,1.43-2.24,0.7-3.37c-0.74-1.12-2.24-1.43-3.37-0.7
		c-0.54,0.35-0.91,0.9-1.04,1.53C53.45,31.58,54.3,32.86,55.61,33.14z"/>
	<path id="XMLID_1119_" d="M89.24,11.95c0.1-0.51-0.22-1-0.72-1.11L70.33,7.06c-0.5-0.1-1,0.22-1.11,0.72l-0.17,0.84l20.03,4.17
		L89.24,11.95z"/>
	<path id="XMLID_1122_" d="M67.37,21.37l3.13,0.65c0.41-0.98,1.47-1.54,2.51-1.32l7.61,1.58c1.04,0.22,1.79,1.15,1.77,2.22
		l3.14,0.65c0.51,0.1,1-0.22,1.11-0.73l1.21-5.82l-3.77-0.77c-0.23-0.05-0.38-0.28-0.33-0.51c0.05-0.23,0.28-0.38,0.5-0.33
		l3.77,0.77l0.88-4.18L68.89,9.44l-0.87,4.19l3.77,0.77c0.23,0.05,0.37,0.27,0.33,0.5c-0.05,0.23-0.27,0.37-0.5,0.33l-3.77-0.77
		l-1.2,5.82C66.54,20.77,66.86,21.26,67.37,21.37z M74.64,15.83c0.37-1.77,2.11-2.91,3.88-2.54l0.01,0c1.77,0.38,2.9,2.11,2.53,3.88
		l0,0c-0.37,1.77-2.11,2.91-3.88,2.54C75.41,19.33,74.28,17.6,74.64,15.83z"/>
	<path id="XMLID_1123_" d="M79.2,18.53c0.54-0.35,0.91-0.91,1.04-1.53c0.28-1.32-0.57-2.61-1.88-2.88
		c-0.63-0.13-1.28-0.01-1.82,0.35c-1.12,0.73-1.44,2.24-0.71,3.36C76.57,18.95,78.07,19.26,79.2,18.53z"/>
	<path id="XMLID_1124_" d="M77.99,40.33c3.25-2.13,4.16-6.49,2.03-9.75c-0.71-1.09-1.68-1.91-2.77-2.45l1.13-5.43l-3.46-0.72
		l-1.13,5.43c-1.21,0.06-2.43,0.43-3.51,1.14c-0.98,0.64-1.75,1.49-2.29,2.45l2.4,0.5c0.31-0.4,0.69-0.75,1.14-1.04
		c0.56-0.37,1.16-0.6,1.78-0.71c1.2-0.21,2.45,0.05,3.47,0.72c0.52,0.35,0.98,0.8,1.35,1.36c1.44,2.2,0.83,5.15-1.37,6.59
		c-2.2,1.44-5.15,0.83-6.59-1.37c-0.24-0.37-0.43-0.77-0.56-1.17l-2.44-0.51c0.13,1.01,0.49,2.01,1.09,2.93
		C70.37,41.55,74.74,42.46,77.99,40.33z"/>
	<path id="XMLID_1127_" d="M93.63,59.94l-0.79-0.77c-1.61-1.5-3.7-2.33-5.9-2.33c0,0,0,0-0.02,0c-2.29,0-4.47,0.92-6.12,2.55
		c-0.29,0.29-0.53,0.57-0.75,0.88l-0.92-0.92l0,0l-8.66-8.66c-2.05-2.04-4.77-3.17-7.67-3.17c-2.86,0-5.66,1.16-7.68,3.18
		c-2.05,2.05-3.18,4.78-3.19,7.67c0,2.9,1.12,5.63,3.17,7.68l7.11,7.11l1.56,1.56l7.09,7.09c2.13,2.13,4.91,3.19,7.7,3.19
		c2.77,0,5.57-1.06,7.68-3.19c2.02-2.02,3.08-4.66,3.17-7.3c1.56-0.33,3.01-1.1,4.22-2.31c3.3-3.3,3.37-8.65,0.2-12.03
		C93.76,60.07,93.7,60,93.63,59.94z M80.67,63.98c0.18-0.75,0.48-1.47,0.97-2.13c0.2-0.33,0.44-0.62,0.73-0.9
		c1.23-1.23,2.84-1.91,4.58-1.91c1.36,0,2.64,0.42,3.72,1.19l-5.32,5.32l-1.54,1.56l-2.13,2.11C80.56,67.66,80.23,65.74,80.67,63.98
		z M63.77,71.6l-7.11-7.11c-1.63-1.63-2.53-3.81-2.53-6.12c0-2.31,0.91-4.49,2.54-6.12c1.62-1.61,3.85-2.54,6.13-2.54
		c2.31,0,4.49,0.9,6.11,2.52l7.11,7.11l-9.32,9.32L63.77,71.6z M84.68,80.26c-3.37,3.37-8.87,3.37-12.25,0l-7.08-7.11L77.59,60.9
		l1.32,1.32v0.02c-1.23,3.04-0.66,6.64,1.69,9.15l0.77,0.77l0.22,0.22l0.02-0.02c1.56,1.5,3.56,2.27,5.57,2.33
		C87.05,76.72,86.22,78.72,84.68,80.26z M92.07,70.63c-0.81,0.81-1.78,1.36-2.82,1.65c-0.7,0.2-1.45,0.29-2.2,0.22
		c-1.14-0.09-2.29-0.46-3.28-1.17l2-1.98v-0.02l6.99-7C94.55,64.86,94.31,68.38,92.07,70.63z"/>
	
		<rect id="XMLID_1131_" x="72.13" y="74.55" transform="matrix(0.7068 -0.7074 0.7074 0.7068 -32.59 73.7528)" width="1.1" height="3.27"/>
	<path id="XMLID_1132_" d="M75.12,78.13l-0.78,0.78c1.12,1.12,2.43,2.2,3.9,2.2c0.3,0,0.6-0.04,0.92-0.14l-0.33-1.05
		C77.54,80.31,76.23,79.24,75.12,78.13z"/>
	<path id="XMLID_1135_" d="M105.54,26.5c0.85,1.17,0.68,3.49,0.52,4.32c-0.04,0.27,0.09,0.5,0.33,0.61l12.63,5.48
		c0.15,0.07,0.33,0.07,0.5-0.01c0.14-0.09,0.24-0.25,0.26-0.42c0.02-0.4-0.01-0.8-0.1-1.18c-0.03-0.22-0.05-0.46-0.07-0.67
		c-0.03-0.58-0.02-1.14,0.05-1.7c0.15-1.09,0.39-2.17,0.71-3.21c0.49-1.59,1.37-3,2.58-4.12c0.73-0.61,1.5-1.12,2.31-1.56
		c0.48-0.28,1-0.57,1.47-0.88c1.12-0.74,2.08-1.74,2.7-2.93l-1.54,0.35c-0.49,0.66-1.08,1.23-1.76,1.67
		c-0.44,0.3-0.92,0.57-1.39,0.83c-0.9,0.48-1.74,1.04-2.5,1.71c-1.37,1.25-2.38,2.84-2.9,4.62c-0.36,1.11-0.6,2.26-0.75,3.4
		c-0.09,0.61-0.11,1.24-0.06,1.85c0,0.28,0.04,0.56,0.1,0.82l-0.01,0.07l-11.4-4.94c0.18-1.36,0.06-2.73-0.36-3.99
		c0.15,0.01,0.28,0.02,0.4,0.02c0.45,0.04,0.77,0.06,0.94,0.08c2.45,0.28,3.97-0.24,4.47-1.51c0.11-0.26-0.03-0.58-0.31-0.7
		c-0.13-0.06-0.28-0.07-0.41,0c-0.12,0.05-0.22,0.16-0.28,0.29c-0.23,0.52-0.97,1.09-3.36,0.84c-0.17-0.02-0.52-0.05-0.96-0.09
		c-0.42-0.03-0.92-0.07-1.47-0.11c-1.64-0.13-3.29-0.31-4.89-0.6c-0.51-0.12-0.83-0.62-0.74-1.12c0.02-0.33,0.1-0.65,0.26-0.94
		c0.07-0.1,0.14-0.2,0.21-0.3c0.26-0.3,0.42-0.67,0.51-1.04c0.06-0.54-0.11-1.05-0.47-1.44l-0.08-0.11
		c0.11-0.08,0.22-0.16,0.33-0.22c0.13-0.07,0.24-0.2,0.28-0.34c0.04-0.14,0.03-0.3-0.05-0.41c-0.09-0.14-0.28-0.48-0.42-0.75
		c0.04-0.03,0.11-0.08,0.15-0.11c0.14-0.09,0.3-0.21,0.47-0.36c0.3-0.28,0.52-0.65,0.62-1.07c0.14-0.66-0.32-1.22-0.65-1.62
		c-0.11-0.15-0.21-0.27-0.3-0.44c-0.08-0.11-0.15-0.25-0.2-0.37c0.03-0.06,0.2-0.22,0.8-0.53c1.39-0.76,2.71-1.67,3.92-2.71
		c0.22-0.16,0.39-0.37,0.5-0.61c0.17-0.52,0.1-1.11-0.19-1.57c-0.11-0.28-0.23-0.54-0.18-0.7c0.06-0.13,0.13-0.23,0.24-0.31
		c0.16-0.19,0.36-0.36,0.54-0.53c0.41-0.34,0.75-0.7,1.07-1.1l0.12-0.15c0.33-0.47,0.69-0.93,1.08-1.35
		c0.86-0.91,1.93-1.65,3.1-2.14c1.43-0.61,3.2-0.66,5.43-0.17c1.71,0.34,3.39,0.79,5.01,1.37c0.23,0.07,0.44,0.17,0.64,0.25
		c0.4-0.16,0.87-0.34,1.37-0.53c-0.5-0.27-1.04-0.51-1.61-0.73c-1.69-0.61-3.41-1.08-5.16-1.44c-2.47-0.54-4.46-0.46-6.1,0.23
		c-1.3,0.56-2.48,1.36-3.45,2.4c-0.43,0.45-0.82,0.93-1.19,1.43l-0.1,0.16c-0.28,0.34-0.6,0.66-0.93,0.95
		c-0.2,0.17-0.41,0.36-0.61,0.56c-0.22,0.21-0.42,0.49-0.5,0.79c-0.11,0.49,0,1,0.24,1.44c0.13,0.34,0.24,0.57,0.17,0.72
		c-0.05,0.06-0.12,0.1-0.18,0.18c-1.15,0.99-2.42,1.87-3.76,2.6c-0.57,0.29-1.15,0.63-1.32,1.2c-0.06,0.44,0.05,0.89,0.33,1.25
		c0.13,0.18,0.25,0.37,0.39,0.53c0.17,0.2,0.45,0.56,0.42,0.7c-0.03,0.19-0.13,0.36-0.28,0.47c-0.13,0.12-0.26,0.25-0.4,0.32
		c-0.31,0.25-0.86,0.68-0.58,1.26c0.07,0.13,0.2,0.37,0.31,0.58c-0.22,0.16-0.4,0.39-0.49,0.66c-0.06,0.2-0.03,0.42,0.09,0.61
		c0.07,0.13,0.17,0.26,0.25,0.37c0.23,0.31,0.3,0.44,0.27,0.61c-0.06,0.2-0.18,0.41-0.33,0.58l-0.24,0.36
		c-0.25,0.46-0.41,0.93-0.42,1.44c-0.16,1.06,0.54,2.06,1.6,2.27C102.36,26.18,103.94,26.39,105.54,26.5z"/>
	<path id="XMLID_1140_" d="M132.13,11.05l0.3,0.78c0.12,0.31-0.04,0.68-0.36,0.82l-0.93,0.36l-1.02,0.38l0.53,1.37l0.12-0.05
		c0.12-0.05,0.27-0.09,0.39-0.11c0.87-0.16,1.71,0.26,2.09,1.05c0.19,0.5,0.21,0.99,0.03,1.51c-0.2,0.45-0.6,0.84-1.07,1.02
		l-0.2,0.09l0.52,1.34l5.25-2.05c0.53-0.21,0.79-0.81,0.59-1.34l-2.03-5.24l-1.96,0.76c-0.33,0.11-0.7-0.05-0.82-0.36l-0.29-0.8
		c-0.12-0.31-0.49-0.47-0.8-0.35C132.15,10.37,132,10.71,132.13,11.05z"/>
	<path id="XMLID_1141_" d="M127.81,16.32l0.76-0.3c0.33-0.13,0.48-0.48,0.36-0.81c-0.13-0.33-0.48-0.48-0.81-0.36l-0.76,0.3
		c-0.33,0.13-0.68-0.03-0.81-0.36l-0.76-1.95l-1.36,0.53l0.05,0.13c0.38,0.96-0.04,2.05-0.95,2.47c-0.47,0.2-1,0.22-1.48,0.03
		c-0.48-0.21-0.86-0.59-1.04-1.06l-0.08-0.2l-1.36,0.53l2.05,5.24c0.21,0.55,0.82,0.81,1.37,0.6l5.24-2.05l-0.76-1.95
		C127.33,16.8,127.48,16.45,127.81,16.32z"/>
	<path id="XMLID_1163_" d="M124.84,6.98c0.12,0.31-0.05,0.7-0.35,0.8L123.7,8.1c-0.18,0.05-0.3,0.15-0.36,0.3
		c-0.05,0.18-0.05,0.34,0.01,0.52c0.15,0.3,0.53,0.44,0.87,0.3l0.71-0.28c0.31-0.12,0.69,0.02,0.82,0.36l0.75,1.93l1.34-0.52
		l-0.05-0.12c-0.29-0.75-0.1-1.54,0.39-2.07c0.17-0.16,0.36-0.28,0.58-0.39c0.13-0.07,0.28-0.11,0.42-0.13
		c0.35-0.1,0.72-0.05,1.07,0.08c0.47,0.21,0.82,0.59,1.02,1.07l0.07,0.19l1.37-0.53l-2.05-5.25c-0.21-0.53-0.81-0.79-1.34-0.59
		l-3.51,1.37l-1.24,0.48l-0.5,0.19L124.84,6.98z"/>
	<path id="XMLID_1427_" d="M123.44,6.85l-0.53-1.36l-5.24,2.05c-0.55,0.21-0.81,0.82-0.61,1.35l2.05,5.24l1.95-0.76
		c0.33-0.13,0.69,0.05,0.81,0.36l0.31,0.78c0.06,0.16,0.19,0.28,0.35,0.35c0.17,0.06,0.34,0.06,0.5-0.01
		c0.3-0.14,0.43-0.52,0.29-0.87l-0.28-0.71c-0.12-0.31,0.03-0.68,0.36-0.81l1.95-0.76l-0.53-1.35l-0.13,0.05
		c-0.96,0.38-2.05-0.04-2.47-0.95c-0.21-0.48-0.22-1-0.04-1.5c0.21-0.48,0.59-0.84,1.07-1.02L123.44,6.85z"/>
</g>
</svg>
