<?xml version="1.0" encoding="utf-8"?>
<!-- Generator: Adobe Illustrator 24.1.0, SVG Export Plug-In . SVG Version: 6.00 Build 0)  -->
<svg version="1.1" id="Layer_1" xmlns="http://www.w3.org/2000/svg" xmlns:xlink="http://www.w3.org/1999/xlink" x="0px" y="0px"
	 viewBox="0 0 150 150" style="enable-background:new 0 0 150 150;" xml:space="preserve">
<style type="text/css">
	.st0{fill:#231F20;}
</style>
<path id="XMLID_872_" class="st0" d="M125.89,117.9v-66.5h-17.22v66.5h-8.66v-49.1H82.79v49.1h-8.61V79.55H56.96v38.35h-8.61V96.29
	H31.12v21.62H14.96v-16.96c7.5-4.17,14.56-7.86,18.73-10.03c0.93,1.07,2.31,1.69,3.82,1.69c2.93,0,5.28-2.35,5.28-5.28
	c0-1.64-0.75-3.15-2-4.08l5.77-11.45l14.96-2.49c0.67,2.09,2.62,3.6,4.97,3.6c2.89,0,5.24-2.35,5.24-5.28l11.81-1.95l4.75-8.03
	c0.53,0.22,1.15,0.31,1.78,0.31c2.89,0,5.28-2.4,5.28-5.28c0-1.6-0.71-3.02-1.82-3.95l1.29-2.18l16.29-4.66
	c0.84,1.82,2.66,3.02,4.75,3.02c2.93,0,5.28-2.35,5.28-5.28c0-0.18,0-0.4-0.04-0.58l10.92-3.11l1.29,3.51l12.47-9.41h-15.94
	l1.46,3.91l-10.88,3.11c-0.89-1.6-2.57-2.71-4.57-2.71c-2.89,0-5.28,2.4-5.28,5.28v0.22l-17.14,4.93l-1.69,2.89
	c-0.53-0.18-1.11-0.27-1.69-0.27c-2.93,0-5.28,2.35-5.28,5.28c0,1.51,0.67,2.93,1.73,3.86l-4.26,7.28l-10.92,1.82
	c-0.8-1.91-2.66-3.24-4.84-3.24c-2.8,0-5.11,2.18-5.24,4.88l-16.07,2.66l-6.21,12.34c-0.44-0.13-0.93-0.22-1.46-0.22
	c-2.89,0-5.24,2.4-5.24,5.28c0,0.62,0.13,1.24,0.31,1.82c-4.04,2.09-10.57,5.5-17.62,9.41V37.6h-2.09v62.1
	c-4.04,2.26-8.21,4.66-12.16,7.01l1.11,1.78c3.55-2.13,7.32-4.31,11.05-6.39v17.89h136.41v-2.09H125.89z M115.86,36.54
	c0.93,0,1.82,0.44,2.35,1.11c0.44,0.53,0.71,1.2,0.71,1.95v0.04c-0.04,1.69-1.38,3.02-3.06,3.02c-1.11,0-2.04-0.58-2.57-1.42
	c-0.31-0.49-0.49-1.07-0.49-1.64c0-0.13,0-0.27,0.04-0.4C113.02,37.69,114.31,36.54,115.86,36.54z M87.01,52.65
	c0-1.69,1.38-3.06,3.06-3.06c0.18,0,0.31,0,0.49,0.04c0.71,0.13,1.38,0.49,1.82,1.02c0.49,0.53,0.75,1.24,0.75,2
	c0,1.69-1.38,3.06-3.06,3.06c-0.22,0-0.4,0-0.62-0.04c-0.71-0.18-1.33-0.58-1.78-1.11C87.27,54.03,87.01,53.36,87.01,52.65z
	 M66.5,64.59c1.07,0,2,0.58,2.53,1.38c0.31,0.49,0.49,1.07,0.49,1.64c0,0.13,0,0.22-0.04,0.36c-0.13,1.51-1.46,2.71-2.97,2.71
	c-1.2,0-2.26-0.71-2.75-1.73c-0.22-0.4-0.31-0.84-0.31-1.33c0-0.22,0.04-0.49,0.09-0.71C63.84,65.61,65.08,64.59,66.5,64.59z
	 M34.49,87.32c0-1.69,1.38-3.06,3.02-3.06c0.13,0,0.27,0,0.4,0.04c0.75,0.09,1.42,0.44,1.86,0.98c0.49,0.53,0.8,1.24,0.8,2.04
	c0,1.69-1.38,3.06-3.06,3.06c-0.62,0-1.24-0.22-1.73-0.58c-0.58-0.4-0.98-0.98-1.2-1.69C34.54,87.85,34.49,87.58,34.49,87.32z"/>
</svg>
