<?xml version="1.0" encoding="utf-8"?>
<!-- Generator: Adobe Illustrator 24.1.0, SVG Export Plug-In . SVG Version: 6.00 Build 0)  -->
<svg version="1.1" id="Layer_1" xmlns="http://www.w3.org/2000/svg" xmlns:xlink="http://www.w3.org/1999/xlink" x="0px" y="0px"
	 viewBox="0 0 150 150" style="enable-background:new 0 0 150 150;" xml:space="preserve">
<style type="text/css">
	.st0{fill:#231F20;}
</style>
<g id="XMLID_489_">
	<polygon id="XMLID_1475_" class="st0" points="100.91,106.33 98.34,115.81 106.4,115.81 	"/>
	<path id="XMLID_1476_" class="st0" d="M149.3,95.69l-19.71,20.11h-1.16c-0.05-0.05-0.05-0.2-0.1-0.25c-0.1-0.4-0.2-0.76-0.3-1.16
		c-0.1-0.25-0.2-0.55-0.25-0.81c-0.15-0.45-0.3-0.86-0.5-1.31c-0.1-0.25-0.2-0.55-0.3-0.86c-0.2-0.5-0.45-1.01-0.71-1.51
		c-0.15-0.25-0.25-0.5-0.35-0.76c-0.4-0.76-0.86-1.56-1.36-2.32c-0.05-0.05-0.1-0.15-0.15-0.2c-0.45-0.71-0.96-1.41-1.51-2.12
		c-0.2-0.25-0.45-0.5-0.66-0.76c-0.4-0.5-0.86-1.01-1.36-1.51c-0.3-0.3-0.6-0.55-0.91-0.86c-0.35-0.3-0.66-0.66-1.06-0.96
		C127.47,92.97,140.28,92.37,149.3,95.69z"/>
	<path id="XMLID_1474_" class="st0" d="M126.52,115.81h-18l-6.91-12l-5.29-9.07c2.32,0.05,4.59,0.25,6.65,0.66
		c5.49,0.91,10.18,2.87,13.96,5.8c0.81,0.66,1.61,1.36,2.32,2.02c0.25,0.25,0.45,0.5,0.66,0.76c0.45,0.45,0.91,0.91,1.26,1.41
		c0.25,0.3,0.45,0.6,0.71,0.86c0.3,0.45,0.66,0.91,0.91,1.36c0.25,0.3,0.4,0.6,0.6,0.91c0.25,0.45,0.5,0.86,0.71,1.26
		c0.2,0.35,0.35,0.66,0.5,0.96c0.2,0.4,0.35,0.81,0.55,1.21c0.1,0.3,0.25,0.6,0.35,0.91c0.15,0.4,0.3,0.76,0.4,1.16
		c0.1,0.25,0.2,0.55,0.3,0.81C126.32,115.15,126.42,115.5,126.52,115.81z"/>
	<path id="XMLID_1478_" class="st0" d="M120.97,60.76l-18.35,32.66c-0.76-0.1-1.56-0.15-2.32-0.25c-0.45-0.05-0.86-0.1-1.36-0.15
		c-1.36-0.1-2.77-0.2-4.23-0.2H93.1l6.5,11.24l-3.18,11.75h-3.53c-0.15-0.76-0.3-1.56-0.45-2.32c-0.2-0.91-0.35-1.81-0.55-2.67
		c-0.25-1.31-0.6-2.57-0.91-3.83c-0.2-0.76-0.35-1.51-0.55-2.27c-0.4-1.51-0.81-2.97-1.26-4.44c-0.15-0.45-0.25-0.91-0.4-1.36
		c-0.6-1.92-1.21-3.73-1.87-5.54c-0.15-0.4-0.35-0.81-0.5-1.26c-0.5-1.31-1.01-2.67-1.56-3.93c-0.25-0.66-0.55-1.21-0.86-1.81
		c-0.45-1.06-0.91-2.12-1.41-3.13c-0.3-0.6-0.66-1.26-1.01-1.87c-0.45-0.91-0.96-1.87-1.46-2.72c-0.35-0.66-0.71-1.21-1.11-1.87
		c-0.4-0.71-0.86-1.41-1.26-2.12C87.15,65.95,108.42,61.62,120.97,60.76z"/>
	<path id="XMLID_1480_" class="st0" d="M91.03,115.81H45.36L44,111.42L25.45,50.48c5.39-0.81,31.81-3.13,50.26,24.6
		c0.91,1.36,1.81,2.77,2.62,4.23c0.3,0.45,0.55,1.01,0.86,1.51c0.5,1.01,1.06,1.97,1.61,3.02c0.3,0.6,0.55,1.26,0.86,1.92
		c0.45,0.96,0.91,1.92,1.36,2.92c0.3,0.71,0.6,1.46,0.91,2.22c0.4,0.96,0.76,1.92,1.16,2.92c0.25,0.76,0.55,1.61,0.81,2.42
		c0.35,1.01,0.71,1.97,1.01,3.02c0.3,0.86,0.55,1.71,0.81,2.62c0.3,1.01,0.6,2.07,0.86,3.13c0.25,0.91,0.5,1.87,0.71,2.82
		c0.25,1.06,0.55,2.12,0.76,3.23c0.25,0.96,0.45,2.02,0.66,3.02C90.78,114.65,90.88,115.25,91.03,115.81z"/>
	<path id="XMLID_1477_" class="st0" d="M43.39,115.81h-9.12l-0.35-0.6l-16.63-30.4l-6.45-11.8c3.48-0.45,13.21-1.16,20.52,3.33
		L43.39,115.81z"/>
	<path id="XMLID_1482_" class="st0" d="M32.15,115.81H20.66c-5.7-8.32-16.74-18.2-19.96-21.02c2.62-1.87,10.23-6.96,15.58-7.96
		l13.56,24.75L32.15,115.81z"/>
	<path id="XMLID_1467_" class="st0" d="M109.67,122.83c-8.19,0.65-16.68,1.34-33.39,1.34c-16.68,0-25.18-0.69-33.38-1.34
		c-8.07-0.65-16.42-1.32-32.56-1.34H9.39v1.86h0.95c16.07,0.02,24.38,0.69,32.43,1.34c4.01,0.33,8.1,0.65,13.17,0.89
		c5.33,0.26,11.76,0.45,20.34,0.45c8.6,0,15.02-0.19,20.36-0.45c5.07-0.24,9.15-0.56,13.17-0.89c7.24-0.59,14.69-1.17,27.79-1.3
		c1.77-0.02,3.62-0.04,5.6-0.04v-1.86c-1.98,0-3.85,0.02-5.6,0.04C124.43,121.65,116.95,122.24,109.67,122.83z"/>
	<path id="XMLID_1466_" class="st0" d="M10.35,125.18c8.01,0.05,14.11,0.2,19.26,0.45v1.87c-5.09-0.25-11.19-0.4-19.26-0.45H9.39
		v-1.87H10.35z"/>
	<path id="XMLID_1465_" class="st0" d="M34.24,125.89c2.32,0.15,4.39,0.3,6.45,0.45v1.87c-2.07-0.15-4.18-0.3-6.45-0.45V125.89z"/>
	<path id="XMLID_1464_" class="st0" d="M109.65,126.54c2.27-0.2,4.54-0.35,7.01-0.55v1.87c-2.42,0.2-4.64,0.35-6.86,0.55
		c-4.03,0.3-8.12,0.66-13.16,0.86c-5.34,0.3-11.75,0.45-20.37,0.45c-8.57,0-15.02-0.15-20.31-0.45c-5.09-0.2-9.17-0.55-13.21-0.86
		c-0.25,0-0.5-0.05-0.76-0.05v-1.87c0.3,0,0.6,0.05,0.91,0.05c8.22,0.66,16.69,1.31,33.37,1.31S101.49,127.2,109.65,126.54z"/>
	<path id="XMLID_1463_" class="st0" d="M143.17,125.18v1.87c-1.97,0-3.83,0.05-5.6,0.05c-3.83,0.05-7.16,0.1-10.13,0.2v-1.87
		c2.97-0.1,6.3-0.15,10.13-0.2C139.34,125.23,141.21,125.18,143.17,125.18z"/>
	<path id="XMLID_1455_" class="st0" d="M75.12,20.28c-8.09,0-14.64,6.55-14.64,14.64c0,12.11,14.64,25.48,14.64,25.48
		s14.64-13.26,14.64-25.48C89.76,26.83,83.19,20.28,75.12,20.28z M75.12,43.02c-4.83,0-8.74-3.92-8.74-8.74
		c0-4.83,3.92-8.74,8.74-8.74c4.83,0,8.74,3.92,8.74,8.74C83.87,39.11,79.95,43.02,75.12,43.02z"/>
	<path id="XMLID_1454_" class="st0" d="M75.12,31.25c-2.52-3.57-8.56,0.08-4.68,5.41c1.44,2.15,4.68,3.85,4.68,3.85
		s3.23-1.7,4.68-3.85C83.68,31.33,77.64,27.68,75.12,31.25z"/>
	<path id="XMLID_1468_" class="st0" d="M10.35,117.12H9.39v1.86v1.4h34.16c3.77,0.31,7.65,0.6,12.4,0.83
		c5.33,0.26,11.76,0.45,20.34,0.45c8.6,0,15.02-0.19,20.36-0.45c4.75-0.23,8.62-0.52,12.4-0.83h34.16v-1.4v-1.86H10.35z"/>
</g>
</svg>
