<?xml version="1.0" encoding="utf-8"?>
<!-- Generator: Adobe Illustrator 24.1.0, SVG Export Plug-In . SVG Version: 6.00 Build 0)  -->
<svg version="1.1" id="Layer_1" xmlns="http://www.w3.org/2000/svg" xmlns:xlink="http://www.w3.org/1999/xlink" x="0px" y="0px"
	 viewBox="0 0 150 150" style="enable-background:new 0 0 150 150;" xml:space="preserve">
<g>
	<path d="M129.4,38.73c-1.53,0.95-2,2.95-1.05,4.48c6.31,10.17,9.64,21.91,9.64,33.94c0,35.57-28.94,64.5-64.5,64.5
		c-35.57,0-64.5-28.94-64.5-64.5c0-35.57,28.94-64.5,64.5-64.5c10.63,0,21.17,2.64,30.48,7.64c1.58,0.85,3.55,0.25,4.4-1.33
		c0.85-1.58,0.26-3.55-1.33-4.4C96.8,9.05,85.19,6.14,73.49,6.14c-39.16,0-71.01,31.85-71.01,71.01c0,39.15,31.85,71.01,71.01,71.01
		c39.15,0,71.01-31.85,71.01-71.01c0-13.24-3.67-26.17-10.62-37.37C132.93,38.25,130.93,37.78,129.4,38.73z"/>
	<path d="M105.86,31.38C96.72,24.8,85.52,21.01,73.5,21.01c-30.96,0-56.16,25.2-56.16,56.16c0,30.96,25.2,56.16,56.16,56.16
		s56.16-25.2,56.16-56.16c0-13.59-4.86-26.1-12.93-35.82l-4.69,4.69c7,8.48,11.12,19.35,11.12,31.12
		c0,27.34-22.31,49.65-49.65,49.65c-27.42,0-49.65-22.31-49.65-49.65c0-27.42,22.23-49.65,49.65-49.65
		c10.21,0,19.84,3.13,27.75,8.48L105.86,31.38z"/>
	<path d="M95.48,41.76c-6.34-3.95-13.92-6.26-21.98-6.26c-22.97,0-41.66,18.69-41.66,41.66c0,22.97,18.69,41.58,41.66,41.58
		c22.97,0,41.66-18.61,41.66-41.58c0-9.63-3.29-18.44-8.73-25.53l-4.69,4.69c4.36,5.85,6.92,13.01,6.92,20.83
		c0,19.35-15.81,35.08-35.16,35.08c-19.35,0-35.16-15.73-35.16-35.08c0-19.35,15.81-35.16,35.16-35.16c6.26,0,12.19,1.65,17.21,4.53
		L95.48,41.76z"/>
	<path d="M73.5,57.4c1.89,0,3.79,0.25,5.52,0.82l5.11-5.11c-3.21-1.4-6.83-2.22-10.62-2.22C59,50.9,47.23,62.67,47.23,77.16
		c0,14.49,11.77,26.27,26.27,26.27s26.27-11.77,26.27-26.27c0-5.35-1.65-10.29-4.36-14.49l-4.78,4.78c1.73,2.88,2.63,6.18,2.63,9.72
		c0,10.87-8.89,19.76-19.76,19.76c-10.95,0-19.76-8.89-19.76-19.76C53.74,66.21,62.55,57.4,73.5,57.4z"/>
	<path d="M145.96,19c-1.22-1.32-3.27-1.41-4.6-0.19l-3.38,3.11c-3.44,3.16-7.9,4.76-12.45,4.79l4.85-4.85c1.27-1.27,1.27-3.33,0-4.6
		c-1.27-1.27-3.33-1.27-4.6,0l-4.85,4.85c0.03-4.54,1.63-9.01,4.79-12.45l3.11-3.38c1.22-1.32,1.13-3.38-0.19-4.6
		c-1.32-1.22-3.38-1.13-4.6,0.19l-3.11,3.38c-5.63,6.12-7.63,14.6-5.77,22.62L74.91,68.14c-1.27,1.27-1.27,3.33,0,4.6
		c0.64,0.63,1.47,0.95,2.3,0.95c0.83,0,1.66-0.32,2.3-0.95l40.16-40.16c1.9,0.45,3.81,0.75,5.73,0.75c6.2,0,12.29-2.3,16.98-6.62
		l3.38-3.11C147.09,22.38,147.18,20.32,145.96,19z"/>
</g>
</svg>
