<?xml version="1.0" encoding="utf-8"?>
<!-- Generator: Adobe Illustrator 24.1.0, SVG Export Plug-In . SVG Version: 6.00 Build 0)  -->
<svg version="1.1" id="Layer_1" xmlns="http://www.w3.org/2000/svg" xmlns:xlink="http://www.w3.org/1999/xlink" x="0px" y="0px"
	 viewBox="0 0 150 150" style="enable-background:new 0 0 150 150;" xml:space="preserve">
<style type="text/css">
	.st0{fill:#231F20;}
</style>
<g id="XMLID_334_">
	<g id="XMLID_1231_">
		<g id="XMLID_1236_">
			<path id="XMLID_1241_" class="st0" d="M146.6,31.77c0.17-1.17,0.26-2.39,0.26-3.62c0-1.26-0.09-2.5-0.26-3.7h-5.68
				c-0.54-3.32-1.85-6.37-3.72-9.01l4-4c-1.47-1.97-3.2-3.7-5.15-5.2l-1.55,1.55l-2.45,2.46c-2.64-1.92-5.71-3.23-9.05-3.81V0.77
				c-1.24-0.17-2.53-0.26-3.82-0.26c-1.19,0-2.34,0.07-3.48,0.23v5.64c-3.39,0.54-6.51,1.85-9.19,3.74l-4-4
				c-1.97,1.45-3.72,3.18-5.2,5.13l1.54,1.54l2.46,2.46c-1.96,2.69-3.3,5.82-3.86,9.2h-5.68c-0.17,1.21-0.24,2.45-0.24,3.7
				c0,1.22,0.07,2.45,0.24,3.62h5.66c0.56,3.42,1.9,6.57,3.84,9.26l-3.98,3.98c1.45,1.96,3.2,3.7,5.17,5.15l1.54-1.54l2.46-2.46
				c2.69,1.9,5.83,3.23,9.24,3.77v5.66c1.14,0.16,2.29,0.23,3.48,0.23c1.29,0,2.58-0.09,3.82-0.26v-5.69
				c3.35-0.58,6.44-1.92,9.08-3.84l2.46,2.46l1.54,1.54c1.96-1.47,3.69-3.21,5.15-5.19l-4-4c1.87-2.65,3.16-5.73,3.7-9.06H146.6z
				 M119.18,43.61c-8.52,0-15.46-6.92-15.46-15.44c0-8.54,6.93-15.46,15.46-15.46c8.52,0,15.46,6.92,15.46,15.46
				C134.64,36.7,127.71,43.61,119.18,43.61z M119.18,13.59c-8.05,0-14.58,6.51-14.58,14.58c0,8.05,6.53,14.57,14.58,14.57
				c8.05,0,14.58-6.51,14.58-14.57C133.77,20.1,127.24,13.59,119.18,13.59z M128.34,31.56c-0.07,0.16-0.14,0.31-0.21,0.47
				c-0.93,2.18-2.64,3.95-4.79,4.96c-0.19,0.09-0.37,0.16-0.54,0.23c-1.12,0.45-2.32,0.7-3.6,0.7c-1.15,0-2.27-0.21-3.3-0.58
				c-0.23-0.07-0.44-0.17-0.66-0.24c-2.15-0.96-3.91-2.69-4.91-4.86c-0.09-0.21-0.19-0.44-0.28-0.68c-0.38-1.05-0.63-2.2-0.63-3.41
				c0-1.24,0.24-2.41,0.66-3.49c0.09-0.23,0.16-0.45,0.28-0.65c1.01-2.15,2.78-3.88,4.94-4.79c0.21-0.1,0.4-0.19,0.59-0.26
				c1.03-0.37,2.15-0.58,3.3-0.58c1.28,0,2.48,0.24,3.6,0.72c0.16,0.05,0.33,0.12,0.47,0.19c2.17,1,3.89,2.76,4.86,4.91
				c0.05,0.16,0.12,0.3,0.17,0.45c0.4,1.08,0.65,2.25,0.65,3.49C128.95,29.36,128.72,30.51,128.34,31.56z"/>
			<path id="XMLID_1237_" class="st0" d="M119.18,13.59c-8.05,0-14.58,6.51-14.58,14.58c0,8.05,6.53,14.57,14.58,14.57
				c8.05,0,14.58-6.51,14.58-14.57C133.77,20.1,127.24,13.59,119.18,13.59z M128.34,31.56c-0.07,0.16-0.14,0.31-0.21,0.47
				c-0.93,2.18-2.64,3.95-4.79,4.96c-0.19,0.09-0.37,0.16-0.54,0.23c-1.12,0.45-2.32,0.7-3.6,0.7c-1.15,0-2.27-0.21-3.3-0.58
				c-0.23-0.07-0.44-0.17-0.66-0.24c-2.15-0.96-3.91-2.69-4.91-4.86c-0.09-0.21-0.19-0.44-0.28-0.68c-0.38-1.05-0.63-2.2-0.63-3.41
				c0-1.24,0.24-2.41,0.66-3.49c0.09-0.23,0.16-0.45,0.28-0.65c1.01-2.15,2.78-3.88,4.94-4.79c0.21-0.1,0.4-0.19,0.59-0.26
				c1.03-0.37,2.15-0.58,3.3-0.58c1.28,0,2.48,0.24,3.6,0.72c0.16,0.05,0.33,0.12,0.47,0.19c2.17,1,3.89,2.76,4.86,4.91
				c0.05,0.16,0.12,0.3,0.17,0.45c0.4,1.08,0.65,2.25,0.65,3.49C128.95,29.36,128.72,30.51,128.34,31.56z"/>
		</g>
		<path id="XMLID_1232_" class="st0" d="M119.18,13.59c-8.05,0-14.58,6.51-14.58,14.58c0,8.05,6.53,14.57,14.58,14.57
			c8.05,0,14.58-6.51,14.58-14.57C133.77,20.1,127.24,13.59,119.18,13.59z M128.34,31.56c-0.07,0.16-0.14,0.31-0.21,0.47
			c-0.93,2.18-2.64,3.95-4.79,4.96c-0.19,0.09-0.37,0.16-0.54,0.23c-1.12,0.45-2.32,0.7-3.6,0.7c-1.15,0-2.27-0.21-3.3-0.58
			c-0.23-0.07-0.44-0.17-0.66-0.24c-2.15-0.96-3.91-2.69-4.91-4.86c-0.09-0.21-0.19-0.44-0.28-0.68c-0.38-1.05-0.63-2.2-0.63-3.41
			c0-1.24,0.24-2.41,0.66-3.49c0.09-0.23,0.16-0.45,0.28-0.65c1.01-2.15,2.78-3.88,4.94-4.79c0.21-0.1,0.4-0.19,0.59-0.26
			c1.03-0.37,2.15-0.58,3.3-0.58c1.28,0,2.48,0.24,3.6,0.72c0.16,0.05,0.33,0.12,0.47,0.19c2.17,1,3.89,2.76,4.86,4.91
			c0.05,0.16,0.12,0.3,0.17,0.45c0.4,1.08,0.65,2.25,0.65,3.49C128.95,29.36,128.72,30.51,128.34,31.56z"/>
	</g>
	<g id="XMLID_1227_">
		
			<rect id="XMLID_1230_" x="62.04" y="108.77" transform="matrix(-1.069167e-03 -1 1 -1.069167e-03 -69.1229 211.6284)" class="st0" width="18.21" height="63.14"/>
		<polygon id="XMLID_1229_" class="st0" points="105.64,149.41 105.62,131.2 127.92,140.28 		"/>
		<path id="XMLID_1228_" class="st0" d="M23.51,132.46l0.02,15.86c0,0.65,0.53,1.17,1.17,1.17l12.37-0.01l-0.02-18.21l-12.37,0.01
			C24.04,131.29,23.51,131.81,23.51,132.46z"/>
	</g>
	<g id="XMLID_1223_">
		<path id="XMLID_1224_" class="st0" d="M111.22,59.64v51.65c0,6.72-5.49,12.2-12.2,12.2H43.09c-2.79,0-5.4-0.97-7.45-2.57
			c-0.6,0.37-1.27,0.76-2.05,1.12c2.55,2.25,5.88,3.61,9.5,3.61h55.92c7.91,0,14.36-6.44,14.36-14.36V59.62
			C112.65,59.66,111.91,59.66,111.22,59.64z M43.09,9.01h51.6c0.76-0.69,1.51-1.45,2.18-2.16H43.09c-7.91,0-14.36,6.44-14.36,14.36
			v53.57c0.8,0.13,1.51,0.26,2.16,0.39V21.21C30.89,14.47,36.38,9.01,43.09,9.01z"/>
	</g>
	<g id="XMLID_1216_">
		<g id="XMLID_1219_">
			<path id="XMLID_1220_" class="st0" d="M23.52,119.71c-11.24,0-20.38-9.14-20.38-20.38s9.14-20.38,20.38-20.38
				S43.9,88.09,43.9,99.33S34.76,119.71,23.52,119.71z M23.52,82.15c-9.47,0-17.18,7.7-17.18,17.18s7.7,17.18,17.18,17.18
				s17.18-7.7,17.18-17.18S32.99,82.15,23.52,82.15z"/>
		</g>
		<g id="XMLID_1217_">
			<polygon id="XMLID_1218_" class="st0" points="20.07,109.19 10.64,99.76 14.04,96.36 20.07,102.39 32.99,89.46 36.4,92.87 			"/>
		</g>
	</g>
	<path id="XMLID_1211_" class="st0" d="M87.26,82.72V65.71H65.12v-5.81h7.01V42.9H61.88V32.37h23.49v-13.1h-2.16v10.94H59.72V42.9
		H46.09v17.01h16.88v5.81H51.53v17.01h3.74v3.51h-9.18v17.01h17.69V86.23h-6.35v-3.51H87.26z M48.25,45.06h21.73v12.69H48.25V45.06z
		 M61.61,101.08H48.25V88.39h13.37V101.08z M53.69,67.87H85.1v12.69H53.69V67.87z"/>
	<g id="XMLID_1200_">
		<g id="XMLID_1209_">
			<rect id="XMLID_1210_" x="77.68" y="50.32" class="st0" width="1.08" height="2.16"/>
		</g>
		<g id="XMLID_1203_">
			<path id="XMLID_1204_" class="st0" d="M96.52,52.48H94.3v-2.16h2.22V52.48z M92.08,52.48h-2.22v-2.16h2.22V52.48z M87.64,52.48
				h-2.22v-2.16h2.22V52.48z M83.2,52.48h-2.22v-2.16h2.22V52.48z"/>
		</g>
		<g id="XMLID_1201_">
			<rect id="XMLID_1202_" x="98.74" y="50.32" class="st0" width="1.08" height="2.16"/>
		</g>
	</g>
	<g id="XMLID_1189_">
		<g id="XMLID_1198_">
			<rect id="XMLID_1199_" x="43.86" y="21.57" class="st0" width="1.08" height="2.16"/>
		</g>
		<g id="XMLID_1192_">
			<path id="XMLID_1193_" class="st0" d="M62.7,23.73h-2.22v-2.16h2.22V23.73z M58.26,23.73h-2.22v-2.16h2.22V23.73z M53.82,23.73
				H51.6v-2.16h2.22V23.73z M49.38,23.73h-2.22v-2.16h2.22V23.73z"/>
		</g>
		<g id="XMLID_1190_">
			<rect id="XMLID_1191_" x="64.92" y="21.57" class="st0" width="1.08" height="2.16"/>
		</g>
	</g>
	<g id="XMLID_1178_">
		<g id="XMLID_1187_">
			<rect id="XMLID_1188_" x="69.4" y="93.66" class="st0" width="1.08" height="2.16"/>
		</g>
		<g id="XMLID_1181_">
			<path id="XMLID_1182_" class="st0" d="M88.24,95.82h-2.22v-2.16h2.22V95.82z M83.8,95.82h-2.22v-2.16h2.22V95.82z M79.36,95.82
				h-2.22v-2.16h2.22V95.82z M74.92,95.82H72.7v-2.16h2.22V95.82z"/>
		</g>
		<g id="XMLID_1179_">
			<rect id="XMLID_1180_" x="90.46" y="93.66" class="st0" width="1.08" height="2.16"/>
		</g>
	</g>
	<g id="XMLID_1167_">
		<g id="XMLID_1176_">
			<rect id="XMLID_1177_" x="69.4" y="99.33" class="st0" width="1.08" height="2.16"/>
		</g>
		<g id="XMLID_1170_">
			<path id="XMLID_1171_" class="st0" d="M88.24,101.49h-2.22v-2.16h2.22V101.49z M83.8,101.49h-2.22v-2.16h2.22V101.49z
				 M79.36,101.49h-2.22v-2.16h2.22V101.49z M74.92,101.49H72.7v-2.16h2.22V101.49z"/>
		</g>
		<g id="XMLID_1168_">
			<rect id="XMLID_1169_" x="90.46" y="99.33" class="st0" width="1.08" height="2.16"/>
		</g>
	</g>
</g>
</svg>
