<?xml version="1.0" encoding="utf-8"?>
<!-- Generator: Adobe Illustrator 24.1.0, SVG Export Plug-In . SVG Version: 6.00 Build 0)  -->
<svg version="1.1" id="Layer_1" xmlns="http://www.w3.org/2000/svg" xmlns:xlink="http://www.w3.org/1999/xlink" x="0px" y="0px"
	 viewBox="0 0 150 150" style="enable-background:new 0 0 150 150;" xml:space="preserve">
<style type="text/css">
	.st0{fill:#231F20;}
</style>
<g id="XMLID_350_">
	<path id="XMLID_880_" class="st0" d="M69.98,70.26c13.98,0,25.35-11.37,25.35-25.35c0-13.98-11.37-25.35-25.35-25.35
		S44.63,30.94,44.63,44.91C44.63,58.89,56,70.26,69.98,70.26z M69.98,23.03c12.07,0,21.89,9.82,21.89,21.89
		c0,12.07-9.82,21.89-21.89,21.89S48.1,56.98,48.1,44.91C48.1,32.85,57.91,23.03,69.98,23.03z"/>
	<path id="XMLID_881_" class="st0" d="M63.11,41.82c3.39,0,6.15-2.76,6.15-6.15H65.8c0,1.48-1.2,2.69-2.69,2.69s-2.69-1.2-2.69-2.69
		h-3.46C56.96,39.07,59.72,41.82,63.11,41.82z"/>
	<path id="XMLID_882_" class="st0" d="M79.05,41.82c3.39,0,6.15-2.76,6.15-6.15h-3.46c0,1.48-1.2,2.69-2.69,2.69
		c-1.48,0-2.69-1.2-2.69-2.69H72.9C72.9,39.07,75.66,41.82,79.05,41.82z"/>
	<path id="XMLID_883_" class="st0" d="M60.79,49h-3.46c0,6.98,5.68,12.65,12.65,12.65c6.98,0,12.65-5.68,12.65-12.65h-3.46
		c0,5.07-4.12,9.19-9.19,9.19C64.92,58.19,60.79,54.06,60.79,49z"/>
	<path id="XMLID_886_" class="st0" d="M106.01,67.19c-2.56,0-4.85,1.21-6.32,3.07c-1.9-0.48-4.1-0.6-5.86,0.62
		c-1.9,1.33-2.7,3.85-2.98,6.79c-1.83-0.11-3.68,0.14-5.08,1.37c-1.55,1.35-2.22,3.57-2.47,6.5c-1.81-0.09-3.64,0.16-5.03,1.39
		c-2.19,1.88-2.63,5.54-2.63,10.43v2.35l-5.2,5.24l-5.88-5.92v-3c0-4.9-0.44-8.55-2.63-10.45c-1.4-1.21-3.22-1.46-5.03-1.37
		c-0.25-2.93-0.92-5.15-2.47-6.5c-1.4-1.23-3.25-1.47-5.08-1.37c-0.28-2.93-1.08-5.45-2.98-6.79c-1.92-1.33-4.33-1.07-6.36-0.48
		c-1.39-1.17-3.2-1.88-5.15-1.88c-4.44,0-8.05,3.61-8.05,8.05v26.65l15.99,26.81v4.02h-3.77l-1.95,15.17h31.2l2.17-2.17l2.18,2.17
		h31.18l-1.97-15.17h-3.75v-4.02l15.99-26.81V75.24C114.06,70.8,110.46,67.19,106.01,67.19z M59.58,88.28
		c1.17,1.01,1.37,4.42,1.39,7.14l-3.04-3.06c-0.23-0.23-0.5-0.46-0.75-0.66l-0.09-3.93C58.33,87.73,59.11,87.89,59.58,88.28z
		 M52.08,80.41c1.24,1.08,1.39,4.94,1.39,7.75v1.88c-1.24-0.21-2.52-0.14-3.73,0.21v-3.98l-0.14-6.36
		C50.83,79.84,51.62,80.02,52.08,80.41z M44.32,72.49c1.65,1.17,1.65,6.48,1.65,8.23V92.6c-0.44,0.48-0.82,0.99-1.12,1.55
		c-0.02,0.02-0.02,0.04-0.04,0.05l-0.52,0.5l-1.39-1.42V75.24c0-1.07-0.21-2.1-0.59-3.02C43.21,72.09,43.87,72.2,44.32,72.49z
		 M67.87,132.71H47.89v-5.42l-15.97-26.81V75.24c0-1.62,1.31-2.93,2.93-2.93c1.63,0,2.95,1.31,2.95,2.93v20.09l17.45,18.05
		l3.36-3.23l0.32-0.32l-3.48-3.59l-3.87-4.03l-1.92-1.97c-1.07-1.24-1-3.13,0.2-4.3c1.23-1.21,3.23-1.21,4.46,0.02l0.96,0.98
		l0.18,0.2l7.32,7.35l5.12,5.15V132.71z M94.22,82.06c0-1.76,0-7.07,1.67-8.23c0.48-0.34,1.23-0.41,2.24-0.25
		c-0.12,0.53-0.18,1.08-0.18,1.65v18.03l-1.56,1.62c-0.41-0.94-0.99-1.83-1.78-2.59c-0.12-0.12-0.25-0.25-0.39-0.34V82.06z
		 M86.72,89.49c0-2.81,0.14-6.66,1.39-7.75c0.46-0.39,1.24-0.57,2.49-0.5l-0.14,6.32v2.52c-1.23-0.25-2.51-0.21-3.73,0.11V89.49z
		 M80.61,89.63c0.39-0.36,1.05-0.53,2.03-0.53c0.16,0,0.3,0.02,0.46,0.02l-0.07,3.18c-0.04,0.02-0.05,0.04-0.09,0.07l-3.7,3.71
		C79.3,93.5,79.54,90.54,80.61,89.63z M108.95,100.48l-15.97,26.81v5.42H72.99v-23.08l13.57-13.68c0.02-0.02,0.04-0.04,0.05-0.05
		c1.6-0.37,3.3-0.14,4.74,0.68l0.04,0.02l0.27,0.27c0.51,1.1,0.37,2.42-0.44,3.38l-9.27,9.59l3.68,3.55l17.45-18.05V75.24
		c0-1.62,1.31-2.93,2.95-2.93c1.62,0,2.93,1.31,2.93,2.93V100.48z"/>
	<path id="XMLID_900_" class="st0" d="M111.58,2.12h-8.34c-6.4,0-11.62,5.24-11.62,11.62c0,3.51,1.59,6.63,4.06,8.75l-3.07,5.16
		l9.01-2.4l-0.06-0.06c0.55,0.09,1.1,0.17,1.68,0.17h8.34c6.4,0,11.62-5.21,11.62-11.62C123.2,7.36,117.99,2.12,111.58,2.12z
		 M110.6,14.2l0.75,4.4l-3.94-2.09l-3.94,2.09l0.75-4.4l-3.19-3.1l4.4-0.64l1.97-4l1.97,4l4.4,0.64L110.6,14.2z"/>
</g>
</svg>
