<?xml version="1.0" encoding="utf-8"?>
<!-- Generator: Adobe Illustrator 24.1.0, SVG Export Plug-In . SVG Version: 6.00 Build 0)  -->
<svg version="1.1" id="Layer_1" xmlns="http://www.w3.org/2000/svg" xmlns:xlink="http://www.w3.org/1999/xlink" x="0px" y="0px"
	 viewBox="0 0 150 150" style="enable-background:new 0 0 150 150;" xml:space="preserve">
<g>
	<path d="M143.99,15.18c-3.38-3.38-8.19-4.85-12.89-3.92c-14.36,2.82-27.94,8.9-39.27,17.59c-2.89,2.22-6.11,4.86-9.53,7.89
		c-18.03-1.13-31.74,8.14-45.32,18.64c-7.08,5.47-13.04,11.5-17.73,17.92c-0.52,0.71-0.64,1.64-0.32,2.46
		c0.32,0.82,1.04,1.42,1.91,1.58l19.88,2.55c0.16,0.03,0.33,0.05,0.49,0.05c1.21,0,2.29-0.86,2.52-2.09
		c0.27-1.4-0.65-2.74-2.04-3.01l-15.77-1.76c3.96-4.83,8.72-9.4,14.2-13.63c11.38-8.79,22.81-16.71,36.67-17.61
		c-6.72,6.48-13.98,14.52-21.11,24.12c-0.03,0.03-0.07,0.04-0.1,0.07c-0.19,0.19-0.3,0.41-0.42,0.63c-2.8,3.81-5.59,7.78-8.31,12.1
		c-0.64,1.02-0.49,2.34,0.36,3.18l30.01,30.02c0.5,0.5,1.15,0.75,1.82,0.75c0.47,0,0.94-0.13,1.37-0.39c4.32-2.71,8.29-5.5,12.1-8.3
		c0.22-0.12,0.45-0.24,0.64-0.43c0.03-0.03,0.04-0.07,0.07-0.1c9.43-7.01,17.38-14.14,23.8-20.77
		c-1.09,13.59-8.88,24.85-17.54,36.06c-3.84,4.98-7.98,9.37-12.33,13.11l-2.22-15.74c-0.35-1.38-1.74-2.21-3.12-1.87
		c-1.38,0.34-2.21,1.74-1.87,3.12l3.2,19.65c0.21,0.84,0.83,1.52,1.65,1.8c0.28,0.09,0.56,0.14,0.84,0.14
		c0.56,0,1.11-0.18,1.57-0.53c5.83-4.49,11.32-10.06,16.33-16.54c10.38-13.43,19.54-27.01,18.64-44.76
		c3.15-3.54,5.87-6.85,8.15-9.83c4.77-6.22,8.67-13.16,11.76-20.51c0.02-0.07,0.09-0.11,0.1-0.18c0-0.02-0.01-0.05,0-0.07
		c2.49-5.95,4.48-12.13,5.73-18.52C148.83,23.38,147.36,18.56,143.99,15.18z M79.4,106.87L52.3,79.77c1.78-2.77,3.59-5.42,5.41-7.97
		l29.66,29.66C84.82,103.28,82.17,105.09,79.4,106.87z M126.24,64.21c-2.28,2.97-5.02,6.3-8.2,9.85c-0.22,0.18-0.41,0.37-0.56,0.61
		c-6.62,7.33-15.23,15.55-25.95,23.67l-30.7-30.7c12.3-16.25,24.9-27.63,34.13-34.72c4.96-3.8,10.41-7.01,16.14-9.7
		c3.04,12.19,12.65,21.8,24.84,24.84C133.25,53.81,130.04,59.26,126.24,64.21z M142.87,27.09c-1.09,5.57-2.83,10.97-4.92,16.19
		c-10.98-2.42-19.64-11.07-22.06-22.06c5.23-2.09,10.62-3.82,16.2-4.92c3.04-0.6,6.06,0.32,8.26,2.52
		C142.55,21.01,143.47,24.02,142.87,27.09z"/>
	<path d="M101.28,45.75c-3.34,3.35-3.34,8.79,0,12.14c1.62,1.62,3.78,2.51,6.07,2.51c2.29,0,4.45-0.89,6.07-2.51
		c3.35-3.35,3.35-8.79,0-12.14C110.07,42.4,104.63,42.4,101.28,45.75z M109.78,54.25c-1.3,1.3-3.57,1.3-4.87,0
		c-1.34-1.34-1.34-3.53,0-4.87c0.67-0.67,1.55-1.01,2.44-1.01c0.88,0,1.76,0.34,2.43,1.01C111.13,50.72,111.13,52.91,109.78,54.25z"
		/>
	<path d="M83.27,63.76c-3.34,3.35-3.34,8.79,0,12.14c1.62,1.62,3.78,2.51,6.07,2.51c2.29,0,4.45-0.89,6.07-2.51
		c3.35-3.35,3.35-8.79,0-12.14C92.06,60.42,86.62,60.41,83.27,63.76z M91.77,72.27c-1.3,1.3-3.57,1.3-4.87,0
		c-1.34-1.34-1.34-3.53,0-4.87c0.67-0.67,1.55-1.01,2.44-1.01c0.88,0,1.76,0.34,2.43,1.01C93.11,68.74,93.11,70.92,91.77,72.27z"/>
	<path d="M63.39,106.73c-1.37-0.42-2.83,0.39-3.23,1.77c-5.86,20-16.29,24-37.1,24.4c-1.25-7.06-0.74-17.05,4.5-24.73
		c4.31-6.31,11.16-10.14,20.35-11.38c1.42-0.19,2.42-1.5,2.23-2.93c-0.2-1.43-1.54-2.42-2.93-2.23
		c-10.71,1.45-18.77,6.02-23.94,13.6c-6.72,9.85-6.91,22.43-4.85,30.91c0.29,1.17,1.33,1.99,2.53,1.99c0.01,0,0.01,0,0.02,0
		c23.89-0.2,37.28-4.61,44.19-28.17C65.56,108.58,64.77,107.13,63.39,106.73z"/>
	<circle cx="6.7" cy="112.72" r="4.88"/>
	<path d="M67.67,125.17c-2.34-0.81-4.89,0.44-5.69,2.78c-0.81,2.34,0.44,4.89,2.78,5.69c2.34,0.81,4.89-0.44,5.69-2.78
		C71.25,128.52,70.01,125.98,67.67,125.17z"/>
	<path d="M6.44,127.65c-0.97-0.33-2.02,0.18-2.36,1.15c-0.33,0.97,0.18,2.02,1.15,2.36c0.97,0.33,2.02-0.18,2.36-1.15
		C7.92,129.04,7.41,127.98,6.44,127.65z"/>
	<path d="M52.9,133.66c-0.97-0.33-2.02,0.18-2.36,1.15c-0.33,0.97,0.18,2.02,1.15,2.36c0.97,0.33,2.02-0.18,2.36-1.15
		C54.38,135.05,53.87,133.99,52.9,133.66z"/>
</g>
</svg>
